<svg viewBox="0 0 330 200" xmlns="http://www.w3.org/2000/svg"><g><g><g><g><g><line x1="51.53200149536133" y1="177.58399963378906" x2="46.53200149536133" y2="177.58399963378906" style="visibility: inherit;" fill="rgb(0, 0, 0)" stroke="rgb(204, 204, 204)" stroke-width="1px"></line><line x1="51.53200149536133" y1="161.43999966708097" x2="46.53200149536133" y2="161.43999966708097" style="visibility: inherit;" fill="rgb(0, 0, 0)" stroke="rgb(204, 204, 204)" stroke-width="1px"></line><line x1="51.53200149536133" y1="145.29599970037287" x2="46.53200149536133" y2="145.29599970037287" style="visibility: inherit;" fill="rgb(0, 0, 0)" stroke="rgb(204, 204, 204)" stroke-width="1px"></line><line x1="51.53200149536133" y1="129.1519997336648" x2="46.53200149536133" y2="129.1519997336648" style="visibility: inherit;" fill="rgb(0, 0, 0)" stroke="rgb(204, 204, 204)" stroke-width="1px"></line><line x1="51.53200149536133" y1="113.0079997669567" x2="46.53200149536133" y2="113.0079997669567" style="visibility: inherit;" fill="rgb(0, 0, 0)" stroke="rgb(204, 204, 204)" stroke-width="1px"></line><line x1="51.53200149536133" y1="96.86399980024858" x2="46.53200149536133" y2="96.86399980024858" style="visibility: inherit;" fill="rgb(0, 0, 0)" stroke="rgb(204, 204, 204)" stroke-width="1px"></line><line x1="51.53200149536133" y1="80.71999983354051" x2="46.53200149536133" y2="80.71999983354051" style="visibility: inherit;" fill="rgb(0, 0, 0)" stroke="rgb(204, 204, 204)" stroke-width="1px"></line><line x1="51.53200149536133" y1="64.5759998668324" x2="46.53200149536133" y2="64.5759998668324" style="visibility: inherit;" fill="rgb(0, 0, 0)" stroke="rgb(204, 204, 204)" stroke-width="1px"></line><line x1="51.53200149536133" y1="48.431999900124325" x2="46.53200149536133" y2="48.431999900124325" style="visibility: inherit;" fill="rgb(0, 0, 0)" stroke="rgb(204, 204, 204)" stroke-width="1px"></line><line x1="51.53200149536133" y1="32.28799993341622" x2="46.53200149536133" y2="32.28799993341622" style="visibility: inherit;" fill="rgb(0, 0, 0)" stroke="rgb(204, 204, 204)" stroke-width="1px"></line><line x1="51.53200149536133" y1="16.1439999667081" x2="46.53200149536133" y2="16.1439999667081" style="visibility: inherit;" fill="rgb(0, 0, 0)" stroke="rgb(204, 204, 204)" stroke-width="1px"></line><line x1="51.53200149536133" y1="0" x2="46.53200149536133" y2="0" style="visibility: inherit;" fill="rgb(0, 0, 0)" stroke="rgb(204, 204, 204)" stroke-width="1px"></line></g><g transform="translate(41.53200149536133, 0)"><text style="text-anchor: end; visibility: hidden; font-family: Roboto, sans-serif; font-size: 12px; font-weight: 200;" x="0" y="177.58399963378906" dx="0em" dy="0.3em" fill="rgb(50, 49, 63)" stroke="none" stroke-width="1px">0.55</text><text style="text-anchor: end; visibility: inherit; font-family: Roboto, sans-serif; font-size: 12px; font-weight: 200;" x="0" y="161.43999966708097" dx="0em" dy="0.3em" fill="rgb(50, 49, 63)" stroke="none" stroke-width="1px">0.6</text><text style="text-anchor: end; visibility: hidden; font-family: Roboto, sans-serif; font-size: 12px; font-weight: 200;" x="0" y="145.29599970037287" dx="0em" dy="0.3em" fill="rgb(50, 49, 63)" stroke="none" stroke-width="1px">0.65</text><text style="text-anchor: end; visibility: inherit; font-family: Roboto, sans-serif; font-size: 12px; font-weight: 200;" x="0" y="129.1519997336648" dx="0em" dy="0.3em" fill="rgb(50, 49, 63)" stroke="none" stroke-width="1px">0.7</text><text style="text-anchor: end; visibility: hidden; font-family: Roboto, sans-serif; font-size: 12px; font-weight: 200;" x="0" y="113.0079997669567" dx="0em" dy="0.3em" fill="rgb(50, 49, 63)" stroke="none" stroke-width="1px">0.75</text><text style="text-anchor: end; visibility: inherit; font-family: Roboto, sans-serif; font-size: 12px; font-weight: 200;" x="0" y="96.86399980024858" dx="0em" dy="0.3em" fill="rgb(50, 49, 63)" stroke="none" stroke-width="1px">0.8</text><text style="text-anchor: end; visibility: hidden; font-family: Roboto, sans-serif; font-size: 12px; font-weight: 200;" x="0" y="80.71999983354051" dx="0em" dy="0.3em" fill="rgb(50, 49, 63)" stroke="none" stroke-width="1px">0.85</text><text style="text-anchor: end; visibility: inherit; font-family: Roboto, sans-serif; font-size: 12px; font-weight: 200;" x="0" y="64.5759998668324" dx="0em" dy="0.3em" fill="rgb(50, 49, 63)" stroke="none" stroke-width="1px">0.9</text><text style="text-anchor: end; visibility: hidden; font-family: Roboto, sans-serif; font-size: 12px; font-weight: 200;" x="0" y="48.431999900124325" dx="0em" dy="0.3em" fill="rgb(50, 49, 63)" stroke="none" stroke-width="1px">0.95</text><text style="text-anchor: end; visibility: inherit; font-family: Roboto, sans-serif; font-size: 12px; font-weight: 200;" x="0" y="32.28799993341622" dx="0em" dy="0.3em" fill="rgb(50, 49, 63)" stroke="none" stroke-width="1px">1</text><text style="text-anchor: end; visibility: hidden; font-family: Roboto, sans-serif; font-size: 12px; font-weight: 200;" x="0" y="16.1439999667081" dx="0em" dy="0.3em" fill="rgb(50, 49, 63)" stroke="none" stroke-width="1px">1.05</text><text style="text-anchor: end; visibility: hidden; font-family: Roboto, sans-serif; font-size: 12px; font-weight: 200;" x="0" y="0" dx="0em" dy="0.3em" fill="rgb(50, 49, 63)" stroke="none" stroke-width="1px">1.1</text></g><line x1="51.53200149536133" y1="0" x2="51.53200149536133" y2="177.58399963378906" fill="rgb(0, 0, 0)" stroke="rgb(204, 204, 204)" stroke-width="1px"></line></g></g><g transform="translate(51, 0)" clip-path="url(#clip_0)"><clipPath id="clip_0"><rect width="278" height="177"></rect></clipPath><g><g><g><line x1="0" y1="0" x2="0" y2="177.58399963378906" fill="rgb(0, 0, 0)" stroke="rgb(60, 60, 60)" stroke-width="1px" opacity="0.25"></line><line x1="23.205666542053223" y1="0" x2="23.205666542053223" y2="177.58399963378906" fill="rgb(0, 0, 0)" stroke="rgb(60, 60, 60)" stroke-width="1px" opacity="0.25"></line><line x1="46.411333084106445" y1="0" x2="46.411333084106445" y2="177.58399963378906" fill="rgb(0, 0, 0)" stroke="rgb(60, 60, 60)" stroke-width="1px" opacity="0.25"></line><line x1="69.61699962615967" y1="0" x2="69.61699962615967" y2="177.58399963378906" fill="rgb(0, 0, 0)" stroke="rgb(60, 60, 60)" stroke-width="1px" opacity="0.25"></line><line x1="92.82266616821289" y1="0" x2="92.82266616821289" y2="177.58399963378906" fill="rgb(0, 0, 0)" stroke="rgb(60, 60, 60)" stroke-width="1px" opacity="0.25"></line><line x1="116.02833271026611" y1="0" x2="116.02833271026611" y2="177.58399963378906" fill="rgb(0, 0, 0)" stroke="rgb(60, 60, 60)" stroke-width="1px" opacity="0.25"></line><line x1="139.23399925231934" y1="0" x2="139.23399925231934" y2="177.58399963378906" fill="rgb(0, 0, 0)" stroke="rgb(60, 60, 60)" stroke-width="1px" opacity="0.25"></line><line x1="162.43966579437256" y1="0" x2="162.43966579437256" y2="177.58399963378906" fill="rgb(0, 0, 0)" stroke="rgb(60, 60, 60)" stroke-width="1px" opacity="0.25"></line><line x1="185.64533233642578" y1="0" x2="185.64533233642578" y2="177.58399963378906" fill="rgb(0, 0, 0)" stroke="rgb(60, 60, 60)" stroke-width="1px" opacity="0.25"></line><line x1="208.850998878479" y1="0" x2="208.850998878479" y2="177.58399963378906" fill="rgb(0, 0, 0)" stroke="rgb(60, 60, 60)" stroke-width="1px" opacity="0.25"></line><line x1="232.05666542053223" y1="0" x2="232.05666542053223" y2="177.58399963378906" fill="rgb(0, 0, 0)" stroke="rgb(60, 60, 60)" stroke-width="1px" opacity="0.25"></line><line x1="255.26233196258545" y1="0" x2="255.26233196258545" y2="177.58399963378906" fill="rgb(0, 0, 0)" stroke="rgb(60, 60, 60)" stroke-width="1px" opacity="0.25"></line><line x1="278.4679985046387" y1="0" x2="278.4679985046387" y2="177.58399963378906" fill="rgb(0, 0, 0)" stroke="rgb(60, 60, 60)" stroke-width="1px" opacity="0.25"></line></g><g><line x1="0" y1="177.58399963378906" x2="278.4679985046387" y2="177.58399963378906" fill="rgb(0, 0, 0)" stroke="rgb(60, 60, 60)" stroke-width="1px" opacity="0.25"></line><line x1="0" y1="161.43999966708097" x2="278.4679985046387" y2="161.43999966708097" fill="rgb(0, 0, 0)" stroke="rgb(60, 60, 60)" stroke-width="1px" opacity="0.25"></line><line x1="0" y1="145.29599970037287" x2="278.4679985046387" y2="145.29599970037287" fill="rgb(0, 0, 0)" stroke="rgb(60, 60, 60)" stroke-width="1px" opacity="0.25"></line><line x1="0" y1="129.1519997336648" x2="278.4679985046387" y2="129.1519997336648" fill="rgb(0, 0, 0)" stroke="rgb(60, 60, 60)" stroke-width="1px" opacity="0.25"></line><line x1="0" y1="113.0079997669567" x2="278.4679985046387" y2="113.0079997669567" fill="rgb(0, 0, 0)" stroke="rgb(60, 60, 60)" stroke-width="1px" opacity="0.25"></line><line x1="0" y1="96.86399980024858" x2="278.4679985046387" y2="96.86399980024858" fill="rgb(0, 0, 0)" stroke="rgb(60, 60, 60)" stroke-width="1px" opacity="0.25"></line><line x1="0" y1="80.71999983354051" x2="278.4679985046387" y2="80.71999983354051" fill="rgb(0, 0, 0)" stroke="rgb(60, 60, 60)" stroke-width="1px" opacity="0.25"></line><line x1="0" y1="64.5759998668324" x2="278.4679985046387" y2="64.5759998668324" fill="rgb(0, 0, 0)" stroke="rgb(60, 60, 60)" stroke-width="1px" opacity="0.25"></line><line x1="0" y1="48.431999900124325" x2="278.4679985046387" y2="48.431999900124325" fill="rgb(0, 0, 0)" stroke="rgb(60, 60, 60)" stroke-width="1px" opacity="0.25"></line><line x1="0" y1="32.28799993341622" x2="278.4679985046387" y2="32.28799993341622" fill="rgb(0, 0, 0)" stroke="rgb(60, 60, 60)" stroke-width="1px" opacity="0.25"></line><line x1="0" y1="16.1439999667081" x2="278.4679985046387" y2="16.1439999667081" fill="rgb(0, 0, 0)" stroke="rgb(60, 60, 60)" stroke-width="1px" opacity="0.25"></line><line x1="0" y1="0" x2="278.4679985046387" y2="0" fill="rgb(0, 0, 0)" stroke="rgb(60, 60, 60)" stroke-width="1px" opacity="0.25"></line></g></g></g><g><g><line x1="0" y1="355.1679992675781" x2="278.4679985046387" y2="355.1679992675781" fill="rgb(0, 0, 0)" stroke="rgb(153, 153, 153)" stroke-width="1.5px"></line></g></g><g><g><line x1="23.205666542053223" y1="0" x2="23.205666542053223" y2="177.58399963378906" fill="rgb(0, 0, 0)" stroke="rgb(153, 153, 153)" stroke-width="1.5px"></line></g></g><g><g><g><g><g><path style="fill: none;" stroke="rgb(0, 119, 187)" stroke-width="2px" d="M29.00708317756653,182.47152240124672L30.16736650466919,154.50304727891236L31.32764983177185,131.72190176529298L32.48793315887451,117.52816372069424L33.64821648597717,103.52603450744033L34.808499813079834,91.97343462530502L35.9687831401825,82.5056052944547L37.129066467285156,115.04114004357108L38.28934979438782,101.48250368436061L39.44963312149048,87.49823943132712L40.60991644859314,75.31342471112511L41.7701997756958,66.62510560292135L42.93048310279846,60.75573224647828L44.09076642990112,56.434955675364336L45.251049757003784,54.47275052214311L46.411333084106445,52.25108065027004L47.571616411209106,50.61600091200078L48.73189973831177,50.52255499076981L49.89218306541443,49.08289090717008L51.05246639251708,47.80506439148446L52.21274971961975,47.99732471058543L53.37303304672242,46.84158255527404L54.53331637382507,46.8321563573628L55.693599700927734,46.11043103718033L56.853883028030396,47.57168770652778L58.01416635513306,46.107328410906845L59.17444968223572,44.00285936142623L60.33473300933838,42.590802530583595L61.49501633644104,42.9944656203569L62.6552996635437,42.82461171168423L63.81558299064636,43.76277918356932L64.97586631774902,43.82961119273669L66.13614964485168,42.5686736789368L67.29643297195435,42.10076938534234L68.456716299057,41.425101205477716L69.61699962615967,40.93995158293563L70.77728295326233,40.859886599363435L71.937566280365,40.81781701748249L73.09784960746765,40.291402950822295L74.25813293457031,40.46800972646964L75.41841626167297,40.440256136974014L76.57869958877563,40.11284948381136L77.7389829158783,39.772048519532056L78.89926624298096,38.90649607749739L80.05954957008362,38.75657404777055L81.21983289718628,38.6552367244434L82.38011622428894,38.67529963040903L83.5403995513916,38.653657690388776L84.70068287849425,38.03183389314975L85.86096620559692,37.96591802173513L87.02124953269958,37.72565487548144L88.18153285980225,37.934987751338525L89.34181618690492,37.879791665477825L90.50209951400757,37.7718540660046L91.66238284111023,37.8332847182212L92.82266616821289,38.134444421907745L93.98294949531555,37.78285190787318L95.14323282241821,37.67403691234951L96.30351614952087,37.85881991184765L97.46379947662354,38.30649779704581L98.6240828037262,37.44940943301214L99.78436613082886,37.51238319209717L100.94464945793152,37.52099992300862L102.10493278503417,37.12732557987497L103.26521611213684,37.282151818745895L104.4254994392395,36.81128096642337L105.58578276634216,36.95768622499014L106.74606609344484,36.87083682259021L107.90634942054749,36.66743129981748L109.06663274765015,36.69655839304305L110.22691607475281,36.562600062488876L111.38719940185547,36.769911417907345L112.54748272895813,36.82432501746101L113.70776605606079,36.980571749618605L114.86804938316345,36.994904255951624L116.02833271026611,37.14578828134478L117.18861603736877,37.113399574215784L118.34889936447144,36.30798548282835L119.50918269157408,36.382403047925614L120.66946601867676,36.83598272578243L121.82974934577942,36.53916285336122L122.99003267288208,36.731701854559354L124.15031599998476,36.47923677524155L125.3105993270874,36.30551584572009L126.47088265419006,36.72367766790215L127.63116598129272,36.252063452617556L128.79144930839539,36.04353291893287L129.95173263549805,35.77590688099318L131.1120159626007,35.70801374227461L132.27229928970337,36.01139152910284L133.43258261680603,36.03473615794464L134.5928659439087,36.09182589526661L135.75314927101135,35.77560586246437L136.913432598114,35.97914282411737L138.07371592521667,36.32076784502393L139.23399925231934,36.257200922378935L140.394282579422,35.9702897126565L141.55456590652466,35.92792047765509L142.71484923362732,37.62955087588898L143.87513256073,38.51572198849122L145.03541588783264,37.074340615879315L146.1956992149353,35.71572232745213L147.35598254203796,35.273526479193684L148.51626586914062,34.68515895836651L149.6765491962433,34.25757846121798L150.83683252334595,34.252102633759826L151.99711585044858,34.119801029407526L153.15739917755127,34.46299125058494L154.31768250465393,34.515905412122756L155.4779658317566,34.8711643564523L156.63824915885925,35.25776174028172L157.7985324859619,35.170709917132406L158.95881581306458,35.7920922254344L160.11909914016724,35.7304286726658L161.27938246726993,35.66270891343547L162.43966579437256,35.958244023314286L163.59994912147522,36.16892565668543L164.76023244857788,35.687851015837566L165.92051577568054,35.691242265085215L167.0807991027832,35.51022664119553L168.24108242988586,35.331731249786074L169.4013657569885,35.52559524875647L170.5616490840912,35.922295318483755L171.72193241119385,35.60293796939849L172.8822157382965,35.38718183567418L174.04249906539917,35.212773619627036L175.20278239250183,35.66336824144767L176.3630657196045,35.45661113295504L177.52334904670715,35.12512836751817L178.68363237380984,35.01910824186117L179.84391570091248,35.44652611560091L181.00419902801514,36.01775049895231L182.1644823551178,38.4136145390991L183.32476568222046,37.549103811601796L184.48504900932312,36.1700759634324L185.64533233642578,35.58334660137118L186.8056156635284,35.23365282521673L187.9658989906311,35.22305107153982L189.12618231773376,36.69535382029587L190.28646564483643,36.01445128918028L191.4467489719391,35.65763697879032L192.60703229904175,35.490695639934735L193.7673156261444,35.50755510165316L194.92759895324707,35.21389228835695L196.08788228034976,35.469295123640485L197.2481656074524,35.49444074185295L198.40844893455505,35.38959227463188L199.56873226165771,35.30257748311207L200.72901558876038,34.869421997560195L201.88929891586304,34.9204701981706L203.0495822429657,35.13278746214597L204.20986557006833,35.342708567277235L205.37014889717102,35.44055037085954L206.53043222427368,35.10134085009307L207.69071555137634,35.02309167333239L208.850998878479,35.23850627759632L210.01128220558167,35.61788695534692L211.17156553268433,35.670900876372265L212.331848859787,35.422034274249434L213.49213218688968,35.20273522350973L214.6524155139923,35.15371612345917L215.81269884109497,34.92590661150826L216.97298216819763,35.40479692037848L218.1332654953003,35.53905456435933L219.29354882240295,35.206739761145776L220.45383214950562,35.582582481007165L221.61411547660825,35.32308887950175L222.77439880371094,35.69075323441784L223.9346821308136,35.55192971255929L225.09496545791626,35.336251994965984L226.25524878501892,35.29346491380272L227.41553211212158,35.29087986287103L228.57581543922424,35.07023681308794L229.7360987663269,35.245190820926474L230.8963820934296,35.41104944790567L232.05666542053223,35.14703787309575L233.2169487476349,35.095917941217515L234.37723207473755,34.98040177589615L235.5375154018402,35.13936082223841L236.69779872894287,35.248042093954446L237.85808205604553,35.0904228784836L239.01836538314816,35.05337431120613L240.17864871025085,35.03501535345493L241.33893203735352,34.9965560224616L242.49921536445618,35.033951296891395L243.65949869155884,35.082634243654574L244.8197820186615,34.74996761236651L245.98006534576416,34.952028541595205L247.14034867286682,62.063011277809174L248.3006319999695,71.2483901811976L249.46091532707214,62.07530174053232L250.6211986541748,53.65922304370534L251.78148198127747,47.25199113818305L252.94176530838013,43.18407050332238" fill="none"></path></g></g></g></g><g opacity="0.2"><g><g><g><path style="fill: none;" stroke="rgb(0, 119, 187)" stroke-width="2px" d="M26.68651652336121,207.48835716184243L27.846799850463867,159.75361665969436L29.00708317756653,131.29258362207278L30.16736650466919,113.0112714420598L31.32764983177185,97.20967729358482L32.48793315887451,95.75330074400635L33.64821648597717,81.8813790616448L34.808499813079834,74.03288067618801L35.9687831401825,67.76138742587635L37.129066467285156,165.79497643422326L38.28934979438782,80.3097433226983L39.44963312149048,65.64701927761816L40.60991644859314,56.26660713799623L41.7701997756958,53.04067775088037L42.93048310279846,51.577488419028356L44.09076642990112,49.67774215753461L45.251049757003784,51.4039164322342L46.411333084106445,48.77633793118302L47.571616411209106,48.05864788444526L48.73189973831177,50.37639875323131L49.89218306541443,46.83113463090363L51.05246639251708,45.806426743459866L52.21274971961975,48.29803827625505L53.37303304672242,45.03388802587573L54.53331637382507,46.8174128406182L55.693599700927734,44.98157971452122L56.853883028030396,49.85724164980971L58.01416635513306,43.816921113254736L59.17444968223572,40.71125465389991L60.33473300933838,40.38220111911706L61.49501633644104,43.625836042085076L62.6552996635437,42.558942790958774L63.81558299064636,45.230169286915064L64.97586631774902,43.93414330768463L66.13614964485168,40.5964381029282L67.29643297195435,41.36891908506933L68.456716299057,40.36828687735499L69.61699962615967,40.181127816309065L70.77728295326233,40.73465675346104L71.937566280365,40.75201587665522L73.09784960746765,39.46803735986332L74.25813293457031,40.74424083699841L75.41841626167297,40.39684667649043L76.57869958877563,39.60075189816385L77.7389829158783,39.2390008574975L78.89926624298096,37.55268328361294L80.05954957008362,38.52208061666636L81.21983289718628,38.49673475719103L82.38011622428894,38.70668007307279L83.5403995513916,38.61980747651121L84.70068287849425,37.05923769747232L85.86096620559692,37.86281883824072L87.02124953269958,37.34985867236738L88.18153285980225,38.26240583921722L89.34181618690492,37.79345932605464L90.50209951400757,37.603028589905605L91.66238284111023,37.92936855886763L92.82266616821289,38.60548908664816L93.98294949531555,37.23292515515246L95.14323282241821,37.503839098838164L96.30351614952087,38.14783947516515L97.46379947662354,39.006711925176226L98.6240828037262,36.108835325164634L99.78436613082886,37.61088061015308L100.94464945793152,37.53447737392148L102.10493278503417,36.511578530358285L103.26521611213684,37.52431593595416L104.4254994392395,36.074790658944565L105.58578276634216,37.18667906531254L106.74606609344484,36.7349954496058L107.90634942054749,36.34928420009603L109.06663274765015,36.742116154242005L110.22691607475281,36.35307549418611L111.38719940185547,37.094167640485004L112.54748272895813,36.9094334680449L113.70776605606079,37.224957664018994L114.86804938316345,37.0173217658571L116.02833271026611,37.381786372344266L117.18861603736877,37.06274031434741L118.34889936447144,35.04823523732493L119.50918269157408,36.49879975230846L120.66946601867676,37.545427862943086L121.82974934577942,36.074906129830545L122.99003267288208,37.032852600023055L124.15031599998476,36.084355497334265L125.3105993270874,36.03379849441728L126.47088265419006,37.37772564618686L127.63116598129272,35.5144104492237L128.79144930839539,35.71736977650291L129.95173263549805,35.35731230883111L131.1120159626007,35.601821909919906L132.27229928970337,36.48590550337265L133.43258261680603,36.07124955177414L134.5928659439087,36.181120099795855L135.75314927101135,35.281005298337845L136.913432598114,36.29749550772847L138.07371592521667,36.85510441618551L139.23399925231934,36.15777573567773L140.394282579422,35.52153115385989L141.55456590652466,35.86165064855036L142.71484923362732,40.29107534492143L143.87513256073,39.9017844979459L145.03541588783264,34.819872315127405L146.1956992149353,33.59070397888654L147.35598254203796,34.58188681909718L148.51626586914062,33.76489181040599L149.6765491962433,33.588798709267664L150.83683252334595,34.24353787799193L151.99711585044858,33.912867750805184L153.15739917755127,34.99977595550348L154.31768250465393,34.598668587861404L155.4779658317566,35.42682578219851L156.63824915885925,35.862439699604636L157.7985324859619,35.03455193733485L158.95881581306458,36.76399788713754L160.11909914016724,35.63398055166877L161.27938246726993,35.556788264382895L162.43966579437256,36.420491246457985L163.59994912147522,36.49845333965049L164.76023244857788,34.93540093656274L165.92051577568054,35.69654652672897L167.0807991027832,35.22709963972707L168.24108242988586,35.05254615040199L169.4013657569885,35.8288184266332L170.5616490840912,36.54277491472387L171.72193241119385,35.10343032082927L172.8822157382965,35.049717113695166L174.04249906539917,34.9399812817071L175.20278239250183,36.36814444480811L176.3630657196045,35.13322180941531L177.52334904670715,34.60665532414254L178.68363237380984,34.85328189147452L179.84391570091248,36.115051507860564L181.00419902801514,36.91120402163013L182.1644823551178,42.160991627533825L183.32476568222046,36.19692036602913L184.48504900932312,34.013134970141884L185.64533233642578,34.66564170173695L186.8056156635284,34.6866958932829L187.9658989906311,35.20646884142979L189.12618231773376,38.99818632476047L190.28646564483643,34.94944989435849L191.4467489719391,35.09954280100087L192.60703229904175,35.2295822637759L193.7673156261444,35.53392502895641L194.92759895324707,34.75457352909873L196.08788228034976,35.868771353186546L197.2481656074524,35.53377106777509L198.40844893455505,35.225598518209175L199.56873226165771,35.1664774245811L200.72901558876038,34.191922391953355L201.88929891586304,35.0003148196381L203.0495822429657,35.46487343913299L204.20986557006833,35.67104670607232L205.37014889717102,35.59358498671912L206.53043222427368,34.570782368894236L207.69071555137634,34.90070193532205L208.850998878479,35.57543681247066L210.01128220558167,36.21127724618751L211.17156553268433,35.753820086181165L212.331848859787,35.03278138374962L213.49213218688968,34.859729015942435L214.6524155139923,35.077045223380026L215.81269884109497,34.56958916973899L216.97298216819763,36.15383048040633L218.1332654953003,35.74904728956016L219.29354882240295,34.68696532535022L220.45383214950562,36.17043904284155L221.61411547660825,34.91721427201895L222.77439880371094,36.26581799467124L223.9346821308136,35.334795486062596L225.09496545791626,34.998909923858534L226.25524878501892,35.226541530444784L227.41553211212158,35.286836578080454L228.57581543922424,34.725128453170676L229.7360987663269,35.51883683318674L230.8963820934296,35.67046935164236L232.05666542053223,34.73409669198276L233.2169487476349,35.01596112469008L234.37723207473755,34.79972264552174L235.5375154018402,35.38798907420974L236.69779872894287,35.41803074971542L237.85808205604553,34.843890259413804L239.01836538314816,34.99542655213111L240.17864871025085,35.00630006056204L241.33893203735352,34.93640168424134L242.49921536445618,35.092441341512334L243.65949869155884,35.158779365514945L244.8197820186615,34.22964288137753L245.98006534576416,35.268072559106706L247.14034867286682,104.46736889086178L248.3006319999695,85.61526487624097L249.46091532707214,47.7276505897482L250.6211986541748,40.49561277430921L251.78148198127747,37.230423285955965L252.94176530838013,36.82142540777107" fill="none"></path></g></g></g></g></g></g><g transform="translate(51, 177)" clip-path="url(#clip_1)"><clipPath id="clip_1"><rect width="278" height="22"></rect></clipPath><g><g><line x1="0" y1="0" x2="0" y2="5" style="visibility: inherit;" fill="rgb(0, 0, 0)" stroke="rgb(204, 204, 204)" stroke-width="1px"></line><line x1="23.205666542053223" y1="0" x2="23.205666542053223" y2="5" style="visibility: inherit;" fill="rgb(0, 0, 0)" stroke="rgb(204, 204, 204)" stroke-width="1px"></line><line x1="46.411333084106445" y1="0" x2="46.411333084106445" y2="5" style="visibility: inherit;" fill="rgb(0, 0, 0)" stroke="rgb(204, 204, 204)" stroke-width="1px"></line><line x1="69.61699962615967" y1="0" x2="69.61699962615967" y2="5" style="visibility: inherit;" fill="rgb(0, 0, 0)" stroke="rgb(204, 204, 204)" stroke-width="1px"></line><line x1="92.82266616821289" y1="0" x2="92.82266616821289" y2="5" style="visibility: inherit;" fill="rgb(0, 0, 0)" stroke="rgb(204, 204, 204)" stroke-width="1px"></line><line x1="116.02833271026611" y1="0" x2="116.02833271026611" y2="5" style="visibility: inherit;" fill="rgb(0, 0, 0)" stroke="rgb(204, 204, 204)" stroke-width="1px"></line><line x1="139.23399925231934" y1="0" x2="139.23399925231934" y2="5" style="visibility: inherit;" fill="rgb(0, 0, 0)" stroke="rgb(204, 204, 204)" stroke-width="1px"></line><line x1="162.43966579437256" y1="0" x2="162.43966579437256" y2="5" style="visibility: inherit;" fill="rgb(0, 0, 0)" stroke="rgb(204, 204, 204)" stroke-width="1px"></line><line x1="185.64533233642578" y1="0" x2="185.64533233642578" y2="5" style="visibility: inherit;" fill="rgb(0, 0, 0)" stroke="rgb(204, 204, 204)" stroke-width="1px"></line><line x1="208.850998878479" y1="0" x2="208.850998878479" y2="5" style="visibility: inherit;" fill="rgb(0, 0, 0)" stroke="rgb(204, 204, 204)" stroke-width="1px"></line><line x1="232.05666542053223" y1="0" x2="232.05666542053223" y2="5" style="visibility: inherit;" fill="rgb(0, 0, 0)" stroke="rgb(204, 204, 204)" stroke-width="1px"></line><line x1="255.26233196258545" y1="0" x2="255.26233196258545" y2="5" style="visibility: inherit;" fill="rgb(0, 0, 0)" stroke="rgb(204, 204, 204)" stroke-width="1px"></line><line x1="278.4679985046387" y1="0" x2="278.4679985046387" y2="5" style="visibility: inherit;" fill="rgb(0, 0, 0)" stroke="rgb(204, 204, 204)" stroke-width="1px"></line></g><g transform="translate(0, 8)"><text style="text-anchor: middle; visibility: hidden; font-family: Roboto, sans-serif; font-size: 12px; font-weight: 200;" x="0" y="0" dx="0em" dy="0.95em" fill="rgb(50, 49, 63)" stroke="none" stroke-width="1px">-20</text><text style="text-anchor: middle; visibility: inherit; font-family: Roboto, sans-serif; font-size: 12px; font-weight: 200;" x="23.205666542053223" y="0" dx="0em" dy="0.95em" fill="rgb(50, 49, 63)" stroke="none" stroke-width="1px">0</text><text style="text-anchor: middle; visibility: hidden; font-family: Roboto, sans-serif; font-size: 12px; font-weight: 200;" x="46.411333084106445" y="0" dx="0em" dy="0.95em" fill="rgb(50, 49, 63)" stroke="none" stroke-width="1px">20</text><text style="text-anchor: middle; visibility: inherit; font-family: Roboto, sans-serif; font-size: 12px; font-weight: 200;" x="69.61699962615967" y="0" dx="0em" dy="0.95em" fill="rgb(50, 49, 63)" stroke="none" stroke-width="1px">40</text><text style="text-anchor: middle; visibility: hidden; font-family: Roboto, sans-serif; font-size: 12px; font-weight: 200;" x="92.82266616821289" y="0" dx="0em" dy="0.95em" fill="rgb(50, 49, 63)" stroke="none" stroke-width="1px">60</text><text style="text-anchor: middle; visibility: inherit; font-family: Roboto, sans-serif; font-size: 12px; font-weight: 200;" x="116.02833271026611" y="0" dx="0em" dy="0.95em" fill="rgb(50, 49, 63)" stroke="none" stroke-width="1px">80</text><text style="text-anchor: middle; visibility: hidden; font-family: Roboto, sans-serif; font-size: 12px; font-weight: 200;" x="139.23399925231934" y="0" dx="0em" dy="0.95em" fill="rgb(50, 49, 63)" stroke="none" stroke-width="1px">100</text><text style="text-anchor: middle; visibility: inherit; font-family: Roboto, sans-serif; font-size: 12px; font-weight: 200;" x="162.43966579437256" y="0" dx="0em" dy="0.95em" fill="rgb(50, 49, 63)" stroke="none" stroke-width="1px">120</text><text style="text-anchor: middle; visibility: hidden; font-family: Roboto, sans-serif; font-size: 12px; font-weight: 200;" x="185.64533233642578" y="0" dx="0em" dy="0.95em" fill="rgb(50, 49, 63)" stroke="none" stroke-width="1px">140</text><text style="text-anchor: middle; visibility: inherit; font-family: Roboto, sans-serif; font-size: 12px; font-weight: 200;" x="208.850998878479" y="0" dx="0em" dy="0.95em" fill="rgb(50, 49, 63)" stroke="none" stroke-width="1px">160</text><text style="text-anchor: middle; visibility: hidden; font-family: Roboto, sans-serif; font-size: 12px; font-weight: 200;" x="232.05666542053223" y="0" dx="0em" dy="0.95em" fill="rgb(50, 49, 63)" stroke="none" stroke-width="1px">180</text><text style="text-anchor: middle; visibility: inherit; font-family: Roboto, sans-serif; font-size: 12px; font-weight: 200;" x="255.26233196258545" y="0" dx="0em" dy="0.95em" fill="rgb(50, 49, 63)" stroke="none" stroke-width="1px">200</text><text style="text-anchor: middle; visibility: hidden; font-family: Roboto, sans-serif; font-size: 12px; font-weight: 200;" x="278.4679985046387" y="0" dx="0em" dy="0.95em" fill="rgb(50, 49, 63)" stroke="none" stroke-width="1px">220</text></g><line x1="0" y1="0" x2="278.4679985046387" y2="0" fill="rgb(0, 0, 0)" stroke="rgb(204, 204, 204)" stroke-width="1px"></line></g></g></g></g></svg>