<svg viewBox="0 0 330 200" xmlns="http://www.w3.org/2000/svg"><g><g><g><g><g><line x1="41.149001121520996" y1="177.58399963378906" x2="36.149001121520996" y2="177.58399963378906" style="visibility: inherit;" fill="rgb(0, 0, 0)" stroke="rgb(204, 204, 204)" stroke-width="1px"></line><line x1="41.149001121520996" y1="161.43999966708097" x2="36.149001121520996" y2="161.43999966708097" style="visibility: inherit;" fill="rgb(0, 0, 0)" stroke="rgb(204, 204, 204)" stroke-width="1px"></line><line x1="41.149001121520996" y1="145.29599970037285" x2="36.149001121520996" y2="145.29599970037285" style="visibility: inherit;" fill="rgb(0, 0, 0)" stroke="rgb(204, 204, 204)" stroke-width="1px"></line><line x1="41.149001121520996" y1="129.15199973366478" x2="36.149001121520996" y2="129.15199973366478" style="visibility: inherit;" fill="rgb(0, 0, 0)" stroke="rgb(204, 204, 204)" stroke-width="1px"></line><line x1="41.149001121520996" y1="113.00799976695667" x2="36.149001121520996" y2="113.00799976695667" style="visibility: inherit;" fill="rgb(0, 0, 0)" stroke="rgb(204, 204, 204)" stroke-width="1px"></line><line x1="41.149001121520996" y1="96.86399980024858" x2="36.149001121520996" y2="96.86399980024858" style="visibility: inherit;" fill="rgb(0, 0, 0)" stroke="rgb(204, 204, 204)" stroke-width="1px"></line><line x1="41.149001121520996" y1="80.71999983354048" x2="36.149001121520996" y2="80.71999983354048" style="visibility: inherit;" fill="rgb(0, 0, 0)" stroke="rgb(204, 204, 204)" stroke-width="1px"></line><line x1="41.149001121520996" y1="64.57599986683239" x2="36.149001121520996" y2="64.57599986683239" style="visibility: inherit;" fill="rgb(0, 0, 0)" stroke="rgb(204, 204, 204)" stroke-width="1px"></line><line x1="41.149001121520996" y1="48.43199990012429" x2="36.149001121520996" y2="48.43199990012429" style="visibility: inherit;" fill="rgb(0, 0, 0)" stroke="rgb(204, 204, 204)" stroke-width="1px"></line><line x1="41.149001121520996" y1="32.28799993341618" x2="36.149001121520996" y2="32.28799993341618" style="visibility: inherit;" fill="rgb(0, 0, 0)" stroke="rgb(204, 204, 204)" stroke-width="1px"></line><line x1="41.149001121520996" y1="16.1439999667081" x2="36.149001121520996" y2="16.1439999667081" style="visibility: inherit;" fill="rgb(0, 0, 0)" stroke="rgb(204, 204, 204)" stroke-width="1px"></line><line x1="41.149001121520996" y1="0" x2="36.149001121520996" y2="0" style="visibility: inherit;" fill="rgb(0, 0, 0)" stroke="rgb(204, 204, 204)" stroke-width="1px"></line></g><g transform="translate(31.149001121520996, 0)"><text style="text-anchor: end; visibility: hidden; font-family: Roboto, sans-serif; font-size: 12px; font-weight: 200;" x="0" y="177.58399963378906" dx="0em" dy="0.3em" fill="rgb(50, 49, 63)" stroke="none" stroke-width="1px">-10</text><text style="text-anchor: end; visibility: inherit; font-family: Roboto, sans-serif; font-size: 12px; font-weight: 200;" x="0" y="161.43999966708097" dx="0em" dy="0.3em" fill="rgb(50, 49, 63)" stroke="none" stroke-width="1px">0</text><text style="text-anchor: end; visibility: hidden; font-family: Roboto, sans-serif; font-size: 12px; font-weight: 200;" x="0" y="145.29599970037285" dx="0em" dy="0.3em" fill="rgb(50, 49, 63)" stroke="none" stroke-width="1px">10</text><text style="text-anchor: end; visibility: inherit; font-family: Roboto, sans-serif; font-size: 12px; font-weight: 200;" x="0" y="129.15199973366478" dx="0em" dy="0.3em" fill="rgb(50, 49, 63)" stroke="none" stroke-width="1px">20</text><text style="text-anchor: end; visibility: hidden; font-family: Roboto, sans-serif; font-size: 12px; font-weight: 200;" x="0" y="113.00799976695667" dx="0em" dy="0.3em" fill="rgb(50, 49, 63)" stroke="none" stroke-width="1px">30</text><text style="text-anchor: end; visibility: inherit; font-family: Roboto, sans-serif; font-size: 12px; font-weight: 200;" x="0" y="96.86399980024858" dx="0em" dy="0.3em" fill="rgb(50, 49, 63)" stroke="none" stroke-width="1px">40</text><text style="text-anchor: end; visibility: hidden; font-family: Roboto, sans-serif; font-size: 12px; font-weight: 200;" x="0" y="80.71999983354048" dx="0em" dy="0.3em" fill="rgb(50, 49, 63)" stroke="none" stroke-width="1px">50</text><text style="text-anchor: end; visibility: inherit; font-family: Roboto, sans-serif; font-size: 12px; font-weight: 200;" x="0" y="64.57599986683239" dx="0em" dy="0.3em" fill="rgb(50, 49, 63)" stroke="none" stroke-width="1px">60</text><text style="text-anchor: end; visibility: hidden; font-family: Roboto, sans-serif; font-size: 12px; font-weight: 200;" x="0" y="48.43199990012429" dx="0em" dy="0.3em" fill="rgb(50, 49, 63)" stroke="none" stroke-width="1px">70</text><text style="text-anchor: end; visibility: inherit; font-family: Roboto, sans-serif; font-size: 12px; font-weight: 200;" x="0" y="32.28799993341618" dx="0em" dy="0.3em" fill="rgb(50, 49, 63)" stroke="none" stroke-width="1px">80</text><text style="text-anchor: end; visibility: hidden; font-family: Roboto, sans-serif; font-size: 12px; font-weight: 200;" x="0" y="16.1439999667081" dx="0em" dy="0.3em" fill="rgb(50, 49, 63)" stroke="none" stroke-width="1px">90</text><text style="text-anchor: end; visibility: hidden; font-family: Roboto, sans-serif; font-size: 12px; font-weight: 200;" x="0" y="0" dx="0em" dy="0.3em" fill="rgb(50, 49, 63)" stroke="none" stroke-width="1px">100</text></g><line x1="41.149001121520996" y1="0" x2="41.149001121520996" y2="177.58399963378906" fill="rgb(0, 0, 0)" stroke="rgb(204, 204, 204)" stroke-width="1px"></line></g></g><g transform="translate(41, 0)" clip-path="url(#clip_0)"><clipPath id="clip_0"><rect width="288" height="177"></rect></clipPath><g><g><g><line x1="0" y1="0" x2="0" y2="177.58399963378906" fill="rgb(0, 0, 0)" stroke="rgb(60, 60, 60)" stroke-width="1px" opacity="0.25"></line><line x1="24.07091657320658" y1="0" x2="24.07091657320658" y2="177.58399963378906" fill="rgb(0, 0, 0)" stroke="rgb(60, 60, 60)" stroke-width="1px" opacity="0.25"></line><line x1="48.14183314641316" y1="0" x2="48.14183314641316" y2="177.58399963378906" fill="rgb(0, 0, 0)" stroke="rgb(60, 60, 60)" stroke-width="1px" opacity="0.25"></line><line x1="72.21274971961975" y1="0" x2="72.21274971961975" y2="177.58399963378906" fill="rgb(0, 0, 0)" stroke="rgb(60, 60, 60)" stroke-width="1px" opacity="0.25"></line><line x1="96.28366629282633" y1="0" x2="96.28366629282633" y2="177.58399963378906" fill="rgb(0, 0, 0)" stroke="rgb(60, 60, 60)" stroke-width="1px" opacity="0.25"></line><line x1="120.35458286603293" y1="0" x2="120.35458286603293" y2="177.58399963378906" fill="rgb(0, 0, 0)" stroke="rgb(60, 60, 60)" stroke-width="1px" opacity="0.25"></line><line x1="144.4254994392395" y1="0" x2="144.4254994392395" y2="177.58399963378906" fill="rgb(0, 0, 0)" stroke="rgb(60, 60, 60)" stroke-width="1px" opacity="0.25"></line><line x1="168.4964160124461" y1="0" x2="168.4964160124461" y2="177.58399963378906" fill="rgb(0, 0, 0)" stroke="rgb(60, 60, 60)" stroke-width="1px" opacity="0.25"></line><line x1="192.56733258565265" y1="0" x2="192.56733258565265" y2="177.58399963378906" fill="rgb(0, 0, 0)" stroke="rgb(60, 60, 60)" stroke-width="1px" opacity="0.25"></line><line x1="216.63824915885925" y1="0" x2="216.63824915885925" y2="177.58399963378906" fill="rgb(0, 0, 0)" stroke="rgb(60, 60, 60)" stroke-width="1px" opacity="0.25"></line><line x1="240.70916573206586" y1="0" x2="240.70916573206586" y2="177.58399963378906" fill="rgb(0, 0, 0)" stroke="rgb(60, 60, 60)" stroke-width="1px" opacity="0.25"></line><line x1="264.7800823052724" y1="0" x2="264.7800823052724" y2="177.58399963378906" fill="rgb(0, 0, 0)" stroke="rgb(60, 60, 60)" stroke-width="1px" opacity="0.25"></line><line x1="288.850998878479" y1="0" x2="288.850998878479" y2="177.58399963378906" fill="rgb(0, 0, 0)" stroke="rgb(60, 60, 60)" stroke-width="1px" opacity="0.25"></line></g><g><line x1="0" y1="177.58399963378906" x2="288.850998878479" y2="177.58399963378906" fill="rgb(0, 0, 0)" stroke="rgb(60, 60, 60)" stroke-width="1px" opacity="0.25"></line><line x1="0" y1="161.43999966708097" x2="288.850998878479" y2="161.43999966708097" fill="rgb(0, 0, 0)" stroke="rgb(60, 60, 60)" stroke-width="1px" opacity="0.25"></line><line x1="0" y1="145.29599970037285" x2="288.850998878479" y2="145.29599970037285" fill="rgb(0, 0, 0)" stroke="rgb(60, 60, 60)" stroke-width="1px" opacity="0.25"></line><line x1="0" y1="129.15199973366478" x2="288.850998878479" y2="129.15199973366478" fill="rgb(0, 0, 0)" stroke="rgb(60, 60, 60)" stroke-width="1px" opacity="0.25"></line><line x1="0" y1="113.00799976695667" x2="288.850998878479" y2="113.00799976695667" fill="rgb(0, 0, 0)" stroke="rgb(60, 60, 60)" stroke-width="1px" opacity="0.25"></line><line x1="0" y1="96.86399980024858" x2="288.850998878479" y2="96.86399980024858" fill="rgb(0, 0, 0)" stroke="rgb(60, 60, 60)" stroke-width="1px" opacity="0.25"></line><line x1="0" y1="80.71999983354048" x2="288.850998878479" y2="80.71999983354048" fill="rgb(0, 0, 0)" stroke="rgb(60, 60, 60)" stroke-width="1px" opacity="0.25"></line><line x1="0" y1="64.57599986683239" x2="288.850998878479" y2="64.57599986683239" fill="rgb(0, 0, 0)" stroke="rgb(60, 60, 60)" stroke-width="1px" opacity="0.25"></line><line x1="0" y1="48.43199990012429" x2="288.850998878479" y2="48.43199990012429" fill="rgb(0, 0, 0)" stroke="rgb(60, 60, 60)" stroke-width="1px" opacity="0.25"></line><line x1="0" y1="32.28799993341618" x2="288.850998878479" y2="32.28799993341618" fill="rgb(0, 0, 0)" stroke="rgb(60, 60, 60)" stroke-width="1px" opacity="0.25"></line><line x1="0" y1="16.1439999667081" x2="288.850998878479" y2="16.1439999667081" fill="rgb(0, 0, 0)" stroke="rgb(60, 60, 60)" stroke-width="1px" opacity="0.25"></line><line x1="0" y1="0" x2="288.850998878479" y2="0" fill="rgb(0, 0, 0)" stroke="rgb(60, 60, 60)" stroke-width="1px" opacity="0.25"></line></g></g></g><g><g><line x1="0" y1="161.43999966708097" x2="288.850998878479" y2="161.43999966708097" fill="rgb(0, 0, 0)" stroke="rgb(153, 153, 153)" stroke-width="1.5px"></line></g></g><g><g><line x1="24.07091657320658" y1="0" x2="24.07091657320658" y2="177.58399963378906" fill="rgb(0, 0, 0)" stroke="rgb(153, 153, 153)" stroke-width="1.5px"></line></g></g><g><g><g><g><g><path style="fill: none;" stroke="rgb(0, 119, 187)" stroke-width="2px" d="M28.8850998878479,-13.667362310540927L30.088645716508232,25.775006200029377L31.29219154516856,53.20816787535711L32.49573737382889,73.89594009260102L33.69928320248922,87.001196096269L34.902829031149544,99.2841676467609L36.106374859809875,108.75194656965796L37.30992068847021,117.04392285752613L38.51346651713053,43.74147430538981L39.71701234579086,70.3096799813544L40.920558174451195,93.23562689175901L42.124104003111526,110.51664141441341L43.32764983177185,122.03162828729496L44.53119566043218,129.52034414932908L45.73474148909251,134.92229535064064L46.93828731775284,137.24782328666276L48.14183314641316,140.22314284281248L49.345378975073494,142.3968412453945L50.548924803733826,142.99131269791934L51.75247063239416,144.782962087397L52.95601646105448,146.1563160273754L54.15956228971481,146.05497996038935L55.363108118375145,146.96006666293567L56.56665394703547,146.81647499786357L57.7701997756958,147.23463272571075L58.97374560435613,146.1189387565564L60.177291433016464,147.15677582845L61.38083726167679,149.36075015624343L62.58438309033712,150.71225570051115L63.787928918997444,150.74596541868476L64.99147474765778,150.70018177482464L66.1950205763181,150.0673597132156L67.39856640497844,150.06039787039796L68.60211223363876,151.3170241785498L69.80565806229909,151.79296350469915L71.00920389095941,152.44162581578232L72.21274971961975,152.85869570233908L73.41629554828008,152.7151505100956L74.61984137694041,152.94806597865048L75.82338720560074,153.70650761187267L77.02693303426106,153.49786176972594L78.23047886292139,153.68949476785522L79.43402469158173,153.9427885020873L80.63757052024205,154.35348448225105L81.84111634890239,155.32029363070677L83.04466217756271,155.50168091261196L84.24820800622305,154.76240070751984L85.45175383488338,154.73220474433788L86.6552996635437,154.9330938066379L87.85884549220403,155.67633982477966L89.06239132086436,155.73320585227418L90.26593714952469,155.87397298267845L91.46948297818501,155.89035071469397L92.67302880684535,155.79800877667523L93.87657463550568,156.08845817925L95.080120464166,156.06802272674616L96.28366629282633,155.88329485014708L97.48721212148666,156.20452383048877L98.69075795014699,156.171709344216L99.89430377880733,155.88146466496522L101.09784960746765,155.48148445444747L102.30139543612799,156.27474732684448L103.50494126478831,156.26023276072672L104.70848709344864,156.25690615493596L105.91203292210896,156.61782814351574L107.1155787507693,156.46119014142525L108.31912457942963,157.10292805207828L109.52267040808995,157.0047934915974L110.72621623675029,156.8338168938276L111.92976206541061,157.24251218503304L113.13330789407094,157.07055387908122L114.33685372273126,157.08496124531004L115.5403995513916,157.26176876908673L116.74394538005193,157.18015730620866L117.94749120871226,156.87495308354482L119.15103703737259,156.89047189688372L120.35458286603293,156.61887063169104L121.55812869469325,156.63664952331777L122.76167452335358,157.67280162455356L123.9652203520139,157.7342998836154L125.16876618067424,157.64076981604637L126.37231200933456,157.9082709559715L127.57585783799489,157.45159709933182L128.77940366665524,157.48188615234204L129.98294949531555,157.43121556363846L131.1864953239759,157.31835652806333L132.3900411526362,157.7522787931005L133.59358698129654,157.87101027431655L134.79713280995688,158.00022600645065L136.0006786386172,157.89243868379768L137.20422446727753,157.50539872502645L138.40777029593787,157.36950631306595L139.61131612459818,157.59980113167597L140.81486195325851,157.77055258755803L142.01840778191882,157.67182569599706L143.22195361057916,157.56336120026054L144.4254994392395,157.64462180123707L145.62904526789984,158.11072541919927L146.83259109656015,158.1799176475006L148.0361369252205,150.82858819765744L149.23968275388083,151.50302213471656L150.44322858254117,154.33142177156586L151.64677441120148,156.51652608627572L152.85032023986182,157.7876558833103L154.05386606852213,158.6738421257049L155.25741189718246,159.2478251819325L156.46095772584277,159.5497481300298L157.6645035545031,159.76471096957513L158.86804938316345,159.51236273693587L160.0715952118238,159.45097558244564L161.2751410404841,159.26643909908816L162.47868686914444,159.0610872980504L163.68223269780478,159.03632954008768L164.8857785264651,158.35277571918311L166.08932435512543,158.25350779838635L167.29287018378577,158.61941495893575L168.4964160124461,158.4022593008377L169.69996184110641,158.24423340230325L170.90350766976675,158.4960480341718L172.10705349842706,158.24974095085952L173.3105993270874,158.4238733055805L174.5141451557477,158.2943785592101L175.71769098440805,157.99678909523504L176.9212368130684,157.85851238729063L178.12478264172873,158.19525925443102L179.32832847038904,158.43494514741602L180.53187429904938,158.72817841235715L181.73542012770972,158.19113410336436L182.93896595637003,158.36229520705186L184.14251178503036,158.76438623503935L185.3460576136907,158.8350495808598L186.54960344235104,158.52847539476684L187.75314927101135,157.675806464343L188.9566950996717,154.92361669884556L190.160240928332,156.14686749878516L191.36378675699234,157.70746002339698L192.56733258565265,158.3482030208891L193.770878414313,158.7198383662946L194.97442424297333,158.78576273512567L196.17797007163367,157.4035531791339L197.38151590029398,158.0476955342135L198.58506172895432,158.4612589638233L199.78860755761465,158.38325845142336L200.99215338627496,158.43057896616503L202.1956992149353,158.59000039609265L203.39924504359564,158.46680372041672L204.60279087225598,158.41137022883126L205.8063367009163,158.43474319981476L207.00988252957663,158.7664015236073L208.21342835823694,158.99113152537373L209.41697418689728,159.1001758764969L210.6205200155576,158.88534665625497L211.82406584421793,158.62825676186245L213.02761167287827,158.4819037499919L214.2311575015386,158.81380460690679L215.43470333019891,158.74098065984037L216.63824915885925,158.65593875464054L217.8417949875196,158.28267112402818L219.0453408161799,158.22382206623013L220.24888664484024,158.5745658337127L221.45243247350058,158.82772334683114L222.65597830216092,158.70149629826722L223.85952413082123,158.9485728966287L225.06306995948157,158.42917839313174L226.26661578814188,158.53987458484812L227.47016161680222,158.75695089481042L228.67370744546253,158.38263587960378L229.87725327412286,158.7337127584052L231.0807991027832,158.62846889878315L232.28434493144354,158.75075364496567L233.48789076010385,158.63017549835158L234.6914365887642,158.76487859596457L235.89498241742453,158.95578872826522L237.09852824608484,159.04041112606L238.30207407474518,158.9842056053644L239.50561990340552,158.44138192359753L240.70916573206586,158.61166806510087L241.91271156072617,158.7829100930104L243.1162573893865,158.86805009744566L244.31980321804681,158.7653788404244L245.52334904670715,158.68305345842933L246.72689487536746,158.71697103514487L247.9304407040278,158.94484517356156L249.13398653268814,159.073535918336L250.33753236134848,158.95544019103787L251.5410781900088,158.98245998073537L252.74462401866913,158.88725065557506L253.94816984732947,159.17134566128863L255.15171567598978,159.07518419625455L256.3552615046501,120.5597959608628L257.5588073333105,113.38665906943672L258.7623531619708,125.65706013598442L259.9658989906311,135.56929336240646L261.1694448192914,142.81975446212456L262.3729906479518,148.00849754834007L263.5765364766121,152.35753332315525" fill="none"></path></g></g></g></g><g opacity="0.2"><g><g><g><path style="fill: none;" stroke="rgb(0, 119, 187)" stroke-width="2px" d="M26.47800823052724,-3.4158074026239387L27.681554059187572,37.21714721329044L28.8850998878479,63.659555172677344L30.088645716508232,82.25644004643651L31.29219154516856,93.90579582075324L32.49573737382889,105.23681529811901L33.69928320248922,107.10619964484994L34.902829031149544,118.27132902856366L36.106374859809875,123.4548879229035L37.30992068847021,129.95698884943639L38.51346651713053,-70.60674555752088L39.71701234579086,111.79779405961348L40.920558174451195,129.05874236691372L42.124104003111526,137.52963575612245L43.32764983177185,140.03562957267093L44.53119566043218,141.23083792134142L45.73474148909251,143.37034562109199L46.93828731775284,140.88488406768474L48.14183314641316,144.87661098206047L49.345378975073494,145.7966229567868L50.548924803733826,143.9211094154274L51.75247063239416,147.58525312430191L52.95601646105448,148.3043673119669L54.15956228971481,145.89648063938114L55.363108118375145,148.37571138378024L56.56665394703547,146.59188326551057L57.7701997756958,147.88867366200628L58.97374560435613,144.37387999707425L60.177291433016464,148.78005886448327L61.38083726167679,152.80799129025894L62.58438309033712,152.8261487021783L63.787928918997444,150.79869087097111L64.99147474765778,150.62857146366812L66.1950205763181,149.07756113437756L67.39856640497844,150.0495088343996L68.60211223363876,153.28251658682677L69.80565806229909,152.53738141990635L71.00920389095941,153.4562001954774L72.21274971961975,153.51103577962334L73.41629554828008,152.4906311071976L74.61984137694041,153.31236965988535L75.82338720560074,154.89278811442043L77.02693303426106,153.1715182731519L78.23047886292139,153.9892284315303L79.43402469158173,154.338965881218L80.63757052024205,154.99585511783945L81.84111634890239,156.83248229872913L83.04466217756271,155.7853892253269L84.24820800622305,153.60609064316634L85.45175383488338,154.6849751609L86.6552996635437,155.24730490407936L87.85884549220403,156.83885282750933L89.06239132086436,155.82215015168848L90.26593714952469,156.09414721228478L91.46948297818501,155.91596716733363L92.67302880684535,155.65357651464598L93.87657463550568,156.54275083455914L95.080120464166,156.03605958308634L96.28366629282633,155.59436150469728L97.48721212148666,156.70695890230525L98.69075795014699,156.12038412209702L99.89430377880733,155.427492217932L101.09784960746765,154.85587438158637L102.30139543612799,157.51549181956796L103.50494126478831,156.23753049064513L104.70848709344864,156.25170300228885L105.91203292210896,157.18234715129438L107.1155787507693,156.21619224071964L108.31912457942963,158.10667196361248L109.52267040808995,156.85130097392224L110.72621623675029,156.56639195885427L111.92976206541061,157.88175353794412L113.13330789407094,156.8015934518232L114.33685372273126,157.10749584377052L115.5403995513916,157.53831387037843L116.74394538005193,157.05250860786094L117.94749120871226,156.39758237630136L119.15103703737259,156.91474491261894L120.35458286603293,156.19405839638966L121.55812869469325,156.66445753329802L122.76167452335358,159.29344978289672L123.9652203520139,157.8304894683019L125.16876618067424,157.49447919754098L126.37231200933456,158.32667017482873L127.57585783799489,156.73731234920308L128.77940366665524,157.52926133781958L129.98294949531555,157.35196156592264L131.1864953239759,157.14183342113805L132.3900411526362,158.4309777204663L133.59358698129654,158.0567184885263L134.79713280995688,158.202332664404L136.0006786386172,157.72384825605843L137.20422446727753,156.90002853310216L138.40777029593787,157.15695664307648L139.61131612459818,157.9600058479634L140.81486195325851,158.03762537752746L142.01840778191882,157.51740671176066L143.22195361057916,157.393711604365L144.4254994392395,157.77172171558496L145.62904526789984,158.83975928319143L146.83259109656015,158.28814138920262L148.0361369252205,139.33035495559506L149.23968275388083,152.55790598498854L150.44322858254117,158.7553288958686L151.64677441120148,159.93425334774497L152.85032023986182,159.77583325815925L154.05386606852213,160.05992829970674L155.25741189718246,160.14559355192952L156.46095772584277,160.02198658731015L157.6645035545031,160.10093489809478L158.86804938316345,159.11766421921809L160.0715952118238,159.35495977670448L161.2751410404841,158.97780511229823L162.47868686914444,158.73989601950424L163.68223269780478,158.99760586737673L164.8857785264651,157.28362743520418L166.08932435512543,158.09824258893505L167.29287018378577,159.19173128697457L168.4964160124461,158.06260557919714L169.69996184110641,157.99706468921084L170.90350766976675,158.88991194555595L172.10705349842706,157.86449141029416L173.3105993270874,158.69623416809281L174.5141451557477,158.0918354943743L175.71769098440805,157.53132865158182L176.9212368130684,157.64223343383907L178.12478264172873,158.72196589277883L179.32832847038904,158.8098384672131L180.53187429904938,159.1868253139317L181.73542012770972,157.35114172263206L182.93896595637003,158.63000872820405L184.14251178503036,159.39329784291724L185.3460576136907,158.9455743012456L186.54960344235104,158.04896192421126L187.75314927101135,156.34214480393646L188.9566950996717,150.61890962973416L190.160240928332,158.06015721151115L191.36378675699234,160.14838679266168L192.56733258565265,159.35039078619724L193.770878414313,159.30111416295443L194.97442424297333,158.88887520945124L196.17797007163367,155.2416356684801L197.38151590029398,159.0552002434405L198.58506172895432,159.108114584495L199.78860755761465,158.26125764997735L200.99215338627496,158.5045931046071L202.1956992149353,158.83935186341535L203.39924504359564,158.2741114841031L204.60279087225598,158.32466656250529L205.8063367009163,158.47130092366075L207.00988252957663,159.28514915825713L208.21342835823694,159.34263229736743L209.41697418689728,159.27073242568952L210.6205200155576,158.54933172203042L211.82406584421793,158.22614179883826L213.02761167287827,158.252992628861L214.2311575015386,159.3329315882352L215.43470333019891,158.62707653750576L216.63824915885925,158.52292449266133L217.8417949875196,157.6988422658909L219.0453408161799,158.13177610403312L220.24888664484024,159.12316505977526L221.45243247350058,159.2236876622215L222.65597830216092,158.50406424794926L223.85952413082123,159.33502603765564L225.06306995948157,157.6167921184313L226.26661578814188,158.71301478214818L227.47016161680222,159.09648050782835L228.67370744546253,157.797168804537L229.87725327412286,159.2828330047356L231.0807991027832,158.4638567080923L232.28434493144354,158.94201953002036L233.48789076010385,158.44157891005779L234.6914365887642,158.9755680563336L235.89498241742453,159.2543917557098L237.09852824608484,159.17276923543133L238.30207407474518,158.8962944063277L239.50561990340552,157.59235001109036L240.70916573206586,158.87801305565742L241.91271156072617,159.05075018794585L243.1162573893865,159.00121779669055L244.31980321804681,158.60479046405774L245.52334904670715,158.55428811736013L246.72689487536746,158.77002160385373L247.9304407040278,159.3012636977518L249.13398653268814,159.27482144221398L250.33753236134848,158.77072636116122L251.5410781900088,159.02472170308283L252.74462401866913,158.73833350596527L253.94816984732947,159.61569938817394L255.15171567598978,158.9247778022269L256.3552615046501,60.31777846448081L257.5588073333105,102.16713726489846L258.7623531619708,144.84922590673855L259.9658989906311,151.07304276783577L261.1694448192914,154.16021925911957L262.3729906479518,156.1242239139592L263.5765364766121,159.15987132991748" fill="none"></path></g></g></g></g></g></g><g transform="translate(41, 177)" clip-path="url(#clip_1)"><clipPath id="clip_1"><rect width="288" height="22"></rect></clipPath><g><g><line x1="0" y1="0" x2="0" y2="5" style="visibility: inherit;" fill="rgb(0, 0, 0)" stroke="rgb(204, 204, 204)" stroke-width="1px"></line><line x1="24.07091657320658" y1="0" x2="24.07091657320658" y2="5" style="visibility: inherit;" fill="rgb(0, 0, 0)" stroke="rgb(204, 204, 204)" stroke-width="1px"></line><line x1="48.14183314641316" y1="0" x2="48.14183314641316" y2="5" style="visibility: inherit;" fill="rgb(0, 0, 0)" stroke="rgb(204, 204, 204)" stroke-width="1px"></line><line x1="72.21274971961975" y1="0" x2="72.21274971961975" y2="5" style="visibility: inherit;" fill="rgb(0, 0, 0)" stroke="rgb(204, 204, 204)" stroke-width="1px"></line><line x1="96.28366629282633" y1="0" x2="96.28366629282633" y2="5" style="visibility: inherit;" fill="rgb(0, 0, 0)" stroke="rgb(204, 204, 204)" stroke-width="1px"></line><line x1="120.35458286603293" y1="0" x2="120.35458286603293" y2="5" style="visibility: inherit;" fill="rgb(0, 0, 0)" stroke="rgb(204, 204, 204)" stroke-width="1px"></line><line x1="144.4254994392395" y1="0" x2="144.4254994392395" y2="5" style="visibility: inherit;" fill="rgb(0, 0, 0)" stroke="rgb(204, 204, 204)" stroke-width="1px"></line><line x1="168.4964160124461" y1="0" x2="168.4964160124461" y2="5" style="visibility: inherit;" fill="rgb(0, 0, 0)" stroke="rgb(204, 204, 204)" stroke-width="1px"></line><line x1="192.56733258565265" y1="0" x2="192.56733258565265" y2="5" style="visibility: inherit;" fill="rgb(0, 0, 0)" stroke="rgb(204, 204, 204)" stroke-width="1px"></line><line x1="216.63824915885925" y1="0" x2="216.63824915885925" y2="5" style="visibility: inherit;" fill="rgb(0, 0, 0)" stroke="rgb(204, 204, 204)" stroke-width="1px"></line><line x1="240.70916573206586" y1="0" x2="240.70916573206586" y2="5" style="visibility: inherit;" fill="rgb(0, 0, 0)" stroke="rgb(204, 204, 204)" stroke-width="1px"></line><line x1="264.7800823052724" y1="0" x2="264.7800823052724" y2="5" style="visibility: inherit;" fill="rgb(0, 0, 0)" stroke="rgb(204, 204, 204)" stroke-width="1px"></line><line x1="288.850998878479" y1="0" x2="288.850998878479" y2="5" style="visibility: inherit;" fill="rgb(0, 0, 0)" stroke="rgb(204, 204, 204)" stroke-width="1px"></line></g><g transform="translate(0, 8)"><text style="text-anchor: middle; visibility: hidden; font-family: Roboto, sans-serif; font-size: 12px; font-weight: 200;" x="0" y="0" dx="0em" dy="0.95em" fill="rgb(50, 49, 63)" stroke="none" stroke-width="1px">-20</text><text style="text-anchor: middle; visibility: inherit; font-family: Roboto, sans-serif; font-size: 12px; font-weight: 200;" x="24.07091657320658" y="0" dx="0em" dy="0.95em" fill="rgb(50, 49, 63)" stroke="none" stroke-width="1px">0</text><text style="text-anchor: middle; visibility: hidden; font-family: Roboto, sans-serif; font-size: 12px; font-weight: 200;" x="48.14183314641316" y="0" dx="0em" dy="0.95em" fill="rgb(50, 49, 63)" stroke="none" stroke-width="1px">20</text><text style="text-anchor: middle; visibility: inherit; font-family: Roboto, sans-serif; font-size: 12px; font-weight: 200;" x="72.21274971961975" y="0" dx="0em" dy="0.95em" fill="rgb(50, 49, 63)" stroke="none" stroke-width="1px">40</text><text style="text-anchor: middle; visibility: hidden; font-family: Roboto, sans-serif; font-size: 12px; font-weight: 200;" x="96.28366629282633" y="0" dx="0em" dy="0.95em" fill="rgb(50, 49, 63)" stroke="none" stroke-width="1px">60</text><text style="text-anchor: middle; visibility: inherit; font-family: Roboto, sans-serif; font-size: 12px; font-weight: 200;" x="120.35458286603293" y="0" dx="0em" dy="0.95em" fill="rgb(50, 49, 63)" stroke="none" stroke-width="1px">80</text><text style="text-anchor: middle; visibility: hidden; font-family: Roboto, sans-serif; font-size: 12px; font-weight: 200;" x="144.4254994392395" y="0" dx="0em" dy="0.95em" fill="rgb(50, 49, 63)" stroke="none" stroke-width="1px">100</text><text style="text-anchor: middle; visibility: inherit; font-family: Roboto, sans-serif; font-size: 12px; font-weight: 200;" x="168.4964160124461" y="0" dx="0em" dy="0.95em" fill="rgb(50, 49, 63)" stroke="none" stroke-width="1px">120</text><text style="text-anchor: middle; visibility: hidden; font-family: Roboto, sans-serif; font-size: 12px; font-weight: 200;" x="192.56733258565265" y="0" dx="0em" dy="0.95em" fill="rgb(50, 49, 63)" stroke="none" stroke-width="1px">140</text><text style="text-anchor: middle; visibility: inherit; font-family: Roboto, sans-serif; font-size: 12px; font-weight: 200;" x="216.63824915885925" y="0" dx="0em" dy="0.95em" fill="rgb(50, 49, 63)" stroke="none" stroke-width="1px">160</text><text style="text-anchor: middle; visibility: hidden; font-family: Roboto, sans-serif; font-size: 12px; font-weight: 200;" x="240.70916573206586" y="0" dx="0em" dy="0.95em" fill="rgb(50, 49, 63)" stroke="none" stroke-width="1px">180</text><text style="text-anchor: middle; visibility: inherit; font-family: Roboto, sans-serif; font-size: 12px; font-weight: 200;" x="264.7800823052724" y="0" dx="0em" dy="0.95em" fill="rgb(50, 49, 63)" stroke="none" stroke-width="1px">200</text><text style="text-anchor: middle; visibility: hidden; font-family: Roboto, sans-serif; font-size: 12px; font-weight: 200;" x="288.850998878479" y="0" dx="0em" dy="0.95em" fill="rgb(50, 49, 63)" stroke="none" stroke-width="1px">220</text></g><line x1="0" y1="0" x2="288.850998878479" y2="0" fill="rgb(0, 0, 0)" stroke="rgb(204, 204, 204)" stroke-width="1px"></line></g></g></g></g></svg>