<svg viewBox="0 0 330 200" xmlns="http://www.w3.org/2000/svg"><g><g><g><g><g><line x1="51.53200149536133" y1="177.58399963378906" x2="46.53200149536133" y2="177.58399963378906" style="visibility: inherit;" fill="rgb(0, 0, 0)" stroke="rgb(204, 204, 204)" stroke-width="1px"></line><line x1="51.53200149536133" y1="162.78533299763996" x2="46.53200149536133" y2="162.78533299763996" style="visibility: inherit;" fill="rgb(0, 0, 0)" stroke="rgb(204, 204, 204)" stroke-width="1px"></line><line x1="51.53200149536133" y1="147.9866663614909" x2="46.53200149536133" y2="147.9866663614909" style="visibility: inherit;" fill="rgb(0, 0, 0)" stroke="rgb(204, 204, 204)" stroke-width="1px"></line><line x1="51.53200149536133" y1="133.1879997253418" x2="46.53200149536133" y2="133.1879997253418" style="visibility: inherit;" fill="rgb(0, 0, 0)" stroke="rgb(204, 204, 204)" stroke-width="1px"></line><line x1="51.53200149536133" y1="118.38933308919272" x2="46.53200149536133" y2="118.38933308919272" style="visibility: inherit;" fill="rgb(0, 0, 0)" stroke="rgb(204, 204, 204)" stroke-width="1px"></line><line x1="51.53200149536133" y1="103.59066645304362" x2="46.53200149536133" y2="103.59066645304362" style="visibility: inherit;" fill="rgb(0, 0, 0)" stroke="rgb(204, 204, 204)" stroke-width="1px"></line><line x1="51.53200149536133" y1="88.79199981689455" x2="46.53200149536133" y2="88.79199981689455" style="visibility: inherit;" fill="rgb(0, 0, 0)" stroke="rgb(204, 204, 204)" stroke-width="1px"></line><line x1="51.53200149536133" y1="73.99333318074545" x2="46.53200149536133" y2="73.99333318074545" style="visibility: inherit;" fill="rgb(0, 0, 0)" stroke="rgb(204, 204, 204)" stroke-width="1px"></line><line x1="51.53200149536133" y1="59.19466654459638" x2="46.53200149536133" y2="59.19466654459638" style="visibility: inherit;" fill="rgb(0, 0, 0)" stroke="rgb(204, 204, 204)" stroke-width="1px"></line><line x1="51.53200149536133" y1="44.39599990844729" x2="46.53200149536133" y2="44.39599990844729" style="visibility: inherit;" fill="rgb(0, 0, 0)" stroke="rgb(204, 204, 204)" stroke-width="1px"></line><line x1="51.53200149536133" y1="29.59733327229819" x2="46.53200149536133" y2="29.59733327229819" style="visibility: inherit;" fill="rgb(0, 0, 0)" stroke="rgb(204, 204, 204)" stroke-width="1px"></line><line x1="51.53200149536133" y1="14.798666636149095" x2="46.53200149536133" y2="14.798666636149095" style="visibility: inherit;" fill="rgb(0, 0, 0)" stroke="rgb(204, 204, 204)" stroke-width="1px"></line><line x1="51.53200149536133" y1="0" x2="46.53200149536133" y2="0" style="visibility: inherit;" fill="rgb(0, 0, 0)" stroke="rgb(204, 204, 204)" stroke-width="1px"></line></g><g transform="translate(41.53200149536133, 0)"><text style="text-anchor: end; visibility: hidden; font-family: Roboto, sans-serif; font-size: 12px; font-weight: 200;" x="0" y="177.58399963378906" dx="0em" dy="0.3em" fill="rgb(50, 49, 63)" stroke="none" stroke-width="1px">-0.1</text><text style="text-anchor: end; visibility: inherit; font-family: Roboto, sans-serif; font-size: 12px; font-weight: 200;" x="0" y="162.78533299763996" dx="0em" dy="0.3em" fill="rgb(50, 49, 63)" stroke="none" stroke-width="1px">0</text><text style="text-anchor: end; visibility: hidden; font-family: Roboto, sans-serif; font-size: 12px; font-weight: 200;" x="0" y="147.9866663614909" dx="0em" dy="0.3em" fill="rgb(50, 49, 63)" stroke="none" stroke-width="1px">0.1</text><text style="text-anchor: end; visibility: inherit; font-family: Roboto, sans-serif; font-size: 12px; font-weight: 200;" x="0" y="133.1879997253418" dx="0em" dy="0.3em" fill="rgb(50, 49, 63)" stroke="none" stroke-width="1px">0.2</text><text style="text-anchor: end; visibility: hidden; font-family: Roboto, sans-serif; font-size: 12px; font-weight: 200;" x="0" y="118.38933308919272" dx="0em" dy="0.3em" fill="rgb(50, 49, 63)" stroke="none" stroke-width="1px">0.3</text><text style="text-anchor: end; visibility: inherit; font-family: Roboto, sans-serif; font-size: 12px; font-weight: 200;" x="0" y="103.59066645304362" dx="0em" dy="0.3em" fill="rgb(50, 49, 63)" stroke="none" stroke-width="1px">0.4</text><text style="text-anchor: end; visibility: hidden; font-family: Roboto, sans-serif; font-size: 12px; font-weight: 200;" x="0" y="88.79199981689455" dx="0em" dy="0.3em" fill="rgb(50, 49, 63)" stroke="none" stroke-width="1px">0.5</text><text style="text-anchor: end; visibility: inherit; font-family: Roboto, sans-serif; font-size: 12px; font-weight: 200;" x="0" y="73.99333318074545" dx="0em" dy="0.3em" fill="rgb(50, 49, 63)" stroke="none" stroke-width="1px">0.6</text><text style="text-anchor: end; visibility: hidden; font-family: Roboto, sans-serif; font-size: 12px; font-weight: 200;" x="0" y="59.19466654459638" dx="0em" dy="0.3em" fill="rgb(50, 49, 63)" stroke="none" stroke-width="1px">0.7</text><text style="text-anchor: end; visibility: inherit; font-family: Roboto, sans-serif; font-size: 12px; font-weight: 200;" x="0" y="44.39599990844729" dx="0em" dy="0.3em" fill="rgb(50, 49, 63)" stroke="none" stroke-width="1px">0.8</text><text style="text-anchor: end; visibility: hidden; font-family: Roboto, sans-serif; font-size: 12px; font-weight: 200;" x="0" y="29.59733327229819" dx="0em" dy="0.3em" fill="rgb(50, 49, 63)" stroke="none" stroke-width="1px">0.9</text><text style="text-anchor: end; visibility: inherit; font-family: Roboto, sans-serif; font-size: 12px; font-weight: 200;" x="0" y="14.798666636149095" dx="0em" dy="0.3em" fill="rgb(50, 49, 63)" stroke="none" stroke-width="1px">1</text><text style="text-anchor: end; visibility: hidden; font-family: Roboto, sans-serif; font-size: 12px; font-weight: 200;" x="0" y="0" dx="0em" dy="0.3em" fill="rgb(50, 49, 63)" stroke="none" stroke-width="1px">1.1</text></g><line x1="51.53200149536133" y1="0" x2="51.53200149536133" y2="177.58399963378906" fill="rgb(0, 0, 0)" stroke="rgb(204, 204, 204)" stroke-width="1px"></line></g></g><g transform="translate(51, 0)" clip-path="url(#clip_0)"><clipPath id="clip_0"><rect width="278" height="177"></rect></clipPath><g><g><g><line x1="0" y1="0" x2="0" y2="177.58399963378906" fill="rgb(0, 0, 0)" stroke="rgb(60, 60, 60)" stroke-width="1px" opacity="0.25"></line><line x1="23.205666542053223" y1="0" x2="23.205666542053223" y2="177.58399963378906" fill="rgb(0, 0, 0)" stroke="rgb(60, 60, 60)" stroke-width="1px" opacity="0.25"></line><line x1="46.411333084106445" y1="0" x2="46.411333084106445" y2="177.58399963378906" fill="rgb(0, 0, 0)" stroke="rgb(60, 60, 60)" stroke-width="1px" opacity="0.25"></line><line x1="69.61699962615967" y1="0" x2="69.61699962615967" y2="177.58399963378906" fill="rgb(0, 0, 0)" stroke="rgb(60, 60, 60)" stroke-width="1px" opacity="0.25"></line><line x1="92.82266616821289" y1="0" x2="92.82266616821289" y2="177.58399963378906" fill="rgb(0, 0, 0)" stroke="rgb(60, 60, 60)" stroke-width="1px" opacity="0.25"></line><line x1="116.02833271026611" y1="0" x2="116.02833271026611" y2="177.58399963378906" fill="rgb(0, 0, 0)" stroke="rgb(60, 60, 60)" stroke-width="1px" opacity="0.25"></line><line x1="139.23399925231934" y1="0" x2="139.23399925231934" y2="177.58399963378906" fill="rgb(0, 0, 0)" stroke="rgb(60, 60, 60)" stroke-width="1px" opacity="0.25"></line><line x1="162.43966579437256" y1="0" x2="162.43966579437256" y2="177.58399963378906" fill="rgb(0, 0, 0)" stroke="rgb(60, 60, 60)" stroke-width="1px" opacity="0.25"></line><line x1="185.64533233642578" y1="0" x2="185.64533233642578" y2="177.58399963378906" fill="rgb(0, 0, 0)" stroke="rgb(60, 60, 60)" stroke-width="1px" opacity="0.25"></line><line x1="208.850998878479" y1="0" x2="208.850998878479" y2="177.58399963378906" fill="rgb(0, 0, 0)" stroke="rgb(60, 60, 60)" stroke-width="1px" opacity="0.25"></line><line x1="232.05666542053223" y1="0" x2="232.05666542053223" y2="177.58399963378906" fill="rgb(0, 0, 0)" stroke="rgb(60, 60, 60)" stroke-width="1px" opacity="0.25"></line><line x1="255.26233196258545" y1="0" x2="255.26233196258545" y2="177.58399963378906" fill="rgb(0, 0, 0)" stroke="rgb(60, 60, 60)" stroke-width="1px" opacity="0.25"></line><line x1="278.4679985046387" y1="0" x2="278.4679985046387" y2="177.58399963378906" fill="rgb(0, 0, 0)" stroke="rgb(60, 60, 60)" stroke-width="1px" opacity="0.25"></line></g><g><line x1="0" y1="177.58399963378906" x2="278.4679985046387" y2="177.58399963378906" fill="rgb(0, 0, 0)" stroke="rgb(60, 60, 60)" stroke-width="1px" opacity="0.25"></line><line x1="0" y1="162.78533299763996" x2="278.4679985046387" y2="162.78533299763996" fill="rgb(0, 0, 0)" stroke="rgb(60, 60, 60)" stroke-width="1px" opacity="0.25"></line><line x1="0" y1="147.9866663614909" x2="278.4679985046387" y2="147.9866663614909" fill="rgb(0, 0, 0)" stroke="rgb(60, 60, 60)" stroke-width="1px" opacity="0.25"></line><line x1="0" y1="133.1879997253418" x2="278.4679985046387" y2="133.1879997253418" fill="rgb(0, 0, 0)" stroke="rgb(60, 60, 60)" stroke-width="1px" opacity="0.25"></line><line x1="0" y1="118.38933308919272" x2="278.4679985046387" y2="118.38933308919272" fill="rgb(0, 0, 0)" stroke="rgb(60, 60, 60)" stroke-width="1px" opacity="0.25"></line><line x1="0" y1="103.59066645304362" x2="278.4679985046387" y2="103.59066645304362" fill="rgb(0, 0, 0)" stroke="rgb(60, 60, 60)" stroke-width="1px" opacity="0.25"></line><line x1="0" y1="88.79199981689455" x2="278.4679985046387" y2="88.79199981689455" fill="rgb(0, 0, 0)" stroke="rgb(60, 60, 60)" stroke-width="1px" opacity="0.25"></line><line x1="0" y1="73.99333318074545" x2="278.4679985046387" y2="73.99333318074545" fill="rgb(0, 0, 0)" stroke="rgb(60, 60, 60)" stroke-width="1px" opacity="0.25"></line><line x1="0" y1="59.19466654459638" x2="278.4679985046387" y2="59.19466654459638" fill="rgb(0, 0, 0)" stroke="rgb(60, 60, 60)" stroke-width="1px" opacity="0.25"></line><line x1="0" y1="44.39599990844729" x2="278.4679985046387" y2="44.39599990844729" fill="rgb(0, 0, 0)" stroke="rgb(60, 60, 60)" stroke-width="1px" opacity="0.25"></line><line x1="0" y1="29.59733327229819" x2="278.4679985046387" y2="29.59733327229819" fill="rgb(0, 0, 0)" stroke="rgb(60, 60, 60)" stroke-width="1px" opacity="0.25"></line><line x1="0" y1="14.798666636149095" x2="278.4679985046387" y2="14.798666636149095" fill="rgb(0, 0, 0)" stroke="rgb(60, 60, 60)" stroke-width="1px" opacity="0.25"></line><line x1="0" y1="0" x2="278.4679985046387" y2="0" fill="rgb(0, 0, 0)" stroke="rgb(60, 60, 60)" stroke-width="1px" opacity="0.25"></line></g></g></g><g><g><line x1="0" y1="162.78533299763996" x2="278.4679985046387" y2="162.78533299763996" fill="rgb(0, 0, 0)" stroke="rgb(153, 153, 153)" stroke-width="1.5px"></line></g></g><g><g><line x1="23.205666542053223" y1="0" x2="23.205666542053223" y2="177.58399963378906" fill="rgb(0, 0, 0)" stroke="rgb(153, 153, 153)" stroke-width="1.5px"></line></g></g><g><g><g><g><g><path style="fill: none;" stroke="rgb(0, 119, 187)" stroke-width="2px" d="M23.205666542053223,162.78533299763996L24.365949869155884,162.78533299763996L25.52623319625854,162.13173703860556L26.68651652336121,160.8835423916008L27.846799850463867,158.98845480815888L29.00708317756653,156.49194389520144L30.16736650466919,152.5826967947399L31.32764983177185,146.99517004264138L32.48793315887451,140.0857011015613L33.64821648597717,132.84048911532835L34.808499813079834,126.27875912936125L35.9687831401825,120.76798340629979L37.129066467285156,119.44087482276841L38.28934979438782,116.8224157730164L39.44963312149048,113.66125808788541L40.60991644859314,107.2875384776207L41.7701997756958,103.1360571081062L42.93048310279846,99.13042200667172L44.09076642990112,95.99717691816859L45.251049757003784,93.7380307678212L46.411333084106445,91.76628238801753L47.571616411209106,89.06153745214476L48.73189973831177,87.47241211544632L49.89218306541443,85.42423887246396L51.05246639251708,83.90102554092405L52.21274971961975,81.74850006287988L53.37303304672242,79.95837402815548L54.53331637382507,78.81703293622915L55.693599700927734,77.63524955127653L56.853883028030396,76.88709000866163L58.01416635513306,75.21223084868102L59.17444968223572,73.87769323974555L60.33473300933838,73.00010016612137L61.49501633644104,71.93000972197743L62.6552996635437,70.94622419343102L63.81558299064636,70.03510195172204L64.97586631774902,68.72748862016331L66.13614964485168,67.84244587985512L67.29643297195435,67.20997168689655L68.456716299057,66.51858747844254L69.61699962615967,65.48336941106511L70.77728295326233,64.57289515318826L71.937566280365,63.1731344878904L73.09784960746765,62.17701069742494L74.25813293457031,61.99583541853935L75.41841626167297,61.11934893409093L76.57869958877563,60.96195382914617L77.7389829158783,59.68975670986446L78.89926624298096,58.76016132473991L80.05954957008362,57.85213438734873L81.21983289718628,56.996247676865345L82.38011622428894,56.39352433447493L83.5403995513916,56.06583235447437L84.70068287849425,55.0372459046216L85.86096620559692,54.207180154801364L87.02124953269958,53.648853034580476L88.18153285980225,52.99348920431146L89.34181618690492,52.8012415681706L90.50209951400757,52.84737164323983L91.66238284111023,51.94332344877304L92.82266616821289,51.25793227341313L93.98294949531555,51.001098501144476L95.14323282241821,49.8593241087445L96.30351614952087,49.756714508902476L97.46379947662354,49.77110549780306L98.6240828037262,49.39260694597362L99.78436613082886,49.43537867155822L100.94464945793152,48.66675950074002L102.10493278503417,48.508236548930114L103.26521611213684,48.40726230962759L104.4254994392395,48.46147731713736L105.58578276634216,47.51340638813378L106.74606609344484,47.22681893993656L107.90634942054749,46.58046139247282L109.06663274765015,45.66750163287689L110.22691607475281,45.65309189381474L111.38719940185547,45.44413870444653L112.54748272895813,45.340832635633845L113.70776605606079,44.65938938881724L114.86804938316345,44.42668325837749L116.02833271026611,43.59158677334574L117.18861603736877,43.70483014677643L118.34889936447144,43.572987481633504L119.50918269157408,43.49711731262276L120.66946601867676,42.76982270431893L121.82974934577942,42.429051663156315L122.99003267288208,42.386491088461064L124.15031599998476,41.44235722312053L125.3105993270874,41.07270889693123L126.47088265419006,41.116920237951916L127.63116598129272,40.85345795001759L128.79144930839539,40.67476838260246L129.95173263549805,40.76140171276548L131.1120159626007,40.45279885066022L132.27229928970337,40.54695318780104L133.43258261680603,39.535531583875596L134.5928659439087,38.99781168246887L135.75314927101135,38.704482082707685L136.913432598114,38.91525052720529L138.07371592521667,38.2084666240289L139.23399925231934,38.1962273667968L140.394282579422,38.40281383616339L141.55456590652466,38.279091252160974L142.71484923362732,38.463889691276634L143.87513256073,37.89174723776518L145.03541588783264,37.63690508702181L146.1956992149353,37.72391205263978L147.35598254203796,37.439786748400365L148.51626586914062,36.84236534220661L149.6765491962433,36.922473810261444L150.83683252334595,36.39223663761009L151.99711585044858,36.88825838148888L153.15739917755127,36.62261727604395L154.31768250465393,36.298698468078946L155.4779658317566,36.045904801879516L156.63824915885925,35.809482915167756L157.7985324859619,35.753225784907144L158.95881581306458,35.597714193273546L160.11909914016724,35.580392213315704L161.27938246726993,35.41962738480996L162.43966579437256,35.33791315759034L163.59994912147522,35.117569128028165L164.76023244857788,34.72566740468424L165.92051577568054,34.22011215932655L167.0807991027832,34.10495966974643L168.24108242988586,34.27058327993531L169.4013657569885,34.06652208958059L170.5616490840912,33.733898853635246L171.72193241119385,33.84699376963352L172.8822157382965,33.111843083864485L174.04249906539917,33.49845119072083L175.20278239250183,33.71031546035554L176.3630657196045,33.606741154061446L177.52334904670715,33.56318353390023L178.68363237380984,33.25230288898576L179.84391570091248,33.06854772781567L181.00419902801514,32.866315976123914L182.1644823551178,32.528210166637166L183.32476568222046,32.43379180502971L184.48504900932312,32.99939478903526L185.64533233642578,32.99908934571827L186.8056156635284,32.46499660836358L187.9658989906311,31.915418181172893L189.12618231773376,32.511018239420615L190.28646564483643,31.91668551491061L191.4467489719391,31.426988684217967L192.60703229904175,31.282706024667405L193.7673156261444,31.882308697343213L194.92759895324707,31.65757239292603L196.08788228034976,31.236051041622538L197.2481656074524,31.262546020448255L198.40844893455505,31.330206360666832L199.56873226165771,31.135642897949964L200.72901558876038,31.255112385458244L201.88929891586304,31.61966224460069L203.0495822429657,31.166682299398047L204.20986557006833,30.71440884693601L205.37014889717102,30.662764701839762L206.53043222427368,30.845468315647018L207.69071555137634,30.49149604633453L208.850998878479,30.787618561193195L210.01128220558167,30.48955683110684L211.17156553268433,30.080697297623832L212.331848859787,30.04352169856475L213.49213218688968,30.176231192287123L214.6524155139923,30.0446330533289L215.81269884109497,30.012861347514708L216.97298216819763,29.390180682550433L218.1332654953003,29.75385164536579L219.29354882240295,29.363892160710495L220.45383214950562,29.591348073669042L221.61411547660825,29.145906412238194L222.77439880371094,29.01190091211159L223.9346821308136,28.907551195548077L225.09496545791626,28.82841138752769L226.25524878501892,29.140190787293605L227.41553211212158,29.040039032107938L228.57581543922424,28.53932262513835L229.7360987663269,28.390068868660066L230.8963820934296,28.738982663063258L232.05666542053223,28.665772398672036L233.2169487476349,28.835903281717773L234.37723207473755,28.755058286747982L235.5375154018402,28.83097598070978L236.69779872894287,28.672341674653808L237.85808205604553,28.829140054670432L239.01836538314816,28.08592012244976L240.17864871025085,28.21628635522472L241.33893203735352,28.603403224265204L242.49921536445618,28.32500463539818L243.65949869155884,28.291133243606044L244.8197820186615,28.07546029188598L245.98006534576416,27.9187017887148L247.14034867286682,27.525699298779582L248.3006319999695,27.555164259921778L249.46091532707214,28.23448692280877L250.6211986541748,28.108947270132298L251.78148198127747,28.213064593853616L252.94176530838013,28.272200766253352" fill="none"></path></g></g></g></g><g opacity="0.2"><g><g><g><path style="fill: none;" stroke="rgb(0, 119, 187)" stroke-width="2px" d="M23.205666542053223,162.78533299763996L24.365949869155884,162.78533299763996L25.52623319625854,161.50428491793252L26.68651652336121,159.41566548672316L27.846799850463867,156.51422845921712L29.00708317756653,153.03837055865264L30.16736650466919,146.99241089312628L31.32764983177185,138.84850239782492L32.48793315887451,129.89557650871538L33.64821648597717,122.08219370175811L34.808499813079834,116.49567855843998L35.9687831401825,112.53180921983662L37.129066467285156,117.45454518725523L38.28934979438782,112.89985703225474L39.44963312149048,108.92323738238247L40.60991644859314,97.7314543031086L41.7701997756958,96.91059182161781L42.93048310279846,93.1229863848383L44.09076642990112,91.29778660376702L45.251049757003784,90.34951803720675L46.411333084106445,88.80876795367917L47.571616411209106,85.00450904911987L48.73189973831177,85.08875548490627L49.89218306541443,82.3520032705551L51.05246639251708,81.61621636996264L52.21274971961975,78.51972102535156L53.37303304672242,77.27318955651073L54.53331637382507,77.10502305056708L55.693599700927734,75.8625755624371L56.853883028030396,75.7648511082357L58.01416635513306,72.69994266411159L59.17444968223572,71.87588709187067L60.33473300933838,71.68371066045212L61.49501633644104,70.32487413240992L62.6552996635437,69.47054594289133L63.81558299064636,68.66841861265284L64.97586631774902,66.76606864305617L66.13614964485168,66.51488177760866L67.29643297195435,66.26126040098144L68.456716299057,65.48151116807203L69.61699962615967,63.9305423120747L70.77728295326233,63.207183767468315L71.937566280365,61.07349349095407L73.09784960746765,60.68282501215817L74.25813293457031,61.72407250025801L75.41841626167297,59.8046192075549L76.57869958877563,60.72586117174374L77.7389829158783,57.78146103101337L78.89926624298096,57.36576824708438L80.05954957008362,56.490093981280275L81.21983289718628,55.712417611150634L82.38011622428894,55.489439320893645L83.5403995513916,55.574294384474975L84.70068287849425,53.49436622984515L85.86096620559692,52.962081530072304L87.02124953269958,52.811362354249646L88.18153285980225,52.01044345890828L89.34181618690492,52.51287011395943L90.50209951400757,52.916566755843654L91.66238284111023,50.58725115707302L92.82266616821289,50.22984551037327L93.98294949531555,50.61584784274148L95.14323282241821,48.14666252014454L96.30351614952087,49.6028001091395L97.46379947662354,49.792691981153915L98.6240828037262,48.82485911822946L99.78436613082886,49.49953625993508L100.94464945793152,47.51383074451271L102.10493278503417,48.27045212121525L103.26521611213684,48.25580095067382L104.4254994392395,48.54279982840203L105.58578276634216,46.091299994628436L106.74606609344484,46.79693776764075L107.90634942054749,45.61092507127723L109.06663274765015,44.29806199348304L110.22691607475281,45.63147728522156L111.38719940185547,45.13070892039425L112.54748272895813,45.18587353241478L113.70776605606079,43.6372245185923L114.86804938316345,44.07762406271788L116.02833271026611,42.3389420457981L117.18861603736877,43.874695206922475L118.34889936447144,43.37522348391912L119.50918269157408,43.38331205910665L120.66946601867676,41.6788807918632L121.82974934577942,41.91789510141236L122.99003267288208,42.3226502264182L124.15031599998476,40.026156425109725L125.3105993270874,40.51823640764726L126.47088265419006,41.18323724948295L127.63116598129272,40.458264518116145L128.79144930839539,40.40673403147975L129.95173263549805,40.89135170801003L131.1120159626007,39.98989455750236L132.27229928970337,40.68818469351226L133.43258261680603,38.018399177987426L134.5928659439087,38.19123183035878L135.75314927101135,38.26448768306593L136.913432598114,39.23140319395167L138.07371592521667,37.14829076926437L139.23399925231934,38.177868480948625L140.394282579422,38.7126935402133L141.55456590652466,38.09350737615738L142.71484923362732,38.74108734995013L143.87513256073,37.033533557497954L145.03541588783264,37.25464186090678L146.1956992149353,37.85442250106677L147.35598254203796,37.013598792041215L148.51626586914062,35.94623323291598L149.6765491962433,37.042636512343684L150.83683252334595,35.59688087863305L151.99711585044858,37.63229099730706L153.15739917755127,36.2241556178765L154.31768250465393,35.812820256131424L155.4779658317566,35.66671430258038L156.63824915885925,35.454850085100155L157.7985324859619,35.66884008951626L158.95881581306458,35.36444680582314L160.11909914016724,35.55440924337899L161.27938246726993,35.178480142051306L162.43966579437256,35.215341816760905L163.59994912147522,34.78705308368492L164.76023244857788,34.13781481966834L165.92051577568054,33.46177929129001L167.0807991027832,33.93223093537626L168.24108242988586,34.51901869521864L169.4013657569885,33.76043030404846L170.5616490840912,33.234963999717245L171.72193241119385,34.0166361436309L172.8822157382965,32.00911705521096L174.04249906539917,34.07836335100534L175.20278239250183,34.02811186480755L176.3630657196045,33.45137969462032L177.52334904670715,33.49784710365841L178.68363237380984,32.785981921614045L179.84391570091248,32.7929149860605L181.00419902801514,32.56296834858633L182.1644823551178,32.02105145240696L183.32476568222046,32.29216426261855L184.48504900932312,33.847799265043584L185.64533233642578,32.998631180742784L186.8056156635284,31.66385750233155L187.9658989906311,31.09105054038691L189.12618231773376,33.40441832679216L190.28646564483643,31.025186428145567L191.4467489719391,30.69244343817902L192.60703229904175,31.06628203534155L193.7673156261444,32.781712706356934L194.92759895324707,31.32046793630027L196.08788228034976,30.60376901466727L197.2481656074524,31.302288488686848L198.40844893455505,31.431696870994706L199.56873226165771,30.843797703874653L200.72901558876038,31.434316616720658L201.88929891586304,32.16648703331432L203.0495822429657,30.48721238159414L204.20986557006833,30.035998668242904L205.37014889717102,30.585298484195413L206.53043222427368,31.119523736357856L207.69071555137634,29.960537642365757L208.850998878479,31.231802333481205L210.01128220558167,30.042464235977327L211.17156553268433,29.467407997399278L212.331848859787,29.987758299976143L213.49213218688968,30.375295432870665L214.6524155139923,29.84723584489154L215.81269884109497,29.96520378879347L216.97298216819763,28.456159685104012L218.1332654953003,30.2993580895888L219.29354882240295,28.778952933727556L220.45383214950562,29.932531943106845L221.61411547660825,28.477743920091914L222.77439880371094,28.81089266192173L223.9346821308136,28.75102662070276L225.09496545791626,28.709701675497104L226.25524878501892,29.60785988694249L227.41553211212158,28.889811399329435L228.57581543922424,27.788248014683948L229.7360987663269,28.16618823394265L230.8963820934296,29.262353354667994L232.05666542053223,28.55595700208521L233.2169487476349,29.091099606286367L234.37723207473755,28.63379079429328L235.5375154018402,28.944852521652454L236.69779872894287,28.434390215569852L237.85808205604553,29.064337624695327L239.01836538314816,26.971090224118758L240.17864871025085,28.41183570438716L241.33893203735352,29.184078527825932L242.49921536445618,27.907406752097675L243.65949869155884,28.240326155917817L244.8197820186615,27.751950864305854L245.98006534576416,27.683564033958053L247.14034867286682,26.936195563876797L248.3006319999695,27.59936170163505L249.46091532707214,29.25347091713927L250.6211986541748,27.92063779111763L251.78148198127747,28.369240579435587L252.94176530838013,28.360905024853015" fill="none"></path></g></g></g></g></g></g><g transform="translate(51, 177)" clip-path="url(#clip_1)"><clipPath id="clip_1"><rect width="278" height="22"></rect></clipPath><g><g><line x1="0" y1="0" x2="0" y2="5" style="visibility: inherit;" fill="rgb(0, 0, 0)" stroke="rgb(204, 204, 204)" stroke-width="1px"></line><line x1="23.205666542053223" y1="0" x2="23.205666542053223" y2="5" style="visibility: inherit;" fill="rgb(0, 0, 0)" stroke="rgb(204, 204, 204)" stroke-width="1px"></line><line x1="46.411333084106445" y1="0" x2="46.411333084106445" y2="5" style="visibility: inherit;" fill="rgb(0, 0, 0)" stroke="rgb(204, 204, 204)" stroke-width="1px"></line><line x1="69.61699962615967" y1="0" x2="69.61699962615967" y2="5" style="visibility: inherit;" fill="rgb(0, 0, 0)" stroke="rgb(204, 204, 204)" stroke-width="1px"></line><line x1="92.82266616821289" y1="0" x2="92.82266616821289" y2="5" style="visibility: inherit;" fill="rgb(0, 0, 0)" stroke="rgb(204, 204, 204)" stroke-width="1px"></line><line x1="116.02833271026611" y1="0" x2="116.02833271026611" y2="5" style="visibility: inherit;" fill="rgb(0, 0, 0)" stroke="rgb(204, 204, 204)" stroke-width="1px"></line><line x1="139.23399925231934" y1="0" x2="139.23399925231934" y2="5" style="visibility: inherit;" fill="rgb(0, 0, 0)" stroke="rgb(204, 204, 204)" stroke-width="1px"></line><line x1="162.43966579437256" y1="0" x2="162.43966579437256" y2="5" style="visibility: inherit;" fill="rgb(0, 0, 0)" stroke="rgb(204, 204, 204)" stroke-width="1px"></line><line x1="185.64533233642578" y1="0" x2="185.64533233642578" y2="5" style="visibility: inherit;" fill="rgb(0, 0, 0)" stroke="rgb(204, 204, 204)" stroke-width="1px"></line><line x1="208.850998878479" y1="0" x2="208.850998878479" y2="5" style="visibility: inherit;" fill="rgb(0, 0, 0)" stroke="rgb(204, 204, 204)" stroke-width="1px"></line><line x1="232.05666542053223" y1="0" x2="232.05666542053223" y2="5" style="visibility: inherit;" fill="rgb(0, 0, 0)" stroke="rgb(204, 204, 204)" stroke-width="1px"></line><line x1="255.26233196258545" y1="0" x2="255.26233196258545" y2="5" style="visibility: inherit;" fill="rgb(0, 0, 0)" stroke="rgb(204, 204, 204)" stroke-width="1px"></line><line x1="278.4679985046387" y1="0" x2="278.4679985046387" y2="5" style="visibility: inherit;" fill="rgb(0, 0, 0)" stroke="rgb(204, 204, 204)" stroke-width="1px"></line></g><g transform="translate(0, 8)"><text style="text-anchor: middle; visibility: hidden; font-family: Roboto, sans-serif; font-size: 12px; font-weight: 200;" x="0" y="0" dx="0em" dy="0.95em" fill="rgb(50, 49, 63)" stroke="none" stroke-width="1px">-20</text><text style="text-anchor: middle; visibility: inherit; font-family: Roboto, sans-serif; font-size: 12px; font-weight: 200;" x="23.205666542053223" y="0" dx="0em" dy="0.95em" fill="rgb(50, 49, 63)" stroke="none" stroke-width="1px">0</text><text style="text-anchor: middle; visibility: hidden; font-family: Roboto, sans-serif; font-size: 12px; font-weight: 200;" x="46.411333084106445" y="0" dx="0em" dy="0.95em" fill="rgb(50, 49, 63)" stroke="none" stroke-width="1px">20</text><text style="text-anchor: middle; visibility: inherit; font-family: Roboto, sans-serif; font-size: 12px; font-weight: 200;" x="69.61699962615967" y="0" dx="0em" dy="0.95em" fill="rgb(50, 49, 63)" stroke="none" stroke-width="1px">40</text><text style="text-anchor: middle; visibility: hidden; font-family: Roboto, sans-serif; font-size: 12px; font-weight: 200;" x="92.82266616821289" y="0" dx="0em" dy="0.95em" fill="rgb(50, 49, 63)" stroke="none" stroke-width="1px">60</text><text style="text-anchor: middle; visibility: inherit; font-family: Roboto, sans-serif; font-size: 12px; font-weight: 200;" x="116.02833271026611" y="0" dx="0em" dy="0.95em" fill="rgb(50, 49, 63)" stroke="none" stroke-width="1px">80</text><text style="text-anchor: middle; visibility: hidden; font-family: Roboto, sans-serif; font-size: 12px; font-weight: 200;" x="139.23399925231934" y="0" dx="0em" dy="0.95em" fill="rgb(50, 49, 63)" stroke="none" stroke-width="1px">100</text><text style="text-anchor: middle; visibility: inherit; font-family: Roboto, sans-serif; font-size: 12px; font-weight: 200;" x="162.43966579437256" y="0" dx="0em" dy="0.95em" fill="rgb(50, 49, 63)" stroke="none" stroke-width="1px">120</text><text style="text-anchor: middle; visibility: hidden; font-family: Roboto, sans-serif; font-size: 12px; font-weight: 200;" x="185.64533233642578" y="0" dx="0em" dy="0.95em" fill="rgb(50, 49, 63)" stroke="none" stroke-width="1px">140</text><text style="text-anchor: middle; visibility: inherit; font-family: Roboto, sans-serif; font-size: 12px; font-weight: 200;" x="208.850998878479" y="0" dx="0em" dy="0.95em" fill="rgb(50, 49, 63)" stroke="none" stroke-width="1px">160</text><text style="text-anchor: middle; visibility: hidden; font-family: Roboto, sans-serif; font-size: 12px; font-weight: 200;" x="232.05666542053223" y="0" dx="0em" dy="0.95em" fill="rgb(50, 49, 63)" stroke="none" stroke-width="1px">180</text><text style="text-anchor: middle; visibility: inherit; font-family: Roboto, sans-serif; font-size: 12px; font-weight: 200;" x="255.26233196258545" y="0" dx="0em" dy="0.95em" fill="rgb(50, 49, 63)" stroke="none" stroke-width="1px">200</text><text style="text-anchor: middle; visibility: hidden; font-family: Roboto, sans-serif; font-size: 12px; font-weight: 200;" x="278.4679985046387" y="0" dx="0em" dy="0.95em" fill="rgb(50, 49, 63)" stroke="none" stroke-width="1px">220</text></g><line x1="0" y1="0" x2="278.4679985046387" y2="0" fill="rgb(0, 0, 0)" stroke="rgb(204, 204, 204)" stroke-width="1px"></line></g></g></g></g></svg>