<svg viewBox="0 0 330 200" xmlns="http://www.w3.org/2000/svg"><g><g><g><g><g><line x1="41.149001121520996" y1="177.58399963378906" x2="36.149001121520996" y2="177.58399963378906" style="visibility: inherit;" fill="rgb(0, 0, 0)" stroke="rgb(204, 204, 204)" stroke-width="1px"></line><line x1="41.149001121520996" y1="163.92369196965146" x2="36.149001121520996" y2="163.92369196965146" style="visibility: inherit;" fill="rgb(0, 0, 0)" stroke="rgb(204, 204, 204)" stroke-width="1px"></line><line x1="41.149001121520996" y1="150.26338430551382" x2="36.149001121520996" y2="150.26338430551382" style="visibility: inherit;" fill="rgb(0, 0, 0)" stroke="rgb(204, 204, 204)" stroke-width="1px"></line><line x1="41.149001121520996" y1="136.6030766413762" x2="36.149001121520996" y2="136.6030766413762" style="visibility: inherit;" fill="rgb(0, 0, 0)" stroke="rgb(204, 204, 204)" stroke-width="1px"></line><line x1="41.149001121520996" y1="122.94276897723857" x2="36.149001121520996" y2="122.94276897723857" style="visibility: inherit;" fill="rgb(0, 0, 0)" stroke="rgb(204, 204, 204)" stroke-width="1px"></line><line x1="41.149001121520996" y1="109.28246131310097" x2="36.149001121520996" y2="109.28246131310097" style="visibility: inherit;" fill="rgb(0, 0, 0)" stroke="rgb(204, 204, 204)" stroke-width="1px"></line><line x1="41.149001121520996" y1="95.62215364896333" x2="36.149001121520996" y2="95.62215364896333" style="visibility: inherit;" fill="rgb(0, 0, 0)" stroke="rgb(204, 204, 204)" stroke-width="1px"></line><line x1="41.149001121520996" y1="81.96184598482573" x2="36.149001121520996" y2="81.96184598482573" style="visibility: inherit;" fill="rgb(0, 0, 0)" stroke="rgb(204, 204, 204)" stroke-width="1px"></line><line x1="41.149001121520996" y1="68.3015383206881" x2="36.149001121520996" y2="68.3015383206881" style="visibility: inherit;" fill="rgb(0, 0, 0)" stroke="rgb(204, 204, 204)" stroke-width="1px"></line><line x1="41.149001121520996" y1="54.64123065655048" x2="36.149001121520996" y2="54.64123065655048" style="visibility: inherit;" fill="rgb(0, 0, 0)" stroke="rgb(204, 204, 204)" stroke-width="1px"></line><line x1="41.149001121520996" y1="40.98092299241285" x2="36.149001121520996" y2="40.98092299241285" style="visibility: inherit;" fill="rgb(0, 0, 0)" stroke="rgb(204, 204, 204)" stroke-width="1px"></line><line x1="41.149001121520996" y1="27.32061532827524" x2="36.149001121520996" y2="27.32061532827524" style="visibility: inherit;" fill="rgb(0, 0, 0)" stroke="rgb(204, 204, 204)" stroke-width="1px"></line><line x1="41.149001121520996" y1="13.66030766413761" x2="36.149001121520996" y2="13.66030766413761" style="visibility: inherit;" fill="rgb(0, 0, 0)" stroke="rgb(204, 204, 204)" stroke-width="1px"></line><line x1="41.149001121520996" y1="0" x2="36.149001121520996" y2="0" style="visibility: inherit;" fill="rgb(0, 0, 0)" stroke="rgb(204, 204, 204)" stroke-width="1px"></line></g><g transform="translate(31.149001121520996, 0)"><text style="text-anchor: end; visibility: hidden; font-family: Roboto, sans-serif; font-size: 12px; font-weight: 200;" x="0" y="177.58399963378906" dx="0em" dy="0.3em" fill="rgb(50, 49, 63)" stroke="none" stroke-width="1px">-50</text><text style="text-anchor: end; visibility: inherit; font-family: Roboto, sans-serif; font-size: 12px; font-weight: 200;" x="0" y="163.92369196965146" dx="0em" dy="0.3em" fill="rgb(50, 49, 63)" stroke="none" stroke-width="1px">0</text><text style="text-anchor: end; visibility: hidden; font-family: Roboto, sans-serif; font-size: 12px; font-weight: 200;" x="0" y="150.26338430551382" dx="0em" dy="0.3em" fill="rgb(50, 49, 63)" stroke="none" stroke-width="1px">50</text><text style="text-anchor: end; visibility: inherit; font-family: Roboto, sans-serif; font-size: 12px; font-weight: 200;" x="0" y="136.6030766413762" dx="0em" dy="0.3em" fill="rgb(50, 49, 63)" stroke="none" stroke-width="1px">100</text><text style="text-anchor: end; visibility: hidden; font-family: Roboto, sans-serif; font-size: 12px; font-weight: 200;" x="0" y="122.94276897723857" dx="0em" dy="0.3em" fill="rgb(50, 49, 63)" stroke="none" stroke-width="1px">150</text><text style="text-anchor: end; visibility: inherit; font-family: Roboto, sans-serif; font-size: 12px; font-weight: 200;" x="0" y="109.28246131310097" dx="0em" dy="0.3em" fill="rgb(50, 49, 63)" stroke="none" stroke-width="1px">200</text><text style="text-anchor: end; visibility: hidden; font-family: Roboto, sans-serif; font-size: 12px; font-weight: 200;" x="0" y="95.62215364896333" dx="0em" dy="0.3em" fill="rgb(50, 49, 63)" stroke="none" stroke-width="1px">250</text><text style="text-anchor: end; visibility: inherit; font-family: Roboto, sans-serif; font-size: 12px; font-weight: 200;" x="0" y="81.96184598482573" dx="0em" dy="0.3em" fill="rgb(50, 49, 63)" stroke="none" stroke-width="1px">300</text><text style="text-anchor: end; visibility: hidden; font-family: Roboto, sans-serif; font-size: 12px; font-weight: 200;" x="0" y="68.3015383206881" dx="0em" dy="0.3em" fill="rgb(50, 49, 63)" stroke="none" stroke-width="1px">350</text><text style="text-anchor: end; visibility: inherit; font-family: Roboto, sans-serif; font-size: 12px; font-weight: 200;" x="0" y="54.64123065655048" dx="0em" dy="0.3em" fill="rgb(50, 49, 63)" stroke="none" stroke-width="1px">400</text><text style="text-anchor: end; visibility: hidden; font-family: Roboto, sans-serif; font-size: 12px; font-weight: 200;" x="0" y="40.98092299241285" dx="0em" dy="0.3em" fill="rgb(50, 49, 63)" stroke="none" stroke-width="1px">450</text><text style="text-anchor: end; visibility: inherit; font-family: Roboto, sans-serif; font-size: 12px; font-weight: 200;" x="0" y="27.32061532827524" dx="0em" dy="0.3em" fill="rgb(50, 49, 63)" stroke="none" stroke-width="1px">500</text><text style="text-anchor: end; visibility: hidden; font-family: Roboto, sans-serif; font-size: 12px; font-weight: 200;" x="0" y="13.66030766413761" dx="0em" dy="0.3em" fill="rgb(50, 49, 63)" stroke="none" stroke-width="1px">550</text><text style="text-anchor: end; visibility: hidden; font-family: Roboto, sans-serif; font-size: 12px; font-weight: 200;" x="0" y="0" dx="0em" dy="0.3em" fill="rgb(50, 49, 63)" stroke="none" stroke-width="1px">600</text></g><line x1="41.149001121520996" y1="0" x2="41.149001121520996" y2="177.58399963378906" fill="rgb(0, 0, 0)" stroke="rgb(204, 204, 204)" stroke-width="1px"></line></g></g><g transform="translate(41, 0)" clip-path="url(#clip_0)"><clipPath id="clip_0"><rect width="288" height="177"></rect></clipPath><g><g><g><line x1="0" y1="0" x2="0" y2="177.58399963378906" fill="rgb(0, 0, 0)" stroke="rgb(60, 60, 60)" stroke-width="1px" opacity="0.25"></line><line x1="24.07091657320658" y1="0" x2="24.07091657320658" y2="177.58399963378906" fill="rgb(0, 0, 0)" stroke="rgb(60, 60, 60)" stroke-width="1px" opacity="0.25"></line><line x1="48.14183314641316" y1="0" x2="48.14183314641316" y2="177.58399963378906" fill="rgb(0, 0, 0)" stroke="rgb(60, 60, 60)" stroke-width="1px" opacity="0.25"></line><line x1="72.21274971961975" y1="0" x2="72.21274971961975" y2="177.58399963378906" fill="rgb(0, 0, 0)" stroke="rgb(60, 60, 60)" stroke-width="1px" opacity="0.25"></line><line x1="96.28366629282633" y1="0" x2="96.28366629282633" y2="177.58399963378906" fill="rgb(0, 0, 0)" stroke="rgb(60, 60, 60)" stroke-width="1px" opacity="0.25"></line><line x1="120.35458286603293" y1="0" x2="120.35458286603293" y2="177.58399963378906" fill="rgb(0, 0, 0)" stroke="rgb(60, 60, 60)" stroke-width="1px" opacity="0.25"></line><line x1="144.4254994392395" y1="0" x2="144.4254994392395" y2="177.58399963378906" fill="rgb(0, 0, 0)" stroke="rgb(60, 60, 60)" stroke-width="1px" opacity="0.25"></line><line x1="168.4964160124461" y1="0" x2="168.4964160124461" y2="177.58399963378906" fill="rgb(0, 0, 0)" stroke="rgb(60, 60, 60)" stroke-width="1px" opacity="0.25"></line><line x1="192.56733258565265" y1="0" x2="192.56733258565265" y2="177.58399963378906" fill="rgb(0, 0, 0)" stroke="rgb(60, 60, 60)" stroke-width="1px" opacity="0.25"></line><line x1="216.63824915885925" y1="0" x2="216.63824915885925" y2="177.58399963378906" fill="rgb(0, 0, 0)" stroke="rgb(60, 60, 60)" stroke-width="1px" opacity="0.25"></line><line x1="240.70916573206586" y1="0" x2="240.70916573206586" y2="177.58399963378906" fill="rgb(0, 0, 0)" stroke="rgb(60, 60, 60)" stroke-width="1px" opacity="0.25"></line><line x1="264.7800823052724" y1="0" x2="264.7800823052724" y2="177.58399963378906" fill="rgb(0, 0, 0)" stroke="rgb(60, 60, 60)" stroke-width="1px" opacity="0.25"></line><line x1="288.850998878479" y1="0" x2="288.850998878479" y2="177.58399963378906" fill="rgb(0, 0, 0)" stroke="rgb(60, 60, 60)" stroke-width="1px" opacity="0.25"></line></g><g><line x1="0" y1="177.58399963378906" x2="288.850998878479" y2="177.58399963378906" fill="rgb(0, 0, 0)" stroke="rgb(60, 60, 60)" stroke-width="1px" opacity="0.25"></line><line x1="0" y1="163.92369196965146" x2="288.850998878479" y2="163.92369196965146" fill="rgb(0, 0, 0)" stroke="rgb(60, 60, 60)" stroke-width="1px" opacity="0.25"></line><line x1="0" y1="150.26338430551382" x2="288.850998878479" y2="150.26338430551382" fill="rgb(0, 0, 0)" stroke="rgb(60, 60, 60)" stroke-width="1px" opacity="0.25"></line><line x1="0" y1="136.6030766413762" x2="288.850998878479" y2="136.6030766413762" fill="rgb(0, 0, 0)" stroke="rgb(60, 60, 60)" stroke-width="1px" opacity="0.25"></line><line x1="0" y1="122.94276897723857" x2="288.850998878479" y2="122.94276897723857" fill="rgb(0, 0, 0)" stroke="rgb(60, 60, 60)" stroke-width="1px" opacity="0.25"></line><line x1="0" y1="109.28246131310097" x2="288.850998878479" y2="109.28246131310097" fill="rgb(0, 0, 0)" stroke="rgb(60, 60, 60)" stroke-width="1px" opacity="0.25"></line><line x1="0" y1="95.62215364896333" x2="288.850998878479" y2="95.62215364896333" fill="rgb(0, 0, 0)" stroke="rgb(60, 60, 60)" stroke-width="1px" opacity="0.25"></line><line x1="0" y1="81.96184598482573" x2="288.850998878479" y2="81.96184598482573" fill="rgb(0, 0, 0)" stroke="rgb(60, 60, 60)" stroke-width="1px" opacity="0.25"></line><line x1="0" y1="68.3015383206881" x2="288.850998878479" y2="68.3015383206881" fill="rgb(0, 0, 0)" stroke="rgb(60, 60, 60)" stroke-width="1px" opacity="0.25"></line><line x1="0" y1="54.64123065655048" x2="288.850998878479" y2="54.64123065655048" fill="rgb(0, 0, 0)" stroke="rgb(60, 60, 60)" stroke-width="1px" opacity="0.25"></line><line x1="0" y1="40.98092299241285" x2="288.850998878479" y2="40.98092299241285" fill="rgb(0, 0, 0)" stroke="rgb(60, 60, 60)" stroke-width="1px" opacity="0.25"></line><line x1="0" y1="27.32061532827524" x2="288.850998878479" y2="27.32061532827524" fill="rgb(0, 0, 0)" stroke="rgb(60, 60, 60)" stroke-width="1px" opacity="0.25"></line><line x1="0" y1="13.66030766413761" x2="288.850998878479" y2="13.66030766413761" fill="rgb(0, 0, 0)" stroke="rgb(60, 60, 60)" stroke-width="1px" opacity="0.25"></line><line x1="0" y1="0" x2="288.850998878479" y2="0" fill="rgb(0, 0, 0)" stroke="rgb(60, 60, 60)" stroke-width="1px" opacity="0.25"></line></g></g></g><g><g><line x1="0" y1="163.92369196965146" x2="288.850998878479" y2="163.92369196965146" fill="rgb(0, 0, 0)" stroke="rgb(153, 153, 153)" stroke-width="1.5px"></line></g></g><g><g><line x1="24.07091657320658" y1="0" x2="24.07091657320658" y2="177.58399963378906" fill="rgb(0, 0, 0)" stroke="rgb(153, 153, 153)" stroke-width="1.5px"></line></g></g><g><g><g><g><g><path style="fill: none;" stroke="rgb(0, 119, 187)" stroke-width="2px" d="M32.49573737382889,-25.851502978204255L33.69928320248922,1.1720754811100844L34.902829031149544,21.268196334600436L36.106374859809875,36.21848568387573L37.30992068847021,47.57078618534044L38.51346651713053,51.42096178852578L39.71701234579086,55.845936701520266L40.920558174451195,60.63747841439782L42.124104003111526,67.3387447726558L43.32764983177185,72.98078399117642L44.53119566043218,77.52906515942355L45.73474148909251,80.90012530957036L46.93828731775284,84.1133980595703L48.14183314641316,86.86413133445664L49.345378975073494,89.46726830329301L50.548924803733826,91.8079590056791L51.75247063239416,93.99524667640247L52.95601646105448,95.82858010835093L54.15956228971481,97.76036792449301L55.363108118375145,99.78504633061102L56.56665394703547,100.9749293083355L57.7701997756958,102.41338046865397L58.97374560435613,103.74102145022361L60.177291433016464,105.54465680584076L61.38083726167679,107.02661367187817L62.58438309033712,108.09396369305756L63.787928918997444,109.70987174595815L64.99147474765778,111.0222349147327L66.1950205763181,111.9997331832355L67.39856640497844,113.14708181898486L68.60211223363876,114.6034147322842L69.80565806229909,115.78925379055654L71.00920389095941,116.48387360379927L72.21274971961975,117.51857931383952L73.41629554828008,118.41279732228375L74.61984137694041,119.77121941422907L75.82338720560074,120.33585314963628L77.02693303426106,121.15298261419018L78.23047886292139,121.94098563121509L79.43402469158173,122.86983527866629L80.63757052024205,123.86962931275669L81.84111634890239,125.02825600563958L83.04466217756271,125.73350883278694L84.24820800622305,126.30091251089631L85.45175383488338,127.22062046446395L86.6552996635437,127.98912919889673L87.85884549220403,128.54525461919746L89.06239132086436,129.0514846366468L90.26593714952469,129.7436201118352L91.46948297818501,130.5693651276973L92.67302880684535,131.00538679734296L93.87657463550568,131.3318028846337L95.080120464166,131.8501396842548L96.28366629282633,132.51935631872743L97.48721212148666,133.023401972577L98.69075795014699,133.61939507950072L99.89430377880733,133.80927698321355L101.09784960746765,133.97259634183575L102.30139543612799,134.45311992707363L103.50494126478831,134.56832736448075L104.70848709344864,134.99707376683847L105.91203292210896,135.69290386170564L107.1155787507693,136.2383389040893L108.31912457942963,136.40813870365727L109.52267040808995,136.90632925490652L110.72621623675029,137.0785772489281L111.92976206541061,137.43379213669365L113.13330789407094,137.45024065329224L114.33685372273126,137.8009529489217L115.5403995513916,138.26868669520988L116.74394538005193,138.60631437150104L117.94749120871226,139.31954586106346L119.15103703737259,139.34028685810455L120.35458286603293,139.63149544719064L121.55812869469325,139.9002819574195L122.76167452335358,140.30078016827682L123.9652203520139,140.2880907638075L125.16876618067424,140.69167872860126L126.37231200933456,141.00618011204588L127.57585783799489,141.5244917263638L128.77940366665524,142.01190043452465L129.98294949531555,142.29128482448715L131.1864953239759,142.47170031916545L132.3900411526362,142.40858879360945L133.59358698129654,142.4527104045491L134.79713280995688,142.78592664692263L136.0006786386172,142.97152490867737L137.20422446727753,143.03577481399444L138.40777029593787,143.48474513246512L139.61131612459818,143.7733679802837L140.81486195325851,144.03610825091454L142.01840778191882,144.1445456238813L143.22195361057916,144.5545374862529L144.4254994392395,144.55066419891773L145.62904526789984,144.69418635557284L146.83259109656015,144.92697703635778L148.0361369252205,144.65142444884006L149.23968275388083,144.9167085824156L150.44322858254117,144.91113495172274L151.64677441120148,145.24753839963464L152.85032023986182,145.6402404127749L154.05386606852213,146.15460768570165L155.25741189718246,146.18862243167217L156.46095772584277,146.49503813465927L157.6645035545031,146.29763040391742L158.86804938316345,146.59909431831733L160.0715952118238,146.76092585919156L161.2751410404841,146.8310360044749L162.47868686914444,147.03020355049307L163.68223269780478,147.17941716491924L164.8857785264651,147.38149863149485L166.08932435512543,147.2036960794022L167.29287018378577,147.2284945925344L168.4964160124461,147.67211217808278L169.69996184110641,147.75549023722567L170.90350766976675,147.72148041742344L172.10705349842706,148.22710642680107L173.3105993270874,148.59403614693002L174.5141451557477,148.54912197865258L175.71769098440805,148.4416961396234L176.9212368130684,148.61109503160705L178.12478264172873,148.80886886535953L179.32832847038904,149.18984959242883L180.53187429904938,148.8689258060957L181.73542012770972,149.01087273203598L182.93896595637003,148.9972692092807L184.14251178503036,149.06413873669877L185.3460576136907,149.1698180905595L186.54960344235104,149.3952034013099L187.75314927101135,149.4721615028443L188.9566950996717,149.86364432894825L190.160240928332,149.91275875955654L191.36378675699234,149.8216091690717L192.56733258565265,149.99391447478442L193.770878414313,150.2607994681213L194.97442424297333,150.29612132559626L196.17797007163367,150.31551268685476L197.38151590029398,150.282888657059L198.58506172895432,150.4518946864339L199.78860755761465,150.6490913783054L200.99215338627496,150.6308100687025L202.1956992149353,150.76350963345575L203.39924504359564,151.0818083142359L204.60279087225598,150.82781033762402L205.8063367009163,150.86879987025597L207.00988252957663,151.18812448266937L208.21342835823694,151.20265509922802L209.41697418689728,151.00264731976645L210.6205200155576,151.27792154681973L211.82406584421793,151.52353007075388L213.02761167287827,151.3927056542127L214.2311575015386,151.19739636405413L215.43470333019891,151.45602391301964L216.63824915885925,151.3211340143613L217.8417949875196,151.55739452020023L219.0453408161799,151.7608556607158L220.24888664484024,151.8066784132413L221.45243247350058,151.92638914659767L222.65597830216092,152.04123088159488L223.85952413082123,152.2763445311372L225.06306995948157,152.48443527285778L226.26661578814188,152.35484480991124L227.47016161680222,152.35287005504895L228.67370744546253,152.39404141061544L229.87725327412286,152.71237247049524L231.0807991027832,152.7743268889909L232.28434493144354,152.80723194458182L233.48789076010385,152.99168448777547L234.6914365887642,153.08318414207403L235.89498241742453,152.9214483303824L237.09852824608484,153.17470902503683L238.30207407474518,153.1625491515279L239.50561990340552,153.27409848773186L240.70916573206586,153.329854051166L241.91271156072617,153.2464606492706L243.1162573893865,153.2787858246853L244.31980321804681,153.3545672182042L245.52334904670715,153.27928523778274L246.72689487536746,153.13699354653755L247.9304407040278,153.60262651803396L249.13398653268814,153.47236048777415L250.33753236134848,153.307254395376L251.5410781900088,153.53720288521714L252.74462401866913,153.76681751915973L253.94816984732947,153.77443693452173L255.15171567598978,153.86767010027032L256.3552615046501,153.95026194031956L257.5588073333105,154.20041279273354L258.7623531619708,153.89474019563409L259.9658989906311,153.9335996981015L261.1694448192914,153.79408309815992L262.3729906479518,153.89723645876063L263.5765364766121,154.00056421365488" fill="none"></path></g></g></g></g><g opacity="0.2"><g><g><g><path style="fill: none;" stroke="rgb(0, 119, 187)" stroke-width="2px" d="M28.8850998878479,-12.466164655782842L30.088645716508232,0.29961963880521103L31.29219154516856,15.89438161385748L32.49573737382889,27.906497786502133L33.69928320248922,41.02660464871891L34.902829031149544,51.108593719724844L36.106374859809875,58.50832168373206L37.30992068847021,64.53745821952606L38.51346651713053,57.18365370193854L39.71701234579086,62.474730084506945L40.920558174451195,67.81915870629825L42.124104003111526,77.38591805781381L43.32764983177185,81.4414552970467L44.53119566043218,84.3503321036983L45.73474148909251,85.95620198770642L46.93828731775284,88.93301347871311L48.14183314641316,90.99008039003596L49.345378975073494,93.37188809921679L50.548924803733826,95.31894884640352L51.75247063239416,97.27615227197977L52.95601646105448,98.57856722572424L54.15956228971481,100.6580414105135L55.363108118375145,102.82205875919092L56.56665394703547,102.75975194817158L57.7701997756958,104.57105588411481L58.97374560435613,105.7324821888111L60.177291433016464,108.25010924116137L61.38083726167679,109.24954867607447L62.58438309033712,109.6949885974065L63.787928918997444,112.13373370956486L64.99147474765778,112.99077961149338L66.1950205763181,113.46598056078386L67.39856640497844,114.86810475485757L68.60211223363876,116.78791408871409L69.80565806229909,117.56801237136018L71.00920389095941,117.52580332134207L72.21274971961975,119.0706378768252L73.41629554828008,119.75412433387426L74.61984137694041,121.80885255116648L75.82338720560074,121.18280375250256L77.02693303426106,122.37867681080868L78.23047886292139,123.12299015662956L79.43402469158173,124.26310974975617L80.63757052024205,125.36932036383614L81.84111634890239,126.7661960449249L83.04466217756271,126.79138807349374L84.24820800622305,127.15201802805352L85.45175383488338,128.6001823948087L86.6552996635437,129.1418923005426L87.85884549220403,129.37944274964707L89.06239132086436,129.81082966281997L90.26593714952469,130.7818233246172L91.46948297818501,131.8079826514899L92.67302880684535,131.6594193018113L93.87657463550568,131.82142701556978L95.080120464166,132.62764488368637L96.28366629282633,133.52318127043634L97.48721212148666,133.77947045335134L98.69075795014699,134.51338473988625L99.89430377880733,134.09409983878274L101.09784960746765,134.2175753797691L102.30139543612799,135.1739053049304L103.50494126478831,134.74113852059148L104.70848709344864,135.64019337037507L105.91203292210896,136.7366490040064L107.1155787507693,137.05649146766473L108.31912457942963,136.6628384030093L109.52267040808995,137.6536150817804L110.72621623675029,137.33694923996046L111.92976206541061,137.96661446834196L113.13330789407094,137.4749134281901L114.33685372273126,138.32702139236588L115.5403995513916,138.97028731464212L116.74394538005193,139.11275588593787L117.94749120871226,140.38939309540706L119.15103703737259,139.3713983536662L120.35458286603293,140.0683083308198L121.55812869469325,140.30346172276276L122.76167452335358,140.9015274845628L123.9652203520139,140.26905665710353L125.16876618067424,141.2970606757919L126.37231200933456,141.4779321872128L127.57585783799489,142.3019591478407L128.77940366665524,142.7430134967659L129.98294949531555,142.71036140943087L131.1864953239759,142.74232356118287L132.3900411526362,142.31392150527546L133.59358698129654,142.51889282095854L134.79713280995688,143.2857510104829L136.0006786386172,143.2499223013095L137.20422446727753,143.13214967197004L138.40777029593787,144.15820061017115L139.61131612459818,144.20630225201157L140.81486195325851,144.4302186568608L142.01840778191882,144.30720168333144L143.22195361057916,145.16952527981036L144.4254994392395,144.54485426791496L145.62904526789984,144.9094695905555L146.83259109656015,145.27616305753517L148.0361369252205,144.23809556756348L149.23968275388083,145.31463478277885L150.44322858254117,144.90277450568345L151.64677441120148,145.75214357150253L152.85032023986182,146.2292934324852L154.05386606852213,146.92615859509186L155.25741189718246,146.23964455062793L156.46095772584277,146.9546616891399L157.6645035545031,146.00151880780467L158.86804938316345,147.0512901899172L160.0715952118238,147.00367317050294L161.2751410404841,146.93620122239986L162.47868686914444,147.32895486952037L163.68223269780478,147.40323758655845L164.8857785264651,147.6846208313583L166.08932435512543,146.93699225126318L167.29287018378577,147.26569236223273L168.4964160124461,148.33753855640535L169.69996184110641,147.88055732593998L170.90350766976675,147.67046568772014L172.10705349842706,148.98554544086755L173.3105993270874,149.14443072712345L174.5141451557477,148.4817507262364L175.71769098440805,148.28055738107963L176.9212368130684,148.86519336958256L178.12478264172873,149.10552961598822L179.32832847038904,149.76132068303278L180.53187429904938,148.38754012659595L181.73542012770972,149.22379312094643L182.93896595637003,148.9768639251478L184.14251178503036,149.16444302782585L185.3460576136907,149.32833712135056L186.54960344235104,149.73328136743558L187.75314927101135,149.58759865514585L188.9566950996717,150.4508685681042L190.160240928332,149.98643040546898L191.36378675699234,149.68488478334442L192.56733258565265,150.25237243335354L193.770878414313,150.6611269581266L194.97442424297333,150.34910411180866L196.17797007163367,150.34459972874254L197.38151590029398,150.23395261236539L198.58506172895432,150.70540373049622L199.78860755761465,150.94488641611264L200.99215338627496,150.6033881042981L202.1956992149353,150.96255898058567L203.39924504359564,151.5592563354061L204.60279087225598,150.44681337270617L205.8063367009163,150.9302841692039L207.00988252957663,151.66711140128945L208.21342835823694,151.22445102406604L209.41697418689728,150.70263565057405L210.6205200155576,151.69083288739964L211.82406584421793,151.89194285665513L213.02761167287827,151.19646902940093L214.2311575015386,150.90443242881628L215.43470333019891,151.84396523646785L216.63824915885925,151.11879916637375L217.8417949875196,151.91178527895872L219.0453408161799,152.06604737148916L220.24888664484024,151.87541254202952L221.45243247350058,152.10595524663222L222.65597830216092,152.21349348409075L223.85952413082123,152.62901500545067L225.06306995948157,152.79657138543865L226.26661578814188,152.16045911549142L227.47016161680222,152.3499079227555L228.67370744546253,152.45579844396516L229.87725327412286,153.18986906031498L231.0807991027832,152.86725851673444L232.28434493144354,152.85658952796814L233.48789076010385,153.26836330256594L234.6914365887642,153.22043362352193L235.89498241742453,152.6788446128449L237.09852824608484,153.5546000670185L238.30207407474518,153.14430934126455L239.50561990340552,153.4414224920378L240.70916573206586,153.41348739631715L241.91271156072617,153.12137054642753L243.1162573893865,153.3272735878073L244.31980321804681,153.46823930848265L245.52334904670715,153.16636226715053L246.72689487536746,152.92355600966974L247.9304407040278,154.30107597527856L249.13398653268814,153.27696144238448L250.33753236134848,153.05959525677878L251.5410781900088,153.8821256199789L252.74462401866913,154.11123947007357L253.94816984732947,153.7858660575647L255.15171567598978,154.00751984889325L256.3552615046501,154.07414970039343L257.5588073333105,154.5756390713545L258.7623531619708,153.43623129998494L259.9658989906311,153.99188895180257L261.1694448192914,153.58480819824752L262.3729906479518,154.0519664996617L263.5765364766121,154.1555558459963" fill="none"></path></g></g></g></g></g></g><g transform="translate(41, 177)" clip-path="url(#clip_1)"><clipPath id="clip_1"><rect width="288" height="22"></rect></clipPath><g><g><line x1="0" y1="0" x2="0" y2="5" style="visibility: inherit;" fill="rgb(0, 0, 0)" stroke="rgb(204, 204, 204)" stroke-width="1px"></line><line x1="24.07091657320658" y1="0" x2="24.07091657320658" y2="5" style="visibility: inherit;" fill="rgb(0, 0, 0)" stroke="rgb(204, 204, 204)" stroke-width="1px"></line><line x1="48.14183314641316" y1="0" x2="48.14183314641316" y2="5" style="visibility: inherit;" fill="rgb(0, 0, 0)" stroke="rgb(204, 204, 204)" stroke-width="1px"></line><line x1="72.21274971961975" y1="0" x2="72.21274971961975" y2="5" style="visibility: inherit;" fill="rgb(0, 0, 0)" stroke="rgb(204, 204, 204)" stroke-width="1px"></line><line x1="96.28366629282633" y1="0" x2="96.28366629282633" y2="5" style="visibility: inherit;" fill="rgb(0, 0, 0)" stroke="rgb(204, 204, 204)" stroke-width="1px"></line><line x1="120.35458286603293" y1="0" x2="120.35458286603293" y2="5" style="visibility: inherit;" fill="rgb(0, 0, 0)" stroke="rgb(204, 204, 204)" stroke-width="1px"></line><line x1="144.4254994392395" y1="0" x2="144.4254994392395" y2="5" style="visibility: inherit;" fill="rgb(0, 0, 0)" stroke="rgb(204, 204, 204)" stroke-width="1px"></line><line x1="168.4964160124461" y1="0" x2="168.4964160124461" y2="5" style="visibility: inherit;" fill="rgb(0, 0, 0)" stroke="rgb(204, 204, 204)" stroke-width="1px"></line><line x1="192.56733258565265" y1="0" x2="192.56733258565265" y2="5" style="visibility: inherit;" fill="rgb(0, 0, 0)" stroke="rgb(204, 204, 204)" stroke-width="1px"></line><line x1="216.63824915885925" y1="0" x2="216.63824915885925" y2="5" style="visibility: inherit;" fill="rgb(0, 0, 0)" stroke="rgb(204, 204, 204)" stroke-width="1px"></line><line x1="240.70916573206586" y1="0" x2="240.70916573206586" y2="5" style="visibility: inherit;" fill="rgb(0, 0, 0)" stroke="rgb(204, 204, 204)" stroke-width="1px"></line><line x1="264.7800823052724" y1="0" x2="264.7800823052724" y2="5" style="visibility: inherit;" fill="rgb(0, 0, 0)" stroke="rgb(204, 204, 204)" stroke-width="1px"></line><line x1="288.850998878479" y1="0" x2="288.850998878479" y2="5" style="visibility: inherit;" fill="rgb(0, 0, 0)" stroke="rgb(204, 204, 204)" stroke-width="1px"></line></g><g transform="translate(0, 8)"><text style="text-anchor: middle; visibility: hidden; font-family: Roboto, sans-serif; font-size: 12px; font-weight: 200;" x="0" y="0" dx="0em" dy="0.95em" fill="rgb(50, 49, 63)" stroke="none" stroke-width="1px">-20</text><text style="text-anchor: middle; visibility: inherit; font-family: Roboto, sans-serif; font-size: 12px; font-weight: 200;" x="24.07091657320658" y="0" dx="0em" dy="0.95em" fill="rgb(50, 49, 63)" stroke="none" stroke-width="1px">0</text><text style="text-anchor: middle; visibility: hidden; font-family: Roboto, sans-serif; font-size: 12px; font-weight: 200;" x="48.14183314641316" y="0" dx="0em" dy="0.95em" fill="rgb(50, 49, 63)" stroke="none" stroke-width="1px">20</text><text style="text-anchor: middle; visibility: inherit; font-family: Roboto, sans-serif; font-size: 12px; font-weight: 200;" x="72.21274971961975" y="0" dx="0em" dy="0.95em" fill="rgb(50, 49, 63)" stroke="none" stroke-width="1px">40</text><text style="text-anchor: middle; visibility: hidden; font-family: Roboto, sans-serif; font-size: 12px; font-weight: 200;" x="96.28366629282633" y="0" dx="0em" dy="0.95em" fill="rgb(50, 49, 63)" stroke="none" stroke-width="1px">60</text><text style="text-anchor: middle; visibility: inherit; font-family: Roboto, sans-serif; font-size: 12px; font-weight: 200;" x="120.35458286603293" y="0" dx="0em" dy="0.95em" fill="rgb(50, 49, 63)" stroke="none" stroke-width="1px">80</text><text style="text-anchor: middle; visibility: hidden; font-family: Roboto, sans-serif; font-size: 12px; font-weight: 200;" x="144.4254994392395" y="0" dx="0em" dy="0.95em" fill="rgb(50, 49, 63)" stroke="none" stroke-width="1px">100</text><text style="text-anchor: middle; visibility: inherit; font-family: Roboto, sans-serif; font-size: 12px; font-weight: 200;" x="168.4964160124461" y="0" dx="0em" dy="0.95em" fill="rgb(50, 49, 63)" stroke="none" stroke-width="1px">120</text><text style="text-anchor: middle; visibility: hidden; font-family: Roboto, sans-serif; font-size: 12px; font-weight: 200;" x="192.56733258565265" y="0" dx="0em" dy="0.95em" fill="rgb(50, 49, 63)" stroke="none" stroke-width="1px">140</text><text style="text-anchor: middle; visibility: inherit; font-family: Roboto, sans-serif; font-size: 12px; font-weight: 200;" x="216.63824915885925" y="0" dx="0em" dy="0.95em" fill="rgb(50, 49, 63)" stroke="none" stroke-width="1px">160</text><text style="text-anchor: middle; visibility: hidden; font-family: Roboto, sans-serif; font-size: 12px; font-weight: 200;" x="240.70916573206586" y="0" dx="0em" dy="0.95em" fill="rgb(50, 49, 63)" stroke="none" stroke-width="1px">180</text><text style="text-anchor: middle; visibility: inherit; font-family: Roboto, sans-serif; font-size: 12px; font-weight: 200;" x="264.7800823052724" y="0" dx="0em" dy="0.95em" fill="rgb(50, 49, 63)" stroke="none" stroke-width="1px">200</text><text style="text-anchor: middle; visibility: hidden; font-family: Roboto, sans-serif; font-size: 12px; font-weight: 200;" x="288.850998878479" y="0" dx="0em" dy="0.95em" fill="rgb(50, 49, 63)" stroke="none" stroke-width="1px">220</text></g><line x1="0" y1="0" x2="288.850998878479" y2="0" fill="rgb(0, 0, 0)" stroke="rgb(204, 204, 204)" stroke-width="1px"></line></g></g></g></g></svg>