<svg viewBox="0 0 330 200" xmlns="http://www.w3.org/2000/svg"><g><g><g><g><g><line x1="51.53200149536133" y1="177.58399963378906" x2="46.53200149536133" y2="177.58399963378906" style="visibility: inherit;" fill="rgb(0, 0, 0)" stroke="rgb(204, 204, 204)" stroke-width="1px"></line><line x1="51.53200149536133" y1="162.78533299763996" x2="46.53200149536133" y2="162.78533299763996" style="visibility: inherit;" fill="rgb(0, 0, 0)" stroke="rgb(204, 204, 204)" stroke-width="1px"></line><line x1="51.53200149536133" y1="147.9866663614909" x2="46.53200149536133" y2="147.9866663614909" style="visibility: inherit;" fill="rgb(0, 0, 0)" stroke="rgb(204, 204, 204)" stroke-width="1px"></line><line x1="51.53200149536133" y1="133.1879997253418" x2="46.53200149536133" y2="133.1879997253418" style="visibility: inherit;" fill="rgb(0, 0, 0)" stroke="rgb(204, 204, 204)" stroke-width="1px"></line><line x1="51.53200149536133" y1="118.38933308919272" x2="46.53200149536133" y2="118.38933308919272" style="visibility: inherit;" fill="rgb(0, 0, 0)" stroke="rgb(204, 204, 204)" stroke-width="1px"></line><line x1="51.53200149536133" y1="103.59066645304362" x2="46.53200149536133" y2="103.59066645304362" style="visibility: inherit;" fill="rgb(0, 0, 0)" stroke="rgb(204, 204, 204)" stroke-width="1px"></line><line x1="51.53200149536133" y1="88.79199981689455" x2="46.53200149536133" y2="88.79199981689455" style="visibility: inherit;" fill="rgb(0, 0, 0)" stroke="rgb(204, 204, 204)" stroke-width="1px"></line><line x1="51.53200149536133" y1="73.99333318074545" x2="46.53200149536133" y2="73.99333318074545" style="visibility: inherit;" fill="rgb(0, 0, 0)" stroke="rgb(204, 204, 204)" stroke-width="1px"></line><line x1="51.53200149536133" y1="59.19466654459638" x2="46.53200149536133" y2="59.19466654459638" style="visibility: inherit;" fill="rgb(0, 0, 0)" stroke="rgb(204, 204, 204)" stroke-width="1px"></line><line x1="51.53200149536133" y1="44.39599990844729" x2="46.53200149536133" y2="44.39599990844729" style="visibility: inherit;" fill="rgb(0, 0, 0)" stroke="rgb(204, 204, 204)" stroke-width="1px"></line><line x1="51.53200149536133" y1="29.59733327229819" x2="46.53200149536133" y2="29.59733327229819" style="visibility: inherit;" fill="rgb(0, 0, 0)" stroke="rgb(204, 204, 204)" stroke-width="1px"></line><line x1="51.53200149536133" y1="14.798666636149095" x2="46.53200149536133" y2="14.798666636149095" style="visibility: inherit;" fill="rgb(0, 0, 0)" stroke="rgb(204, 204, 204)" stroke-width="1px"></line><line x1="51.53200149536133" y1="0" x2="46.53200149536133" y2="0" style="visibility: inherit;" fill="rgb(0, 0, 0)" stroke="rgb(204, 204, 204)" stroke-width="1px"></line></g><g transform="translate(41.53200149536133, 0)"><text style="text-anchor: end; visibility: hidden; font-family: Roboto, sans-serif; font-size: 12px; font-weight: 200;" x="0" y="177.58399963378906" dx="0em" dy="0.3em" fill="rgb(50, 49, 63)" stroke="none" stroke-width="1px">-0.1</text><text style="text-anchor: end; visibility: inherit; font-family: Roboto, sans-serif; font-size: 12px; font-weight: 200;" x="0" y="162.78533299763996" dx="0em" dy="0.3em" fill="rgb(50, 49, 63)" stroke="none" stroke-width="1px">0</text><text style="text-anchor: end; visibility: hidden; font-family: Roboto, sans-serif; font-size: 12px; font-weight: 200;" x="0" y="147.9866663614909" dx="0em" dy="0.3em" fill="rgb(50, 49, 63)" stroke="none" stroke-width="1px">0.1</text><text style="text-anchor: end; visibility: inherit; font-family: Roboto, sans-serif; font-size: 12px; font-weight: 200;" x="0" y="133.1879997253418" dx="0em" dy="0.3em" fill="rgb(50, 49, 63)" stroke="none" stroke-width="1px">0.2</text><text style="text-anchor: end; visibility: hidden; font-family: Roboto, sans-serif; font-size: 12px; font-weight: 200;" x="0" y="118.38933308919272" dx="0em" dy="0.3em" fill="rgb(50, 49, 63)" stroke="none" stroke-width="1px">0.3</text><text style="text-anchor: end; visibility: inherit; font-family: Roboto, sans-serif; font-size: 12px; font-weight: 200;" x="0" y="103.59066645304362" dx="0em" dy="0.3em" fill="rgb(50, 49, 63)" stroke="none" stroke-width="1px">0.4</text><text style="text-anchor: end; visibility: hidden; font-family: Roboto, sans-serif; font-size: 12px; font-weight: 200;" x="0" y="88.79199981689455" dx="0em" dy="0.3em" fill="rgb(50, 49, 63)" stroke="none" stroke-width="1px">0.5</text><text style="text-anchor: end; visibility: inherit; font-family: Roboto, sans-serif; font-size: 12px; font-weight: 200;" x="0" y="73.99333318074545" dx="0em" dy="0.3em" fill="rgb(50, 49, 63)" stroke="none" stroke-width="1px">0.6</text><text style="text-anchor: end; visibility: hidden; font-family: Roboto, sans-serif; font-size: 12px; font-weight: 200;" x="0" y="59.19466654459638" dx="0em" dy="0.3em" fill="rgb(50, 49, 63)" stroke="none" stroke-width="1px">0.7</text><text style="text-anchor: end; visibility: inherit; font-family: Roboto, sans-serif; font-size: 12px; font-weight: 200;" x="0" y="44.39599990844729" dx="0em" dy="0.3em" fill="rgb(50, 49, 63)" stroke="none" stroke-width="1px">0.8</text><text style="text-anchor: end; visibility: hidden; font-family: Roboto, sans-serif; font-size: 12px; font-weight: 200;" x="0" y="29.59733327229819" dx="0em" dy="0.3em" fill="rgb(50, 49, 63)" stroke="none" stroke-width="1px">0.9</text><text style="text-anchor: end; visibility: inherit; font-family: Roboto, sans-serif; font-size: 12px; font-weight: 200;" x="0" y="14.798666636149095" dx="0em" dy="0.3em" fill="rgb(50, 49, 63)" stroke="none" stroke-width="1px">1</text><text style="text-anchor: end; visibility: hidden; font-family: Roboto, sans-serif; font-size: 12px; font-weight: 200;" x="0" y="0" dx="0em" dy="0.3em" fill="rgb(50, 49, 63)" stroke="none" stroke-width="1px">1.1</text></g><line x1="51.53200149536133" y1="0" x2="51.53200149536133" y2="177.58399963378906" fill="rgb(0, 0, 0)" stroke="rgb(204, 204, 204)" stroke-width="1px"></line></g></g><g transform="translate(51, 0)" clip-path="url(#clip_0)"><clipPath id="clip_0"><rect width="278" height="177"></rect></clipPath><g><g><g><line x1="0" y1="0" x2="0" y2="177.58399963378906" fill="rgb(0, 0, 0)" stroke="rgb(60, 60, 60)" stroke-width="1px" opacity="0.25"></line><line x1="23.205666542053223" y1="0" x2="23.205666542053223" y2="177.58399963378906" fill="rgb(0, 0, 0)" stroke="rgb(60, 60, 60)" stroke-width="1px" opacity="0.25"></line><line x1="46.411333084106445" y1="0" x2="46.411333084106445" y2="177.58399963378906" fill="rgb(0, 0, 0)" stroke="rgb(60, 60, 60)" stroke-width="1px" opacity="0.25"></line><line x1="69.61699962615967" y1="0" x2="69.61699962615967" y2="177.58399963378906" fill="rgb(0, 0, 0)" stroke="rgb(60, 60, 60)" stroke-width="1px" opacity="0.25"></line><line x1="92.82266616821289" y1="0" x2="92.82266616821289" y2="177.58399963378906" fill="rgb(0, 0, 0)" stroke="rgb(60, 60, 60)" stroke-width="1px" opacity="0.25"></line><line x1="116.02833271026611" y1="0" x2="116.02833271026611" y2="177.58399963378906" fill="rgb(0, 0, 0)" stroke="rgb(60, 60, 60)" stroke-width="1px" opacity="0.25"></line><line x1="139.23399925231934" y1="0" x2="139.23399925231934" y2="177.58399963378906" fill="rgb(0, 0, 0)" stroke="rgb(60, 60, 60)" stroke-width="1px" opacity="0.25"></line><line x1="162.43966579437256" y1="0" x2="162.43966579437256" y2="177.58399963378906" fill="rgb(0, 0, 0)" stroke="rgb(60, 60, 60)" stroke-width="1px" opacity="0.25"></line><line x1="185.64533233642578" y1="0" x2="185.64533233642578" y2="177.58399963378906" fill="rgb(0, 0, 0)" stroke="rgb(60, 60, 60)" stroke-width="1px" opacity="0.25"></line><line x1="208.850998878479" y1="0" x2="208.850998878479" y2="177.58399963378906" fill="rgb(0, 0, 0)" stroke="rgb(60, 60, 60)" stroke-width="1px" opacity="0.25"></line><line x1="232.05666542053223" y1="0" x2="232.05666542053223" y2="177.58399963378906" fill="rgb(0, 0, 0)" stroke="rgb(60, 60, 60)" stroke-width="1px" opacity="0.25"></line><line x1="255.26233196258545" y1="0" x2="255.26233196258545" y2="177.58399963378906" fill="rgb(0, 0, 0)" stroke="rgb(60, 60, 60)" stroke-width="1px" opacity="0.25"></line><line x1="278.4679985046387" y1="0" x2="278.4679985046387" y2="177.58399963378906" fill="rgb(0, 0, 0)" stroke="rgb(60, 60, 60)" stroke-width="1px" opacity="0.25"></line></g><g><line x1="0" y1="177.58399963378906" x2="278.4679985046387" y2="177.58399963378906" fill="rgb(0, 0, 0)" stroke="rgb(60, 60, 60)" stroke-width="1px" opacity="0.25"></line><line x1="0" y1="162.78533299763996" x2="278.4679985046387" y2="162.78533299763996" fill="rgb(0, 0, 0)" stroke="rgb(60, 60, 60)" stroke-width="1px" opacity="0.25"></line><line x1="0" y1="147.9866663614909" x2="278.4679985046387" y2="147.9866663614909" fill="rgb(0, 0, 0)" stroke="rgb(60, 60, 60)" stroke-width="1px" opacity="0.25"></line><line x1="0" y1="133.1879997253418" x2="278.4679985046387" y2="133.1879997253418" fill="rgb(0, 0, 0)" stroke="rgb(60, 60, 60)" stroke-width="1px" opacity="0.25"></line><line x1="0" y1="118.38933308919272" x2="278.4679985046387" y2="118.38933308919272" fill="rgb(0, 0, 0)" stroke="rgb(60, 60, 60)" stroke-width="1px" opacity="0.25"></line><line x1="0" y1="103.59066645304362" x2="278.4679985046387" y2="103.59066645304362" fill="rgb(0, 0, 0)" stroke="rgb(60, 60, 60)" stroke-width="1px" opacity="0.25"></line><line x1="0" y1="88.79199981689455" x2="278.4679985046387" y2="88.79199981689455" fill="rgb(0, 0, 0)" stroke="rgb(60, 60, 60)" stroke-width="1px" opacity="0.25"></line><line x1="0" y1="73.99333318074545" x2="278.4679985046387" y2="73.99333318074545" fill="rgb(0, 0, 0)" stroke="rgb(60, 60, 60)" stroke-width="1px" opacity="0.25"></line><line x1="0" y1="59.19466654459638" x2="278.4679985046387" y2="59.19466654459638" fill="rgb(0, 0, 0)" stroke="rgb(60, 60, 60)" stroke-width="1px" opacity="0.25"></line><line x1="0" y1="44.39599990844729" x2="278.4679985046387" y2="44.39599990844729" fill="rgb(0, 0, 0)" stroke="rgb(60, 60, 60)" stroke-width="1px" opacity="0.25"></line><line x1="0" y1="29.59733327229819" x2="278.4679985046387" y2="29.59733327229819" fill="rgb(0, 0, 0)" stroke="rgb(60, 60, 60)" stroke-width="1px" opacity="0.25"></line><line x1="0" y1="14.798666636149095" x2="278.4679985046387" y2="14.798666636149095" fill="rgb(0, 0, 0)" stroke="rgb(60, 60, 60)" stroke-width="1px" opacity="0.25"></line><line x1="0" y1="0" x2="278.4679985046387" y2="0" fill="rgb(0, 0, 0)" stroke="rgb(60, 60, 60)" stroke-width="1px" opacity="0.25"></line></g></g></g><g><g><line x1="0" y1="162.78533299763996" x2="278.4679985046387" y2="162.78533299763996" fill="rgb(0, 0, 0)" stroke="rgb(153, 153, 153)" stroke-width="1.5px"></line></g></g><g><g><line x1="23.205666542053223" y1="0" x2="23.205666542053223" y2="177.58399963378906" fill="rgb(0, 0, 0)" stroke="rgb(153, 153, 153)" stroke-width="1.5px"></line></g></g><g><g><g><g><g><path style="fill: none;" stroke="rgb(0, 153, 136)" stroke-width="2px" d="M23.205666542053223,162.78533299763996L24.365949869155884,162.78533299763996L25.52623319625854,162.78533299763996L26.68651652336121,162.78533299763996L27.846799850463867,162.78533299763996L29.00708317756653,160.53728549551488L30.16736650466919,148.6449208073407L31.32764983177185,134.70337144192183L32.48793315887451,118.22837761953872L33.64821648597717,105.59908526391958L34.808499813079834,95.09555644215007L35.9687831401825,86.40679876456464L37.129066467285156,79.40433171221488L38.28934979438782,74.82894552652691L39.44963312149048,70.19723925004557L40.60991644859314,65.605754046421L41.7701997756958,61.76360246067197L42.93048310279846,59.193953085283866L44.09076642990112,56.08710904721403L45.251049757003784,53.34727108082001L46.411333084106445,51.28880136541445L47.571616411209106,49.15530319419625L48.73189973831177,47.79453345816258L49.89218306541443,45.856215144097376L51.05246639251708,45.23741186679509L52.21274971961975,43.043945695931285L53.37303304672242,40.51806328118924L54.53331637382507,38.223459676468835L55.693599700927734,36.2336565200484L56.853883028030396,35.0865882859564L58.01416635513306,33.59805301134262L59.17444968223572,32.118807482539175L60.33473300933838,31.469013202452224L61.49501633644104,30.632036899163356L62.6552996635437,29.440972663774772L63.81558299064636,28.410765031072234L64.97586631774902,28.769729762121024L66.13614964485168,27.91242768681129L67.29643297195435,26.850856536180206L68.456716299057,25.6784307636608L69.61699962615967,25.098916618236455L70.77728295326233,24.71803879850955L71.937566280365,23.87151673606815L73.09784960746765,23.26843880955761L74.25813293457031,22.944192902478232L75.41841626167297,23.016132597238986L76.57869958877563,22.809049834475353L77.7389829158783,22.49559631883253L78.89926624298096,21.779485791127517L80.05954957008362,21.537026327674813L81.21983289718628,20.929053506174764L82.38011622428894,20.728525224086447L83.5403995513916,20.440533943541432L84.70068287849425,20.29343208885298L85.86096620559692,20.224237785337067L87.02124953269958,20.13288781786273L88.18153285980225,20.06113857915557L89.34181618690492,19.582763154235156L90.50209951400757,19.334711247820067L91.66238284111023,19.0640063573505L92.82266616821289,19.13937165633539L93.98294949531555,18.950623726528594L95.14323282241821,18.82837786211099L96.30351614952087,18.847188940580757L97.46379947662354,19.045506026971633L98.6240828037262,18.83389671716085L99.78436613082886,18.72960031146189L100.94464945793152,18.734670124343776L102.10493278503417,18.583473379870956L103.26521611213684,18.779371392853125L104.4254994392395,18.482933923508973L105.58578276634216,18.39933289215773L106.74606609344484,18.138689376340423L107.90634942054749,17.975899443964423L109.06663274765015,18.202784635836835L110.22691607475281,18.29826294253687L111.38719940185547,18.03467782479904L112.54748272895813,17.98558932672859L113.70776605606079,17.79610063645506L114.86804938316345,17.599683438061113L116.02833271026611,17.527651325081585L117.18861603736877,17.86187302534689L118.34889936447144,17.812039504477784L119.50918269157408,18.20005675457918L120.66946601867676,18.149126590787795L121.82974934577942,18.15576006112879L122.99003267288208,18.19668473255418L124.15031599998476,18.168678791867993L125.3105993270874,17.954291711424943L126.47088265419006,17.758428143552372L127.63116598129272,17.51600899448044L128.79144930839539,17.652230448525334L129.95173263549805,17.596970907078177L131.1120159626007,17.473540685045993L132.27229928970337,17.183456731540048L133.43258261680603,17.065375418629444L134.5928659439087,17.238824535347536L135.75314927101135,17.097237714241217L136.913432598114,17.054212138023857L138.07371592521667,17.096608972926187L139.23399925231934,17.264480090986705L140.394282579422,17.183849320322768L141.55456590652466,17.088692960504023L142.71484923362732,17.108053380485682L143.87513256073,17.37274589029425L145.03541588783264,17.223324054616356L146.1956992149353,17.063638181607708L147.35598254203796,16.87383688488183L148.51626586914062,16.774040988917672L149.6765491962433,16.90835276482728L150.83683252334595,17.02481182336397L151.99711585044858,17.0117268796923L153.15739917755127,17.1277537214868L154.31768250465393,16.896951146992L155.4779658317566,16.87000902537188L156.63824915885925,17.17399961391204L157.7985324859619,17.32354923577298L158.95881581306458,17.096150409105075L160.11909914016724,16.95028708504507L161.27938246726993,16.913717411528555L162.43966579437256,17.05256977842038L163.59994912147522,17.06607776496326L164.76023244857788,17.049505787047515L165.92051577568054,16.853915245601254L167.0807991027832,16.86265095845515L168.24108242988586,17.10574060014437L169.4013657569885,17.069627023447158L170.5616490840912,17.193027517520694L171.72193241119385,16.987804683716973L172.8822157382965,16.874768912414766L174.04249906539917,16.815873990625562L175.20278239250183,16.844786963032952L176.3630657196045,16.92372435104601L177.52334904670715,16.86433523276377L178.68363237380984,16.878453996786543L179.84391570091248,17.05157230476452L181.00419902801514,17.086800659115777L182.1644823551178,17.04191302287842L183.32476568222046,16.870349307401074L184.48504900932312,16.661132316152205L185.64533233642578,16.591497086777334L186.8056156635284,16.584875230174767L187.9658989906311,16.790637018480524L189.12618231773376,17.222296150256266L190.28646564483643,17.16117457885732L191.4467489719391,16.919667510603652L192.60703229904175,16.810956335855913L193.7673156261444,16.747056263186312L194.92759895324707,16.498395623323344L196.08788228034976,16.524180612513756L197.2481656074524,16.504929831362563L198.40844893455505,16.602946478865363L199.56873226165771,16.67436300134526L200.72901558876038,16.674679534730387L201.88929891586304,16.767458501684573L203.0495822429657,16.874395275990157L204.20986557006833,16.82046237869701L205.37014889717102,16.694373959903697L206.53043222427368,16.604593687231507L207.69071555137634,16.539442093551973L208.850998878479,16.661159421454265L210.01128220558167,16.54763216801424L211.17156553268433,16.677903779153983L212.331848859787,16.689523440260125L213.49213218688968,16.740161193966735L214.6524155139923,16.735137585773316L215.81269884109497,16.686305214800427L216.97298216819763,16.502604859269407L218.1332654953003,16.4440280374535L219.29354882240295,16.49926228983999L220.45383214950562,16.83875255460143L221.61411547660825,16.784903656865556L222.77439880371094,16.600031617631263L223.9346821308136,16.44289149272471L225.09496545791626,16.311624017512226L226.25524878501892,16.21809769283843L227.41553211212158,16.3642791922337L228.57581543922424,16.354593531575688L229.7360987663269,16.2342225069305L230.8963820934296,16.28912371504709L232.05666542053223,16.42780690376456L233.2169487476349,16.43218452237561L234.37723207473755,16.60088709532072L235.5375154018402,16.704123285295896L236.69779872894287,16.57122648281167L237.85808205604553,16.389425930459723L239.01836538314816,16.299518256657745L240.17864871025085,16.257548624758872L241.33893203735352,16.43777255191949L242.49921536445618,16.432980872249832L243.65949869155884,16.324860887667686L244.8197820186615,16.38176738005806L245.98006534576416,16.2863388283006L247.14034867286682,16.1916890168372L248.3006319999695,16.223109585035903L249.46091532707214,16.436504067150455L250.6211986541748,16.39411438901091L251.78148198127747,16.30747555975944L252.94176530838013,16.36882052176079" fill="none"></path></g></g></g></g><g opacity="0.2"><g><g><g><path style="fill: none;" stroke="rgb(0, 153, 136)" stroke-width="2px" d="M23.205666542053223,162.78533299763996L24.365949869155884,162.78533299763996L25.52623319625854,162.78533299763996L26.68651652336121,162.78533299763996L27.846799850463867,162.78533299763996L29.00708317756653,157.42742650297512L30.16736650466919,131.6386490254166L31.32764983177185,114.37645862826726L32.48793315887451,93.93096183432364L33.64821648597717,86.84605798407348L34.808499813079834,79.43552944284951L35.9687831401825,73.42094608377239L37.129066467285156,68.92349540357222L38.28934979438782,67.97482990584135L39.44963312149048,63.25512423218397L40.60991644859314,58.72176451208363L41.7701997756958,56.002000951834084L42.93048310279846,55.34013145589979L44.09076642990112,51.42731628652809L45.251049757003784,49.23776456327159L46.411333084106445,48.20120968367748L47.571616411209106,45.955126141035045L48.73189973831177,45.75340572013679L49.89218306541443,42.94876063422789L51.05246639251708,44.30921134903053L52.21274971961975,39.753755793766864L53.37303304672242,36.729246122117L54.53331637382507,34.7815577921453L55.693599700927734,33.248953618307674L56.853883028030396,33.36598656878552L58.01416635513306,31.365250593036485L59.17444968223572,29.899939483654357L60.33473300933838,30.494321859894193L61.49501633644104,29.376572504180945L62.6552996635437,27.65437636188003L63.81558299064636,26.865453608583426L64.97586631774902,29.308176853140456L66.13614964485168,26.626474581804974L67.29643297195435,25.25849981614633L68.456716299057,23.91979210879981L69.61699962615967,24.229645401261838L70.77728295326233,24.146722069377436L71.937566280365,22.60173364301713L73.09784960746765,22.363821920052942L74.25813293457031,22.4578240419434L75.41841626167297,23.124042139368928L76.57869958877563,22.49842569034931L77.7389829158783,22.02541604538587L78.89926624298096,20.7053199995941L80.05954957008362,21.17333713250068L81.21983289718628,20.01709427393205L82.38011622428894,20.427732800955415L83.5403995513916,20.008547022725157L84.70068287849425,20.07277930682071L85.86096620559692,20.12044633006328L87.02124953269958,19.995862866651372L88.18153285980225,19.953514721094823L89.34181618690492,18.865200016854647L90.50209951400757,18.962633388197606L91.66238284111023,18.65794902164605L92.82266616821289,19.25241960481269L93.98294949531555,18.66750183181846L95.14323282241821,18.645009065484533L96.30351614952087,18.875405558285387L97.46379947662354,19.342981656557956L98.6240828037262,18.516482752444677L99.78436613082886,18.573155702913503L100.94464945793152,18.742274843666586L102.10493278503417,18.356678263161644L103.26521611213684,19.0732184123264L104.4254994392395,18.038277719492747L105.58578276634216,18.273931345130837L106.74606609344484,17.747724102614505L107.90634942054749,17.731714545400358L109.06663274765015,18.543112423645514L110.22691607475281,18.441480402586897L111.38719940185547,17.639300148192294L112.54748272895813,17.91195657962287L113.70776605606079,17.511867601044763L114.86804938316345,17.305057640470157L116.02833271026611,17.419603155612254L117.18861603736877,18.363205575744836L118.34889936447144,17.73728922317409L119.50918269157408,18.78208262973128L120.66946601867676,18.072731345100713L121.82974934577942,18.16571026664028L122.99003267288208,18.258071739692262L124.15031599998476,18.126669880838723L125.3105993270874,17.632711090760356L126.47088265419006,17.46463279174352L127.63116598129272,17.15238027087255L128.79144930839539,17.856562629592666L129.95173263549805,17.514081594907427L131.1120159626007,17.2883953519977L132.27229928970337,16.74833080128112L133.43258261680603,16.88825344926349L134.5928659439087,17.498998210424677L135.75314927101135,16.884857482581697L136.913432598114,16.989673773697792L138.07371592521667,17.160204225279674L139.23399925231934,17.51628676807743L140.394282579422,17.062903164326915L141.55456590652466,16.945958420775856L142.71484923362732,17.137094010458146L143.87513256073,17.769784655007104L145.03541588783264,16.999191301099494L146.1956992149353,16.824109372094743L147.35598254203796,16.589134939793006L148.51626586914062,16.62434714497144L149.6765491962433,17.10982042869168L150.83683252334595,17.199500411168945L151.99711585044858,16.992099464184797L153.15739917755127,17.301793984178563L154.31768250465393,16.55074728524976L155.4779658317566,16.829595842941693L156.63824915885925,17.629985496722245L157.7985324859619,17.547873668564396L158.95881581306458,16.75505216910326L160.11909914016724,16.731492098955048L161.27938246726993,16.858862901253836L162.43966579437256,17.26084832875815L163.59994912147522,17.086339744777593L164.76023244857788,17.02464782017389L165.92051577568054,16.56052943343186L167.0807991027832,16.875754527735968L168.24108242988586,17.47037506267818L169.4013657569885,17.01545665840135L170.5616490840912,17.378128258631044L171.72193241119385,16.679970433011338L172.8822157382965,16.705215255461415L174.04249906539917,16.72753160794175L175.20278239250183,16.88815642164402L176.3630657196045,17.042130433065584L177.52334904670715,16.77525155534038L178.68363237380984,16.899632142820654L179.84391570091248,17.311249766731496L181.00419902801514,17.139643190642662L182.1644823551178,16.974581568522375L183.32476568222046,16.613003734185007L184.48504900932312,16.34730682927891L185.64533233642578,16.487044242715022L186.8056156635284,16.574942445270924L187.9658989906311,17.09927970093911L189.12618231773376,17.869784847919934L190.28646564483643,17.069492221758853L191.4467489719391,16.55740690822315L192.60703229904175,16.64788957373428L193.7673156261444,16.651206154181953L194.92759895324707,16.125404663528887L196.08788228034976,16.562858096299372L197.2481656074524,16.47605365963577L198.40844893455505,16.749971450119595L199.56873226165771,16.78148778506513L200.72901558876038,16.675154334808074L201.88929891586304,16.90662695211588L203.0495822429657,17.034800437448528L204.20986557006833,16.73956303275722L205.37014889717102,16.505241331713794L206.53043222427368,16.4699232782232L207.69071555137634,16.441714703032652L208.850998878479,16.843735413307673L210.01128220558167,16.37734128785421L211.17156553268433,16.87331119586363L212.331848859787,16.706952931919364L213.49213218688968,16.81611782452669L214.6524155139923,16.72760217348318L215.81269884109497,16.613056658341087L216.97298216819763,16.22705432597288L218.1332654953003,16.356162804729614L219.29354882240295,16.58211366841974L220.45383214950562,17.347987951743583L221.61411547660825,16.704130310261778L222.77439880371094,16.32272355877983L223.9346821308136,16.207181305364905L225.09496545791626,16.11472280469345L226.25524878501892,16.077808205827772L227.41553211212158,16.583551441326584L228.57581543922424,16.34006504058866L229.7360987663269,16.053665969962683L230.8963820934296,16.371475527222035L232.05666542053223,16.635831686840763L233.2169487476349,16.43875095029218L234.37723207473755,16.853940954738412L235.5375154018402,16.858977570258663L236.69779872894287,16.371881279085322L237.85808205604553,16.116725101931795L239.01836538314816,16.164656745954765L240.17864871025085,16.194594176910574L241.33893203735352,16.708108442660453L242.49921536445618,16.42579335274529L243.65949869155884,16.16268091079444L244.8197820186615,16.467127118643635L245.98006534576416,16.143196000664396L247.14034867286682,16.04971429964205L248.3006319999695,16.270240437334017L249.46091532707214,16.75659579032224L250.6211986541748,16.330529871801605L251.78148198127747,16.177517315882163L252.94176530838013,16.46083796476282" fill="none"></path></g></g></g></g></g></g><g transform="translate(51, 177)" clip-path="url(#clip_1)"><clipPath id="clip_1"><rect width="278" height="22"></rect></clipPath><g><g><line x1="0" y1="0" x2="0" y2="5" style="visibility: inherit;" fill="rgb(0, 0, 0)" stroke="rgb(204, 204, 204)" stroke-width="1px"></line><line x1="23.205666542053223" y1="0" x2="23.205666542053223" y2="5" style="visibility: inherit;" fill="rgb(0, 0, 0)" stroke="rgb(204, 204, 204)" stroke-width="1px"></line><line x1="46.411333084106445" y1="0" x2="46.411333084106445" y2="5" style="visibility: inherit;" fill="rgb(0, 0, 0)" stroke="rgb(204, 204, 204)" stroke-width="1px"></line><line x1="69.61699962615967" y1="0" x2="69.61699962615967" y2="5" style="visibility: inherit;" fill="rgb(0, 0, 0)" stroke="rgb(204, 204, 204)" stroke-width="1px"></line><line x1="92.82266616821289" y1="0" x2="92.82266616821289" y2="5" style="visibility: inherit;" fill="rgb(0, 0, 0)" stroke="rgb(204, 204, 204)" stroke-width="1px"></line><line x1="116.02833271026611" y1="0" x2="116.02833271026611" y2="5" style="visibility: inherit;" fill="rgb(0, 0, 0)" stroke="rgb(204, 204, 204)" stroke-width="1px"></line><line x1="139.23399925231934" y1="0" x2="139.23399925231934" y2="5" style="visibility: inherit;" fill="rgb(0, 0, 0)" stroke="rgb(204, 204, 204)" stroke-width="1px"></line><line x1="162.43966579437256" y1="0" x2="162.43966579437256" y2="5" style="visibility: inherit;" fill="rgb(0, 0, 0)" stroke="rgb(204, 204, 204)" stroke-width="1px"></line><line x1="185.64533233642578" y1="0" x2="185.64533233642578" y2="5" style="visibility: inherit;" fill="rgb(0, 0, 0)" stroke="rgb(204, 204, 204)" stroke-width="1px"></line><line x1="208.850998878479" y1="0" x2="208.850998878479" y2="5" style="visibility: inherit;" fill="rgb(0, 0, 0)" stroke="rgb(204, 204, 204)" stroke-width="1px"></line><line x1="232.05666542053223" y1="0" x2="232.05666542053223" y2="5" style="visibility: inherit;" fill="rgb(0, 0, 0)" stroke="rgb(204, 204, 204)" stroke-width="1px"></line><line x1="255.26233196258545" y1="0" x2="255.26233196258545" y2="5" style="visibility: inherit;" fill="rgb(0, 0, 0)" stroke="rgb(204, 204, 204)" stroke-width="1px"></line><line x1="278.4679985046387" y1="0" x2="278.4679985046387" y2="5" style="visibility: inherit;" fill="rgb(0, 0, 0)" stroke="rgb(204, 204, 204)" stroke-width="1px"></line></g><g transform="translate(0, 8)"><text style="text-anchor: middle; visibility: hidden; font-family: Roboto, sans-serif; font-size: 12px; font-weight: 200;" x="0" y="0" dx="0em" dy="0.95em" fill="rgb(50, 49, 63)" stroke="none" stroke-width="1px">-20</text><text style="text-anchor: middle; visibility: inherit; font-family: Roboto, sans-serif; font-size: 12px; font-weight: 200;" x="23.205666542053223" y="0" dx="0em" dy="0.95em" fill="rgb(50, 49, 63)" stroke="none" stroke-width="1px">0</text><text style="text-anchor: middle; visibility: hidden; font-family: Roboto, sans-serif; font-size: 12px; font-weight: 200;" x="46.411333084106445" y="0" dx="0em" dy="0.95em" fill="rgb(50, 49, 63)" stroke="none" stroke-width="1px">20</text><text style="text-anchor: middle; visibility: inherit; font-family: Roboto, sans-serif; font-size: 12px; font-weight: 200;" x="69.61699962615967" y="0" dx="0em" dy="0.95em" fill="rgb(50, 49, 63)" stroke="none" stroke-width="1px">40</text><text style="text-anchor: middle; visibility: hidden; font-family: Roboto, sans-serif; font-size: 12px; font-weight: 200;" x="92.82266616821289" y="0" dx="0em" dy="0.95em" fill="rgb(50, 49, 63)" stroke="none" stroke-width="1px">60</text><text style="text-anchor: middle; visibility: inherit; font-family: Roboto, sans-serif; font-size: 12px; font-weight: 200;" x="116.02833271026611" y="0" dx="0em" dy="0.95em" fill="rgb(50, 49, 63)" stroke="none" stroke-width="1px">80</text><text style="text-anchor: middle; visibility: hidden; font-family: Roboto, sans-serif; font-size: 12px; font-weight: 200;" x="139.23399925231934" y="0" dx="0em" dy="0.95em" fill="rgb(50, 49, 63)" stroke="none" stroke-width="1px">100</text><text style="text-anchor: middle; visibility: inherit; font-family: Roboto, sans-serif; font-size: 12px; font-weight: 200;" x="162.43966579437256" y="0" dx="0em" dy="0.95em" fill="rgb(50, 49, 63)" stroke="none" stroke-width="1px">120</text><text style="text-anchor: middle; visibility: hidden; font-family: Roboto, sans-serif; font-size: 12px; font-weight: 200;" x="185.64533233642578" y="0" dx="0em" dy="0.95em" fill="rgb(50, 49, 63)" stroke="none" stroke-width="1px">140</text><text style="text-anchor: middle; visibility: inherit; font-family: Roboto, sans-serif; font-size: 12px; font-weight: 200;" x="208.850998878479" y="0" dx="0em" dy="0.95em" fill="rgb(50, 49, 63)" stroke="none" stroke-width="1px">160</text><text style="text-anchor: middle; visibility: hidden; font-family: Roboto, sans-serif; font-size: 12px; font-weight: 200;" x="232.05666542053223" y="0" dx="0em" dy="0.95em" fill="rgb(50, 49, 63)" stroke="none" stroke-width="1px">180</text><text style="text-anchor: middle; visibility: inherit; font-family: Roboto, sans-serif; font-size: 12px; font-weight: 200;" x="255.26233196258545" y="0" dx="0em" dy="0.95em" fill="rgb(50, 49, 63)" stroke="none" stroke-width="1px">200</text><text style="text-anchor: middle; visibility: hidden; font-family: Roboto, sans-serif; font-size: 12px; font-weight: 200;" x="278.4679985046387" y="0" dx="0em" dy="0.95em" fill="rgb(50, 49, 63)" stroke="none" stroke-width="1px">220</text></g><line x1="0" y1="0" x2="278.4679985046387" y2="0" fill="rgb(0, 0, 0)" stroke="rgb(204, 204, 204)" stroke-width="1px"></line></g></g></g></g></svg>