<svg viewBox="0 0 330 200" xmlns="http://www.w3.org/2000/svg"><g><g><g><g><g><line x1="72.29800224304199" y1="177.58399963378906" x2="67.29800224304199" y2="177.58399963378906" style="visibility: inherit;" fill="rgb(0, 0, 0)" stroke="rgb(204, 204, 204)" stroke-width="1px"></line><line x1="72.29800224304199" y1="159.82559967041016" x2="67.29800224304199" y2="159.82559967041016" style="visibility: inherit;" fill="rgb(0, 0, 0)" stroke="rgb(204, 204, 204)" stroke-width="1px"></line><line x1="72.29800224304199" y1="142.06719970703125" x2="67.29800224304199" y2="142.06719970703125" style="visibility: inherit;" fill="rgb(0, 0, 0)" stroke="rgb(204, 204, 204)" stroke-width="1px"></line><line x1="72.29800224304199" y1="124.30879974365233" x2="67.29800224304199" y2="124.30879974365233" style="visibility: inherit;" fill="rgb(0, 0, 0)" stroke="rgb(204, 204, 204)" stroke-width="1px"></line><line x1="72.29800224304199" y1="106.55039978027344" x2="67.29800224304199" y2="106.55039978027344" style="visibility: inherit;" fill="rgb(0, 0, 0)" stroke="rgb(204, 204, 204)" stroke-width="1px"></line><line x1="72.29800224304199" y1="88.79199981689453" x2="67.29800224304199" y2="88.79199981689453" style="visibility: inherit;" fill="rgb(0, 0, 0)" stroke="rgb(204, 204, 204)" stroke-width="1px"></line><line x1="72.29800224304199" y1="71.03359985351562" x2="67.29800224304199" y2="71.03359985351562" style="visibility: inherit;" fill="rgb(0, 0, 0)" stroke="rgb(204, 204, 204)" stroke-width="1px"></line><line x1="72.29800224304199" y1="53.275199890136726" x2="67.29800224304199" y2="53.275199890136726" style="visibility: inherit;" fill="rgb(0, 0, 0)" stroke="rgb(204, 204, 204)" stroke-width="1px"></line><line x1="72.29800224304199" y1="35.516799926757805" x2="67.29800224304199" y2="35.516799926757805" style="visibility: inherit;" fill="rgb(0, 0, 0)" stroke="rgb(204, 204, 204)" stroke-width="1px"></line><line x1="72.29800224304199" y1="17.758399963378903" x2="67.29800224304199" y2="17.758399963378903" style="visibility: inherit;" fill="rgb(0, 0, 0)" stroke="rgb(204, 204, 204)" stroke-width="1px"></line><line x1="72.29800224304199" y1="0" x2="67.29800224304199" y2="0" style="visibility: inherit;" fill="rgb(0, 0, 0)" stroke="rgb(204, 204, 204)" stroke-width="1px"></line></g><g transform="translate(62.29800224304199, 0)"><text style="text-anchor: end; visibility: hidden; font-family: Roboto, sans-serif; font-size: 12px; font-weight: 200;" x="0" y="177.58399963378906" dx="0em" dy="0.3em" fill="rgb(50, 49, 63)" stroke="none" stroke-width="1px">-200</text><text style="text-anchor: end; visibility: inherit; font-family: Roboto, sans-serif; font-size: 12px; font-weight: 200;" x="0" y="159.82559967041016" dx="0em" dy="0.3em" fill="rgb(50, 49, 63)" stroke="none" stroke-width="1px">0</text><text style="text-anchor: end; visibility: hidden; font-family: Roboto, sans-serif; font-size: 12px; font-weight: 200;" x="0" y="142.06719970703125" dx="0em" dy="0.3em" fill="rgb(50, 49, 63)" stroke="none" stroke-width="1px">200</text><text style="text-anchor: end; visibility: inherit; font-family: Roboto, sans-serif; font-size: 12px; font-weight: 200;" x="0" y="124.30879974365233" dx="0em" dy="0.3em" fill="rgb(50, 49, 63)" stroke="none" stroke-width="1px">400</text><text style="text-anchor: end; visibility: hidden; font-family: Roboto, sans-serif; font-size: 12px; font-weight: 200;" x="0" y="106.55039978027344" dx="0em" dy="0.3em" fill="rgb(50, 49, 63)" stroke="none" stroke-width="1px">600</text><text style="text-anchor: end; visibility: inherit; font-family: Roboto, sans-serif; font-size: 12px; font-weight: 200;" x="0" y="88.79199981689453" dx="0em" dy="0.3em" fill="rgb(50, 49, 63)" stroke="none" stroke-width="1px">800</text><text style="text-anchor: end; visibility: hidden; font-family: Roboto, sans-serif; font-size: 12px; font-weight: 200;" x="0" y="71.03359985351562" dx="0em" dy="0.3em" fill="rgb(50, 49, 63)" stroke="none" stroke-width="1px">1e+3</text><text style="text-anchor: end; visibility: inherit; font-family: Roboto, sans-serif; font-size: 12px; font-weight: 200;" x="0" y="53.275199890136726" dx="0em" dy="0.3em" fill="rgb(50, 49, 63)" stroke="none" stroke-width="1px">1.2e+3</text><text style="text-anchor: end; visibility: hidden; font-family: Roboto, sans-serif; font-size: 12px; font-weight: 200;" x="0" y="35.516799926757805" dx="0em" dy="0.3em" fill="rgb(50, 49, 63)" stroke="none" stroke-width="1px">1.4e+3</text><text style="text-anchor: end; visibility: inherit; font-family: Roboto, sans-serif; font-size: 12px; font-weight: 200;" x="0" y="17.758399963378903" dx="0em" dy="0.3em" fill="rgb(50, 49, 63)" stroke="none" stroke-width="1px">1.6e+3</text><text style="text-anchor: end; visibility: hidden; font-family: Roboto, sans-serif; font-size: 12px; font-weight: 200;" x="0" y="0" dx="0em" dy="0.3em" fill="rgb(50, 49, 63)" stroke="none" stroke-width="1px">1.8e+3</text></g><line x1="72.29800224304199" y1="0" x2="72.29800224304199" y2="177.58399963378906" fill="rgb(0, 0, 0)" stroke="rgb(204, 204, 204)" stroke-width="1px"></line></g></g><g transform="translate(72, 0)" clip-path="url(#clip_0)"><clipPath id="clip_0"><rect width="257" height="177"></rect></clipPath><g><g><g><line x1="0" y1="0" x2="0" y2="177.58399963378906" fill="rgb(0, 0, 0)" stroke="rgb(60, 60, 60)" stroke-width="1px" opacity="0.25"></line><line x1="21.4751664797465" y1="0" x2="21.4751664797465" y2="177.58399963378906" fill="rgb(0, 0, 0)" stroke="rgb(60, 60, 60)" stroke-width="1px" opacity="0.25"></line><line x1="42.950332959493" y1="0" x2="42.950332959493" y2="177.58399963378906" fill="rgb(0, 0, 0)" stroke="rgb(60, 60, 60)" stroke-width="1px" opacity="0.25"></line><line x1="64.4254994392395" y1="0" x2="64.4254994392395" y2="177.58399963378906" fill="rgb(0, 0, 0)" stroke="rgb(60, 60, 60)" stroke-width="1px" opacity="0.25"></line><line x1="85.900665918986" y1="0" x2="85.900665918986" y2="177.58399963378906" fill="rgb(0, 0, 0)" stroke="rgb(60, 60, 60)" stroke-width="1px" opacity="0.25"></line><line x1="107.37583239873251" y1="0" x2="107.37583239873251" y2="177.58399963378906" fill="rgb(0, 0, 0)" stroke="rgb(60, 60, 60)" stroke-width="1px" opacity="0.25"></line><line x1="128.850998878479" y1="0" x2="128.850998878479" y2="177.58399963378906" fill="rgb(0, 0, 0)" stroke="rgb(60, 60, 60)" stroke-width="1px" opacity="0.25"></line><line x1="150.32616535822552" y1="0" x2="150.32616535822552" y2="177.58399963378906" fill="rgb(0, 0, 0)" stroke="rgb(60, 60, 60)" stroke-width="1px" opacity="0.25"></line><line x1="171.801331837972" y1="0" x2="171.801331837972" y2="177.58399963378906" fill="rgb(0, 0, 0)" stroke="rgb(60, 60, 60)" stroke-width="1px" opacity="0.25"></line><line x1="193.2764983177185" y1="0" x2="193.2764983177185" y2="177.58399963378906" fill="rgb(0, 0, 0)" stroke="rgb(60, 60, 60)" stroke-width="1px" opacity="0.25"></line><line x1="214.75166479746503" y1="0" x2="214.75166479746503" y2="177.58399963378906" fill="rgb(0, 0, 0)" stroke="rgb(60, 60, 60)" stroke-width="1px" opacity="0.25"></line><line x1="236.2268312772115" y1="0" x2="236.2268312772115" y2="177.58399963378906" fill="rgb(0, 0, 0)" stroke="rgb(60, 60, 60)" stroke-width="1px" opacity="0.25"></line><line x1="257.701997756958" y1="0" x2="257.701997756958" y2="177.58399963378906" fill="rgb(0, 0, 0)" stroke="rgb(60, 60, 60)" stroke-width="1px" opacity="0.25"></line></g><g><line x1="0" y1="177.58399963378906" x2="257.701997756958" y2="177.58399963378906" fill="rgb(0, 0, 0)" stroke="rgb(60, 60, 60)" stroke-width="1px" opacity="0.25"></line><line x1="0" y1="159.82559967041016" x2="257.701997756958" y2="159.82559967041016" fill="rgb(0, 0, 0)" stroke="rgb(60, 60, 60)" stroke-width="1px" opacity="0.25"></line><line x1="0" y1="142.06719970703125" x2="257.701997756958" y2="142.06719970703125" fill="rgb(0, 0, 0)" stroke="rgb(60, 60, 60)" stroke-width="1px" opacity="0.25"></line><line x1="0" y1="124.30879974365233" x2="257.701997756958" y2="124.30879974365233" fill="rgb(0, 0, 0)" stroke="rgb(60, 60, 60)" stroke-width="1px" opacity="0.25"></line><line x1="0" y1="106.55039978027344" x2="257.701997756958" y2="106.55039978027344" fill="rgb(0, 0, 0)" stroke="rgb(60, 60, 60)" stroke-width="1px" opacity="0.25"></line><line x1="0" y1="88.79199981689453" x2="257.701997756958" y2="88.79199981689453" fill="rgb(0, 0, 0)" stroke="rgb(60, 60, 60)" stroke-width="1px" opacity="0.25"></line><line x1="0" y1="71.03359985351562" x2="257.701997756958" y2="71.03359985351562" fill="rgb(0, 0, 0)" stroke="rgb(60, 60, 60)" stroke-width="1px" opacity="0.25"></line><line x1="0" y1="53.275199890136726" x2="257.701997756958" y2="53.275199890136726" fill="rgb(0, 0, 0)" stroke="rgb(60, 60, 60)" stroke-width="1px" opacity="0.25"></line><line x1="0" y1="35.516799926757805" x2="257.701997756958" y2="35.516799926757805" fill="rgb(0, 0, 0)" stroke="rgb(60, 60, 60)" stroke-width="1px" opacity="0.25"></line><line x1="0" y1="17.758399963378903" x2="257.701997756958" y2="17.758399963378903" fill="rgb(0, 0, 0)" stroke="rgb(60, 60, 60)" stroke-width="1px" opacity="0.25"></line><line x1="0" y1="0" x2="257.701997756958" y2="0" fill="rgb(0, 0, 0)" stroke="rgb(60, 60, 60)" stroke-width="1px" opacity="0.25"></line></g></g></g><g><g><line x1="0" y1="159.82559967041016" x2="257.701997756958" y2="159.82559967041016" fill="rgb(0, 0, 0)" stroke="rgb(153, 153, 153)" stroke-width="1.5px"></line></g></g><g><g><line x1="21.4751664797465" y1="0" x2="21.4751664797465" y2="177.58399963378906" fill="rgb(0, 0, 0)" stroke="rgb(153, 153, 153)" stroke-width="1.5px"></line></g></g><g><g><g><g><g><path style="fill: none;" stroke="rgb(0, 153, 136)" stroke-width="2px" d="M31.138991395632427,-1.5870242108736985L32.21274971961975,27.03777312039511L33.28650804360708,47.14837150818664L34.3602663675944,60.81045488549951L35.434024691581726,70.51770178101489L36.50778301556905,78.39558507870984L37.58154133955638,85.91424416459465L38.6552996635437,91.7558838231855L39.72905798753103,96.20095100281853L40.80281631151835,101.13084399754217L41.876574635505676,105.53868803916824L42.950332959493,108.90436060936305L44.024091283480324,112.16108742118622L45.09784960746765,114.64428626486274L46.17160793145498,117.6167966583429L47.2453662554423,119.09322681640133L48.31912457942963,121.48042830343955L49.392882903416954,124.87818639744314L50.466641227404274,127.60145373148087L51.5403995513916,130.58537929001284L52.61415787537893,132.48416488869054L53.687916199366256,134.3742872208944L54.76167452335358,136.51278318547853L55.835432847340904,137.4002739076388L56.909191171328224,138.73065691056425L57.98294949531555,140.3562895113307L59.05670781930287,141.55444354470848L60.1304661432902,140.94292786950004L61.20422446727753,142.6061794820629L62.277982791264854,144.07367992726878L63.351741115252175,145.5587050026035L64.4254994392395,146.49187348485964L65.49925776322682,147.06560551018705L66.57301608721416,148.0428928267453L67.64677441120148,148.6809758259234L68.7205327351888,149.260122387231L69.79429105917612,149.02693806747226L70.86804938316345,149.31418397896064L71.94180770715077,149.72553586307902L73.0155660311381,150.32911182892164L74.08932435512543,150.92957320661412L75.16308267911276,151.53391585044895L76.23684100310008,151.908986946903L77.3105993270874,152.2421573306994L78.38435765107472,152.46423696708348L79.45811597506206,152.72301644384544L80.53187429904938,153.11579134860227L81.6056326230367,153.063876487142L82.67939094702403,153.55391341401537L83.75314927101135,153.7917481021278L84.82690759499867,154.08105448387013L85.900665918986,153.9055728668336L86.97442424297333,154.13229438520926L88.04818256696065,154.49060983565664L89.12194089094798,154.58063509666127L90.1956992149353,154.4453253217453L91.26945753892264,154.64191767353245L92.34321586290996,154.7534795078357L93.41697418689728,154.76275518995746L94.4907325108846,155.08446908316108L95.56449083487193,154.67901256831547L96.63824915885925,154.8178648181172L97.71200748284657,154.94208300108033L98.78576580683391,155.22348452957226L99.85952413082123,155.41145523429887L100.93328245480855,155.23680228072564L102.00704077879587,155.30323466742047L103.0807991027832,155.5083751719237L104.15455742677052,155.7101321725713L105.22831575075786,155.96845236097025L106.30207407474518,156.13588532574178L107.37583239873251,156.2188290888083L108.44959072271983,155.99343485181768L109.52334904670715,155.86775128068516L110.59710737069447,155.4633750162231L111.67086569468181,155.35024310036965L112.74462401866913,155.36029825097762L113.81838234265645,155.33692210757738L114.89214066664378,155.39364617855685L115.9658989906311,155.68752728701492L117.03965731461842,155.8789211645343L118.11341563860574,156.19407506615772L119.18717396259308,156.2023004501195L120.2609322865804,156.14913162979852L121.33469061056773,156.24553813739016L122.40844893455505,156.67237691308364L123.48220725854239,156.7667889388185L124.55596558252971,156.65586875823047L125.62972390651703,156.91725274056492L126.70348223050435,157.11964952429912L127.77724055449168,156.9672825000481L128.850998878479,156.61760974601543L129.92475720246634,156.74457660619478L130.99851552645364,156.79139951509976L132.07227385044098,156.73427740936114L133.1460321744283,156.63911464184432L134.21979049841565,156.7726394607385L135.29354882240295,156.93769157652753L136.3673071463903,157.190544458434L137.4410654703776,157.1850791328422L138.51482379436493,157.13949692282822L139.58858211835224,157.13855453212307L140.66234044233957,157.15006603446707L141.7360987663269,157.0771387178252L142.80985709031424,157.24678288982068L143.88361541430154,157.16401559533944L144.95737373828888,156.7808833120447L146.0311320622762,156.6306505122283L147.10489038626352,156.71141294133665L148.17864871025085,156.95128953494253L149.2524070342382,157.00482347126683L150.32616535822552,156.86647358517686L151.39992368221283,156.73948169834014L152.47368200620016,156.72812182441743L153.54744033018747,157.03546172600895L154.6211986541748,157.34428251666455L155.6949569781621,157.08855693149377L156.76871530214945,156.89434088462576L157.84247362613678,157.00225669186977L158.91623195012411,157.0490261891622L159.98999027411142,157.04807860797098L161.06374859809875,157.23031419280264L162.1375069220861,157.04519285550882L163.2112652460734,156.912568320633L164.28502357006073,156.94405283274264L165.35878189404806,157.0553324178941L166.4325402180354,157.08554398944L167.5062985420227,156.88205586393417L168.58005686601004,156.844473906889L169.65381518999735,157.1431644357287L170.72757351398468,157.3116448196501L171.801331837972,157.51790413619352L172.87509016195932,157.44373605030705L173.94884848594666,157.13862256371078L175.022606809934,156.74416892292138L176.0963651339213,156.95065899690883L177.17012345790863,157.1224301466286L178.24388178189596,157.29409351709293L179.31764010588327,157.54538878443924L180.3913984298706,157.78142894500078L181.46515675385794,157.87857100792115L182.53891507784527,157.8543132592347L183.61267340183258,157.61009243105917L184.68643172581992,157.48442529539014L185.76019004980722,157.3330759201329L186.83394837379456,157.3198010473577L187.90770669778186,157.22107619205605L188.9814650217692,157.33898820119038L190.05522334575653,157.55947801467516L191.12898166974387,157.72543315637708L192.20273999373117,157.73234808540641L193.2764983177185,157.58598419782192L194.35025664170584,157.62960704606704L195.42401496569315,157.55116590593786L196.49777328968048,157.45885504830864L197.57153161366782,157.39197628610466L198.64528993765515,157.3538900552124L199.71904826164246,157.4647328979565L200.7928065856298,157.6729526594692L201.8665649096171,157.65254580784472L202.94032323360443,157.47197781565586L204.01408155759174,156.92237007329112L205.08783988157907,157.04117783913594L206.1615982055664,157.40228093548413L207.23535652955374,157.57086388180772L208.30911485354105,157.87127809328277L209.38287317752838,158.0551308822148L210.45663150151572,157.87520749977605L211.53038982550302,157.81579994343045L212.60414814949036,157.91966084307566L213.6779064734777,157.7559320629615L214.75166479746503,157.66956586092687L215.82542312145233,157.58123284142934L216.89918144543967,157.46806410709488L217.97293976942697,157.22819712591254L219.0466980934143,157.3312567161189L220.1204564174016,157.7159570549834L221.19421474138895,157.9186562238996L222.26797306537628,157.94145519907374L223.34173138936362,157.63826687366833L224.41548971335092,157.7158450971954L225.48924803733826,157.919344721497L226.5630063613256,157.91109797312288L227.6367646853129,157.96088721942618L228.71052300930023,157.9641806132591L229.78428133328757,157.94532780175632L230.8580396572749,157.6999308620049L231.9317979812622,157.74003452343908L233.00555630524954,157.86364859903716L234.07931462923685,157.70676504852239L235.15307295322418,157.58608782280928" fill="none"></path></g></g></g></g><g opacity="0.2"><g><g><g><path style="fill: none;" stroke="rgb(0, 153, 136)" stroke-width="2px" d="M26.843958099683128,-43.64161475375296L27.917716423670452,0.5699509910121641L28.991474747657776,28.835700528426088L30.0652330716451,50.76870101932902L31.138991395632427,59.510106482747936L32.21274971961975,69.7153443122888L33.28650804360708,77.20482810153159L34.3602663675944,81.25897087881575L35.434024691581726,85.059554617072L36.50778301556905,90.20314986916027L37.58154133955638,97.18693005251234L38.6552996635437,100.51587132494431L39.72905798753103,102.86742317019264L40.80281631151835,108.52493247004924L41.876574635505676,112.15005120720248L42.950332959493,113.95268488317262L44.024091283480324,117.04607047493802L45.09784960746765,118.36903550394811L46.17160793145498,122.0755270363437L47.2453662554423,121.30786155965528L48.31912457942963,125.06122035367298L49.392882903416954,129.9748148445168L50.466641227404274,131.68635055168068L51.5403995513916,135.06126487919363L52.61415787537893,135.3323422372772L53.687916199366256,137.209470092415L54.76167452335358,139.72052670686563L55.835432847340904,138.73150988493057L56.909191171328224,140.72623131965986L57.98294949531555,142.7947383426159L59.05670781930287,143.3516745638795L60.1304661432902,140.0256543661485L61.20422446727753,145.10105688546724L62.277982791264854,146.27493058690393L63.351741115252175,147.7862426106428L64.4254994392395,147.89162620637273L65.49925776322682,147.92620354748797L66.57301608721416,149.50882380087714L67.64677441120148,149.63810032441427L68.7205327351888,150.1288422290419L69.79429105917612,148.6771615878705L70.86804938316345,149.74505284616635L71.94180770715077,150.3425636892335L73.0155660311381,151.2344757776652L74.08932435512543,151.8302652731407L75.16308267911276,152.44042981619396L76.23684100310008,152.47159359158132L77.3105993270874,152.74191290639254L78.38435765107472,152.79735642165906L79.45811597506206,153.11118565898795L80.53187429904938,153.70495370573713L81.6056326230367,152.98600419495168L82.67939094702403,154.28896880432526L83.75314927101135,154.14850013429634L84.82690759499867,154.51501405648364L85.900665918986,153.64235044127884L86.97442424297333,154.47237666277272L88.04818256696065,155.02808301132768L89.12194089094798,154.71567298816822L90.1956992149353,154.24236065937134L91.26945753892264,154.9368062012132L92.34321586290996,154.92082225929056L93.41697418689728,154.7766687131401L94.4907325108846,155.5670399229665L95.56449083487193,154.0708277960471L96.63824915885925,155.02614319281972L97.71200748284657,155.1284102755251L98.78576580683391,155.64558682231015L99.85952413082123,155.69341129138877L100.93328245480855,154.97482285036574L102.00704077879587,155.40288324746274L103.0807991027832,155.81608592867852L104.15455742677052,156.0127676735427L105.22831575075786,156.35593264356868L106.30207407474518,156.38703477289906L107.37583239873251,156.34324473340806L108.44959072271983,155.65534349633177L109.52334904670715,155.67922592398637L110.59710737069447,154.85681061953002L111.67086569468181,155.18054522658946L112.74462401866913,155.37538097688957L113.81838234265645,155.301857892477L114.89214066664378,155.47873228502604L115.9658989906311,156.12834894970203L117.03965731461842,156.16601198081335L118.11341563860574,156.66680591859287L119.18717396259308,156.2146385260622L120.2609322865804,156.06937839931706L121.33469061056773,156.39014789877766L122.40844893455505,157.31263507662385L123.48220725854239,156.90840697742084L124.55596558252971,156.4894884873484L125.62972390651703,157.30932871406657L126.70348223050435,157.42324469990038L127.77724055449168,156.7387319636716L128.850998878479,156.0931006149664L129.92475720246634,156.93502689646382L130.99851552645364,156.8616338784572L132.07227385044098,156.64859425075323L133.1460321744283,156.4963704905691L134.21979049841565,156.97292668907977L135.29354882240295,157.18526975021106L136.3673071463903,157.56982378129368L137.4410654703776,157.17688114445446L138.51482379436493,157.07112360780732L139.58858211835224,157.13714094606533L140.66234044233957,157.16733328798304L141.7360987663269,156.9677477428624L142.80985709031424,157.50124914781387L143.88361541430154,157.03986465361763L144.95737373828888,156.20618488710255L146.0311320622762,156.40530131250372L147.10489038626352,156.8325565849991L148.17864871025085,157.31110442535137L149.2524070342382,157.08512437575328L150.32616535822552,156.65894875604192L151.39992368221283,156.5489938680851L152.47368200620016,156.71108201353331L153.54744033018747,157.49647157839624L154.6211986541748,157.807513702648L155.6949569781621,156.70496855373756L156.76871530214945,156.60301681432378L157.84247362613678,157.16413040273574L158.91623195012411,157.1191804351008L159.98999027411142,157.0466572361842L161.06374859809875,157.5036675700501L162.1375069220861,156.76751084956808L163.2112652460734,156.71363151831932L164.28502357006073,156.99127960090715L165.35878189404806,157.22225179562128L166.4325402180354,157.13086134675882L167.5062985420227,156.5768236756754L168.58005686601004,156.78810097132126L169.65381518999735,157.59120022898824L170.72757351398468,157.56436539553223L171.801331837972,157.8272931110087L172.87509016195932,157.33248392147732L173.94884848594666,156.68095233381638L175.022606809934,156.15248846173722L176.0963651339213,157.26039410789002L177.17012345790863,157.38008687120825L178.24388178189596,157.5515885727894L179.31764010588327,157.92233168545872L180.3913984298706,158.1354891858431L181.46515675385794,158.02428410230166L182.53891507784527,157.81792663620502L183.61267340183258,157.2437611887959L184.68643172581992,157.29592459188657L185.76019004980722,157.106051857247L186.83394837379456,157.29988873819494L187.90770669778186,157.07298890910351L188.9814650217692,157.5158562148919L190.05522334575653,157.89021273490238L191.12898166974387,157.9743658689299L192.20273999373117,157.74272047895042L193.2764983177185,157.36643836644515L194.35025664170584,157.69504131843476L195.42401496569315,157.4335041957441L196.49777328968048,157.32038876186482L197.57153161366782,157.2916581427987L198.64528993765515,157.296760708874L199.71904826164246,157.63099716207267L200.7928065856298,157.98528230173818L201.8665649096171,157.621935530408L202.94032323360443,157.20112582737258L204.01408155759174,156.09795845974395L205.08783988157907,157.21938948790316L206.1615982055664,157.94393558000644L207.23535652955374,157.82373830129313L208.30911485354105,158.32189941049532L209.38287317752838,158.33091006561284L210.45663150151572,157.60532242611794L211.53038982550302,157.72668860891207L212.60414814949036,158.07545219254345L213.6779064734777,157.51033889279026L214.75166479746503,157.5400165578749L215.82542312145233,157.44873331218304L216.89918144543967,157.2983110055932L217.97293976942697,156.86839665413908L219.0466980934143,157.4858461014284L220.1204564174016,158.2930075632801L221.19421474138895,158.22270497727396L222.26797306537628,157.97565366183494L223.34173138936362,157.1834843855602L224.41548971335092,157.832212432486L225.48924803733826,158.2245941579494L226.5630063613256,157.8987278505617L227.6367646853129,158.0355710888812L228.71052300930023,157.96912070400845L229.78428133328757,157.9170485845022L230.8580396572749,157.3318354523777L231.9317979812622,157.80019001559035L233.00555630524954,158.0490697124343L234.07931462923685,157.47143972275023L235.15307295322418,157.4050719842396" fill="none"></path></g></g></g></g></g></g><g transform="translate(72, 177)" clip-path="url(#clip_1)"><clipPath id="clip_1"><rect width="257" height="22"></rect></clipPath><g><g><line x1="0" y1="0" x2="0" y2="5" style="visibility: inherit;" fill="rgb(0, 0, 0)" stroke="rgb(204, 204, 204)" stroke-width="1px"></line><line x1="21.4751664797465" y1="0" x2="21.4751664797465" y2="5" style="visibility: inherit;" fill="rgb(0, 0, 0)" stroke="rgb(204, 204, 204)" stroke-width="1px"></line><line x1="42.950332959493" y1="0" x2="42.950332959493" y2="5" style="visibility: inherit;" fill="rgb(0, 0, 0)" stroke="rgb(204, 204, 204)" stroke-width="1px"></line><line x1="64.4254994392395" y1="0" x2="64.4254994392395" y2="5" style="visibility: inherit;" fill="rgb(0, 0, 0)" stroke="rgb(204, 204, 204)" stroke-width="1px"></line><line x1="85.900665918986" y1="0" x2="85.900665918986" y2="5" style="visibility: inherit;" fill="rgb(0, 0, 0)" stroke="rgb(204, 204, 204)" stroke-width="1px"></line><line x1="107.37583239873251" y1="0" x2="107.37583239873251" y2="5" style="visibility: inherit;" fill="rgb(0, 0, 0)" stroke="rgb(204, 204, 204)" stroke-width="1px"></line><line x1="128.850998878479" y1="0" x2="128.850998878479" y2="5" style="visibility: inherit;" fill="rgb(0, 0, 0)" stroke="rgb(204, 204, 204)" stroke-width="1px"></line><line x1="150.32616535822552" y1="0" x2="150.32616535822552" y2="5" style="visibility: inherit;" fill="rgb(0, 0, 0)" stroke="rgb(204, 204, 204)" stroke-width="1px"></line><line x1="171.801331837972" y1="0" x2="171.801331837972" y2="5" style="visibility: inherit;" fill="rgb(0, 0, 0)" stroke="rgb(204, 204, 204)" stroke-width="1px"></line><line x1="193.2764983177185" y1="0" x2="193.2764983177185" y2="5" style="visibility: inherit;" fill="rgb(0, 0, 0)" stroke="rgb(204, 204, 204)" stroke-width="1px"></line><line x1="214.75166479746503" y1="0" x2="214.75166479746503" y2="5" style="visibility: inherit;" fill="rgb(0, 0, 0)" stroke="rgb(204, 204, 204)" stroke-width="1px"></line><line x1="236.2268312772115" y1="0" x2="236.2268312772115" y2="5" style="visibility: inherit;" fill="rgb(0, 0, 0)" stroke="rgb(204, 204, 204)" stroke-width="1px"></line><line x1="257.701997756958" y1="0" x2="257.701997756958" y2="5" style="visibility: inherit;" fill="rgb(0, 0, 0)" stroke="rgb(204, 204, 204)" stroke-width="1px"></line></g><g transform="translate(0, 8)"><text style="text-anchor: middle; visibility: hidden; font-family: Roboto, sans-serif; font-size: 12px; font-weight: 200;" x="0" y="0" dx="0em" dy="0.95em" fill="rgb(50, 49, 63)" stroke="none" stroke-width="1px">-20</text><text style="text-anchor: middle; visibility: inherit; font-family: Roboto, sans-serif; font-size: 12px; font-weight: 200;" x="21.4751664797465" y="0" dx="0em" dy="0.95em" fill="rgb(50, 49, 63)" stroke="none" stroke-width="1px">0</text><text style="text-anchor: middle; visibility: hidden; font-family: Roboto, sans-serif; font-size: 12px; font-weight: 200;" x="42.950332959493" y="0" dx="0em" dy="0.95em" fill="rgb(50, 49, 63)" stroke="none" stroke-width="1px">20</text><text style="text-anchor: middle; visibility: inherit; font-family: Roboto, sans-serif; font-size: 12px; font-weight: 200;" x="64.4254994392395" y="0" dx="0em" dy="0.95em" fill="rgb(50, 49, 63)" stroke="none" stroke-width="1px">40</text><text style="text-anchor: middle; visibility: hidden; font-family: Roboto, sans-serif; font-size: 12px; font-weight: 200;" x="85.900665918986" y="0" dx="0em" dy="0.95em" fill="rgb(50, 49, 63)" stroke="none" stroke-width="1px">60</text><text style="text-anchor: middle; visibility: inherit; font-family: Roboto, sans-serif; font-size: 12px; font-weight: 200;" x="107.37583239873251" y="0" dx="0em" dy="0.95em" fill="rgb(50, 49, 63)" stroke="none" stroke-width="1px">80</text><text style="text-anchor: middle; visibility: hidden; font-family: Roboto, sans-serif; font-size: 12px; font-weight: 200;" x="128.850998878479" y="0" dx="0em" dy="0.95em" fill="rgb(50, 49, 63)" stroke="none" stroke-width="1px">100</text><text style="text-anchor: middle; visibility: inherit; font-family: Roboto, sans-serif; font-size: 12px; font-weight: 200;" x="150.32616535822552" y="0" dx="0em" dy="0.95em" fill="rgb(50, 49, 63)" stroke="none" stroke-width="1px">120</text><text style="text-anchor: middle; visibility: hidden; font-family: Roboto, sans-serif; font-size: 12px; font-weight: 200;" x="171.801331837972" y="0" dx="0em" dy="0.95em" fill="rgb(50, 49, 63)" stroke="none" stroke-width="1px">140</text><text style="text-anchor: middle; visibility: inherit; font-family: Roboto, sans-serif; font-size: 12px; font-weight: 200;" x="193.2764983177185" y="0" dx="0em" dy="0.95em" fill="rgb(50, 49, 63)" stroke="none" stroke-width="1px">160</text><text style="text-anchor: middle; visibility: hidden; font-family: Roboto, sans-serif; font-size: 12px; font-weight: 200;" x="214.75166479746503" y="0" dx="0em" dy="0.95em" fill="rgb(50, 49, 63)" stroke="none" stroke-width="1px">180</text><text style="text-anchor: middle; visibility: inherit; font-family: Roboto, sans-serif; font-size: 12px; font-weight: 200;" x="236.2268312772115" y="0" dx="0em" dy="0.95em" fill="rgb(50, 49, 63)" stroke="none" stroke-width="1px">200</text><text style="text-anchor: middle; visibility: hidden; font-family: Roboto, sans-serif; font-size: 12px; font-weight: 200;" x="257.701997756958" y="0" dx="0em" dy="0.95em" fill="rgb(50, 49, 63)" stroke="none" stroke-width="1px">220</text></g><line x1="0" y1="0" x2="257.701997756958" y2="0" fill="rgb(0, 0, 0)" stroke="rgb(204, 204, 204)" stroke-width="1px"></line></g></g></g></g></svg>